<svg id="Capa_1" enable-background="new 0 0 512 512" height="512" viewBox="0 0 512 512" width="512" xmlns="http://www.w3.org/2000/svg"><g><g><path d="m10 116v320h206c0 11.05 17.91 20 40 20s40-8.95 40-20h206v-320z" fill="#a4caff"/><path d="m418 476-29.58-20-30.42 20c0-9.679 0-70.257 0-80h60z" fill="#ff9256"/><path d="m418 76v-40c-94.211 0-157.103 38.209-162 40h-206v320h410c0-9.985 0-303.308 0-320z" fill="#eefaff"/></g><g><path d="m502 106h-32v-30c0-5.523-4.477-10-10-10h-32v-30c0-5.523-4.477-10-10-10-95.298 0-160.265 38.5-164.358 40h-203.642c-5.523 0-10 4.477-10 10v30h-30c-5.523 0-10 4.477-10 10v320c0 5.523 4.477 10 10 10h57.999c5.523 0 10-4.477 10-10s-4.477-10-10-10h-47.999v-300h20v270c0 5.523 4.477 10 10 10h298v20h-52c-5.523 0-10 4.477-10 10 0 .346-1.076 2.644-6.188 5.199-6.103 3.051-14.782 4.801-23.812 4.801s-17.709-1.75-23.812-4.801c-5.112-2.556-6.188-4.853-6.188-5.199 0-5.523-4.477-10-10-10h-57.999c-5.523 0-10 4.477-10 10s4.477 10 10 10h50.632c6.563 11.889 24.76 20 47.367 20s40.804-8.111 47.367-20h44.633v30c0 3.676 2.018 7.057 5.253 8.802s7.168 1.574 10.24-.446l24.849-16.337 24.057 16.266c3.07 2.075 7.028 2.281 10.291.548 3.268-1.735 5.31-5.132 5.31-8.832v-30h74c5.523 0 10-4.477 10-10v-320.001c0-5.523-4.477-10-10-10zm-256 280h-186v-300h186zm20-303.817c1.868-.688 60.37-33.512 142-36.029v299.984c-49.495 1.378-98.252 12.963-142 33.76zm142 374.984-13.979-9.452c-3.344-2.262-7.721-2.289-11.095-.072l-14.926 9.814v-51.457h40zm-104.524-71.167c36.299-13.009 75.859-20 114.524-20 5.523 0 10-4.477 10-10v-270h22v300zm188.524 40h-64v-20h32c5.523 0 10-4.477 10-10v-270h22z"/><path d="m90 146h86c5.523 0 10-4.477 10-10s-4.477-10-10-10h-86c-5.523 0-10 4.477-10 10s4.477 10 10 10z"/><path d="m90 186h126c5.523 0 10-4.477 10-10s-4.477-10-10-10h-126c-5.523 0-10 4.477-10 10s4.477 10 10 10z"/><path d="m90 226h126c5.523 0 10-4.477 10-10s-4.477-10-10-10h-126c-5.523 0-10 4.477-10 10s4.477 10 10 10z"/><path d="m90 266h126c5.523 0 10-4.477 10-10s-4.477-10-10-10h-126c-5.523 0-10 4.477-10 10s4.477 10 10 10z"/><path d="m90 306h126c5.523 0 10-4.477 10-10s-4.477-10-10-10h-126c-5.523 0-10 4.477-10 10s4.477 10 10 10z"/><path d="m90 346h126c5.523 0 10-4.477 10-10s-4.477-10-10-10h-126c-5.523 0-10 4.477-10 10s4.477 10 10 10z"/><circle cx="113" cy="436" r="10"/></g></g></svg>