<svg id="Capa_1" enable-background="new 0 0 512 512" height="512" viewBox="0 0 512 512" width="512" xmlns="http://www.w3.org/2000/svg"><g><g><path d="m10 105.001v320h206c0 11.05 17.91 20 40 20s40-8.95 40-20h206v-320z" fill="#a4caff"/><path d="m419 465.001-29.17-20-30.83 20c0-9.679 0-70.258 0-80h60z" fill="#ff9256"/><path d="m306.37 65.001-.12.06-8.83-18.06c-29.843 11.154-34.177 14.689-41.42 18h-206v320h412c0-9.985 0-303.308 0-320z" fill="#eefaff"/></g><g><path d="m502 95.001h-30v-30c0-5.523-4.478-10-10-10h-149.537l-6.059-12.393c-2.261-4.625-7.666-6.774-12.484-4.975-29.975 11.204-34.179 14.597-40.277 17.367h-203.643c-5.523 0-10 4.477-10 10v30h-30c-5.523 0-10 4.477-10 10v320c0 5.523 4.477 10 10 10h57.999c5.523 0 10-4.477 10-10s-4.477-10-10-10h-47.999v-300h20v270c0 5.523 4.477 10 10 10h299v20h-53c-5.522 0-10 4.477-10 10 0 3.029-12.164 10-30 10-18.068 0-30-7.068-30-10 0-5.523-4.477-10-10-10h-57.999c-5.523 0-10 4.477-10 10s4.477 10 10 10h50.632c6.563 11.889 24.76 20 47.367 20 22.606 0 40.805-8.111 47.367-20h45.633v30c0 3.666 2.006 7.037 5.227 8.787s7.141 1.597 10.216-.398l25.234-16.37 23.668 16.228c3.067 2.102 7.039 2.327 10.316.6 3.283-1.73 5.339-5.136 5.339-8.847v-30h73c5.522 0 10-4.477 10-10v-320c0-5.522-4.478-9.999-10-9.999zm-256 280h-186v-300h186zm20-303.817c2.547-1.181 8.663-4.768 26.438-11.608l12.407 25.375-17.789 35.577c-1.407 2.815-1.407 6.129 0 8.944l17.764 35.528-17.764 35.528c-1.407 2.815-1.407 6.129 0 8.944l17.764 35.528-17.764 35.528c-1.407 2.815-1.407 6.129 0 8.944l16.776 33.553-37.832 37.833zm143 374.836-13.515-9.267c-3.334-2.285-7.71-2.339-11.098-.142l-15.387 9.982v-51.593h40zm-128.857-71.019 42.929-42.929c3.043-3.044 3.798-7.693 1.873-11.543l-17.764-35.528 17.764-35.528c1.407-2.815 1.407-6.129 0-8.944l-17.764-35.528 17.764-35.528c1.407-2.815 1.407-6.129 0-8.944l-17.764-35.528 17.764-35.528c1.394-2.788 1.408-6.065.039-8.865l-2.742-5.607h129.758v300zm211.857 40h-63v-20h33c5.522 0 10-4.477 10-10v-270h20z"/><path d="m90 135.001h86c5.523 0 10-4.477 10-10s-4.477-10-10-10h-86c-5.523 0-10 4.477-10 10 0 5.522 4.477 10 10 10z"/><path d="m90 175.001h126c5.523 0 10-4.477 10-10s-4.477-10-10-10h-126c-5.523 0-10 4.477-10 10s4.477 10 10 10z"/><path d="m90 215.001h126c5.523 0 10-4.477 10-10s-4.477-10-10-10h-126c-5.523 0-10 4.477-10 10s4.477 10 10 10z"/><path d="m90 255.001h126c5.523 0 10-4.477 10-10s-4.477-10-10-10h-126c-5.523 0-10 4.477-10 10s4.477 10 10 10z"/><path d="m90 295.001h126c5.523 0 10-4.477 10-10s-4.477-10-10-10h-126c-5.523 0-10 4.477-10 10s4.477 10 10 10z"/><path d="m90 335.001h126c5.523 0 10-4.477 10-10s-4.477-10-10-10h-126c-5.523 0-10 4.477-10 10s4.477 10 10 10z"/><circle cx="113" cy="425.001" r="10"/></g></g></svg>