<svg id="Capa_1" enable-background="new 0 0 512 512" height="512" viewBox="0 0 512 512" width="512" xmlns="http://www.w3.org/2000/svg"><g><g><path d="m482 210v-20h20v-40l-246-140-246 140v40h20v20c0 11.05 8.95 20 20 20v192c-11.05 0-20 8.95-20 20v20h-20v40h492v-40h-20v-20c0-11.05-8.95-20-20-20v-192c11.05 0 20-8.95 20-20z" fill="#eefaff"/><path d="m402 230v192c-11.05 0-20 8.95-20 20v20h-252v-20c0-11.05-8.95-20-20-20v-192c11.05 0 20-8.95 20-20v-20h252v20c0 11.05 8.95 20 20 20z" fill="#ffee80"/><path d="m156 270h200v132h-200z" fill="#ff9256"/><circle cx="256" cy="110" fill="#ffee80" r="40"/><path d="m276 250c-11.05 0-20 8.95-20 20 0-11.05-8.95-20-20-20h-40v111.96l20 .04c22.05.05 39.98 17.96 40 40 0-22.09 17.91-40 40-40h20c0-13.348 0-102.07 0-112z" fill="#eefaff"/></g><g><path d="m206 110c0 6.401 1.207 12.622 3.56 18.518.913 6.219-3.927 11.482-9.881 11.482-5.514 0-10-4.486-10-10-1.744-20.52-15.991-30-30-30-16.542 0-30 13.458-30 30 0 5.523 4.478 10 10 10s10-4.477 10-10c0-5.514 4.486-10 10-10s10 4.486 10 10c0 16.542 13.458 30 30 30 9.755 0 18.434-4.683 23.917-11.915 8.865 7.539 20.27 11.915 32.404 11.915 12.133 0 23.538-4.375 32.403-11.916 5.482 7.233 14.162 11.916 23.917 11.916 16.542 0 30-13.458 30-30 0-5.514 4.486-10 10-10s10 4.486 10 10c0 5.523 4.478 10 10 10s10-4.477 10-10c0-16.542-13.458-30-30-30-13.847 0-28.23 9.184-30 30 0 5.514-4.486 10-10 10-5.957 0-10.793-5.266-9.881-11.482 2.353-5.897 3.56-12.117 3.56-18.518 0-27.57-22.43-50-50-50s-49.999 22.43-49.999 50zm80 0c0 16.575-13.409 30-30 30-16.559 0-30-13.398-30-30 0-16.542 13.458-30 30-30s30 13.458 30 30z"/><path d="m356 260h-30v-10c0-5.523-4.478-10-10-10h-40c-7.678 0-14.688 2.902-20 7.663-5.312-4.761-12.322-7.663-20-7.663h-40c-5.522 0-10 4.477-10 10v10h-30c-5.522 0-10 4.477-10 10v132c0 5.523 4.478 10 10 10h200c5.522 0 10-4.477 10-10v-132c0-5.523-4.478-10-10-10zm-190 132v-112h20v81.96c0 5.515 4.465 9.989 9.98 10l19.997.04c13.026.029 24.141 8.387 28.285 20zm80-29.926c-8.358-6.299-18.743-10.048-29.98-10.074l-10.02-.02v-91.98h30c5.514 0 10 4.486 10 10zm20-92.074c0-5.514 4.486-10 10-10h30v92h-10c-11.247 0-21.637 3.735-30 10.027zm80 122h-78.28c4.128-11.639 15.243-20 28.28-20h20c5.522 0 10-4.477 10-10v-82h20z"/><path d="m506.946 141.309-246-140c-3.066-1.745-6.826-1.745-9.893 0l-246 140c-3.123 1.778-5.053 5.096-5.053 8.691v40c0 5.523 4.478 10 10 10h10v10c0 13.036 8.361 24.152 20 28.28v175.44c-11.639 4.128-20 15.243-20 28.28v10h-10c-5.522 0-10 4.477-10 10v40c0 5.523 4.478 10 10 10h201c5.522 0 10-4.477 10-10s-4.478-10-10-10h-191v-20h472v20h-191c-5.522 0-10 4.477-10 10s4.478 10 10 10h201c5.522 0 10-4.477 10-10v-40c0-5.523-4.478-10-10-10h-10v-10c0-13.036-8.361-24.152-20-28.28v-175.44c11.639-4.128 20-15.243 20-28.28v-10h10c5.522 0 10-4.477 10-10v-40c0-3.595-1.93-6.913-5.054-8.691zm-386.946 310.691h-80v-10c0-5.514 4.486-10 10-10h60c5.514 0 10 4.486 10 10zm-70-232c-5.514 0-10-4.486-10-10v-10h80v10c0 5.514-4.486 10-10 10zm50 20v172h-40v-172zm272 202v10h-232v-10c0-13.036-8.361-24.152-20-28.28v-175.44c11.639-4.128 20-15.243 20-28.28v-10h232v10c0 13.036 8.361 24.152 20 28.28v175.44c-11.639 4.128-20 15.244-20 28.28zm100 10h-80v-10c0-5.514 4.486-10 10-10h60c5.514 0 10 4.486 10 10zm-60-40v-172h40v172zm60-202c0 5.514-4.486 10-10 10h-60c-5.514 0-10-4.486-10-10v-10h80zm20-30h-472v-24.185l236-134.309 236 134.309z"/><circle cx="256" cy="502" r="10"/></g></g></svg>