<svg id="Capa_1" enable-background="new 0 0 512 512" height="512" viewBox="0 0 512 512" width="512" xmlns="http://www.w3.org/2000/svg"><g><g><path d="m436 30v452c0 11.05-8.95 20-20 20h-320c-11.05 0-20-8.95-20-20v-452c0-11.05 8.95-20 20-20h320c11.05 0 20 8.95 20 20z" fill="#a4caff"/><path d="m116 53h280v323h-280z" fill="#eefaff"/><path d="m176 96h160v40h-160z" fill="#a4caff"/><path d="m116 376v40h280v-40c-5.842 0-264.764 0-280 0z" fill="#8690a6"/></g><g><circle cx="356" cy="336" r="10"/><circle cx="116" cy="459" r="10"/><path d="m406 416v-363c0-5.523-4.478-10-10-10h-280c-5.522 0-10 4.477-10 10v363c0 5.523 4.478 10 10 10h280c5.522 0 10-4.477 10-10zm-220-10h-60v-20h60zm120 0h-100v-20h100zm80 0h-60v-20h60zm0-40h-260v-303h260z"/><path d="m176 146h160c5.522 0 10-4.477 10-10v-40c0-5.523-4.478-10-10-10h-160c-5.522 0-10 4.477-10 10v40c0 5.523 4.478 10 10 10zm10-40h140v20h-140z"/><path d="m156 186h100c5.522 0 10-4.477 10-10s-4.478-10-10-10h-100c-5.522 0-10 4.477-10 10s4.478 10 10 10z"/><path d="m156 226h200c5.522 0 10-4.477 10-10s-4.478-10-10-10h-200c-5.522 0-10 4.477-10 10s4.478 10 10 10z"/><path d="m156 266h200c5.522 0 10-4.477 10-10s-4.478-10-10-10h-200c-5.522 0-10 4.477-10 10s4.478 10 10 10z"/><path d="m156 306h200c5.522 0 10-4.477 10-10s-4.478-10-10-10h-200c-5.522 0-10 4.477-10 10s4.478 10 10 10z"/><path d="m156 346h160c5.522 0 10-4.477 10-10s-4.478-10-10-10h-160c-5.522 0-10 4.477-10 10s4.478 10 10 10z"/><path d="m396 449h-20c-5.522 0-10 4.477-10 10s4.478 10 10 10h20c5.522 0 10-4.477 10-10s-4.478-10-10-10z"/><path d="m316 449c-5.522 0-10 4.477-10 10s4.478 10 10 10h20c5.522 0 10-4.477 10-10s-4.478-10-10-10z"/><circle cx="256" cy="502" r="10"/><path d="m96 512h115c5.522 0 10-4.477 10-10s-4.478-10-10-10h-115c-5.514 0-10-4.486-10-10v-452c0-5.514 4.486-10 10-10h320c5.514 0 10 4.486 10 10v452c0 5.514-4.486 10-10 10h-115c-5.522 0-10 4.477-10 10s4.478 10 10 10h115c16.542 0 30-13.458 30-30v-452c0-16.542-13.458-30-30-30h-320c-16.542 0-30 13.458-30 30v452c0 16.542 13.458 30 30 30z"/></g></g></svg>