<svg id="Capa_1" enable-background="new 0 0 512 512" height="512" viewBox="0 0 512 512" width="512" xmlns="http://www.w3.org/2000/svg"><g><g><path d="m419 110c0-55.14-47.86-100-103-100-34.45 0-64.89 17.51-82.88 44.1-14.52-14.84-34.72-24.1-57.12-24.1-44.18 0-83 35.82-83 80-44.18 0-83 35.82-83 80 0 44.14 35.75 79.93 79.87 80h332c44.19 0 80.13-35.82 80.13-80s-38.82-80-83-80z" fill="#eefaff"/><path d="m90 170v180h331.87c0-37.968 0-142.055 0-180z" fill="#ff9256"/><path d="m316 442-60 60-60-60h40v-92h40v92z" fill="#d8ec84"/><path d="m296 150c-22.09 0-40 17.91-40 40 0-22.09-17.91-40-40-40h-86v160h85.87c22.1 0 40 17.91 40 40 0-1.07.04-2.14.13-3.19 1.62-20.6 18.85-36.81 39.87-36.81h86c0-38.484 0-128.632 0-160z" fill="#fce8d0"/></g><g><path d="m285.87 200h66c5.523 0 10-4.477 10-10s-4.477-10-10-10h-66c-5.523 0-10 4.477-10 10s4.477 10 10 10z"/><path d="m285.87 240h66c5.523 0 10-4.477 10-10s-4.477-10-10-10h-66c-5.523 0-10 4.477-10 10s4.477 10 10 10z"/><path d="m361.87 270c0-5.523-4.477-10-10-10h-66c-5.523 0-10 4.477-10 10s4.477 10 10 10h66c5.523 0 10-4.477 10-10z"/><path d="m225.87 180h-66c-5.523 0-10 4.477-10 10s4.477 10 10 10h66c5.523 0 10-4.477 10-10s-4.477-10-10-10z"/><path d="m225.87 220h-66c-5.523 0-10 4.477-10 10s4.477 10 10 10h66c5.523 0 10-4.477 10-10s-4.477-10-10-10z"/><path d="m225.87 260h-66c-5.523 0-10 4.477-10 10s4.477 10 10 10h66c5.523 0 10-4.477 10-10s-4.477-10-10-10z"/><path d="m428.573 100.498c-5.148-57.113-56.104-100.498-112.573-100.498-32.72 0-63.468 14.538-84.291 39.384-15.827-12.571-35.23-19.384-55.709-19.384-47.097 0-87.367 35.973-92.458 80.486-46.166 4.756-83.542 43.814-83.542 89.514 0 46.217 35.074 84.447 80 89.442v70.558c0 5.523 4.477 10 10 10h23c5.523 0 10-4.477 10-10s-4.477-10-10-10h-13v-160h20v130c0 5.523 4.477 10 10 10h85.87c13.036 0 24.152 8.361 28.28 20h-41.15c-5.523 0-10 4.477-10 10s4.477 10 10 10h23v72h-30c-4.044 0-7.691 2.437-9.239 6.173s-.692 8.038 2.167 10.898l60 60c1.953 1.953 4.512 2.929 7.071 2.929s5.119-.976 7.071-2.929l60-60c2.86-2.86 3.715-7.162 2.167-10.898-1.546-3.736-5.193-6.173-9.237-6.173h-30v-72h135.87c5.523 0 10-4.477 10-10v-70.557c45.009-4.984 80.13-43.192 80.13-89.443 0-45.662-37.314-84.692-83.427-89.502zm-212.703 199.502h-75.87v-140h76c16.542 0 30 13.458 30 30v120.122c-8.384-6.351-18.825-10.122-30.13-10.122zm75.988 152-35.858 35.858-35.858-35.858h15.858c5.523 0 10-4.477 10-10v-82h20v82c0 5.523 4.477 10 10 10zm120.142-112h-144.402c4.157-11.666 15.38-20 28.272-20h86c5.523 0 10-4.477 10-10v-130h20.13zm-146-29.994v-120.006c0-16.542 13.458-30 30-30h76v140h-76.13c-11.116 0-21.485 3.727-29.87 10.006zm165.87-50.729v-89.277c0-5.523-4.477-10-10-10h-30v-10c0-5.523-4.477-10-10-10h-85.87c-16.339 0-30.87 7.878-40 20.035-9.13-12.157-23.661-20.035-40-20.035h-86c-5.523 0-10 4.477-10 10v10h-30c-5.523 0-10 4.477-10 10v89.272c-33.869-4.872-60-34.092-60-69.272 0-37.944 33.43-70 73-70 5.523 0 10-4.477 10-10 0-37.944 33.43-70 73-70 18.917 0 36.664 7.491 49.972 21.094 2.101 2.146 5.058 3.241 8.045 2.966 2.991-.269 5.703-1.869 7.386-4.356 16.82-24.862 44.706-39.704 74.597-39.704 50.411 0 93 41.215 93 90 0 5.523 4.477 10 10 10 39.57 0 73 32.056 73 70 0 35.209-26.181 64.416-60.13 69.277z"/><circle cx="158" cy="350" r="10"/></g></g></svg>