<svg id="Capa_1" enable-background="new 0 0 512.001 512.001" height="512" viewBox="0 0 512.001 512.001" width="512" xmlns="http://www.w3.org/2000/svg"><g><g><path d="m10 50v360h492v-360c-7.518 0-483.552 0-492 0z" fill="#a4caff"/><path d="m216 394.73v107.27l40-40 40 40c0-22.376 0-84.192 0-107.27z" fill="#ff9256"/><path d="m50 90h412v280h-412z" fill="#eefaff"/><circle cx="256" cy="350" fill="#ffee80" r="60"/></g><g><circle cx="296" cy="250" r="10"/><circle cx="256" cy="250" r="10"/><circle cx="216" cy="250" r="10"/><path d="m502 40h-179.82l-17.235-34.472c-1.694-3.388-5.157-5.528-8.945-5.528h-80c-3.788 0-7.25 2.14-8.944 5.528l-17.236 34.472h-179.82c-5.523 0-10 4.477-10 10v360c0 5.523 4.477 10 10 10h196v82c0 4.044 2.437 7.691 6.173 9.239 3.738 1.549 8.038.692 10.898-2.167l32.929-32.93 32.929 32.929c2.861 2.86 7.16 3.715 10.898 2.167 3.737-1.548 6.173-5.194 6.173-9.239v-82h196c5.523 0 10-4.477 10-10v-359.999c0-5.523-4.477-10-10-10zm-279.819-20h67.64l10 20h-87.639zm63.819 457.858-22.929-22.929c-3.905-3.905-10.237-3.905-14.143 0l-22.928 22.929v-64.62c9.3 4.412 19.524 6.762 30 6.762s20.7-2.35 30-6.762zm-30-77.858c-27.45 0-50-22.22-50-50 0-27.57 22.43-50 50-50s50 22.43 50 50c0 27.645-22.419 50-50 50zm236 0h-186v-1.013c5.434-5.547 9.918-11.981 13.251-18.987h142.749c5.523 0 10-4.477 10-10 0-36.083 0-249.949 0-280 0-5.523-4.477-10-10-10-9.259 0-151.711 0-161 0-5.523 0-10 4.477-10 10s4.477 10 10 9.99h90.944c-.25 33.98 28.074 59.629 60.056 59.935v140.019c-33.928-.25-59.623 28.036-59.929 60.057h-66.794c.472-3.297.723-6.634.723-10 0-38.598-31.402-70-70-70s-70 31.402-70 70c0 3.366.252 6.703.723 10h-66.785c-.261-32.127-25.864-60.384-59.938-60.069v-139.997c32.135-.262 60.383-25.865 60.069-59.935h90.931c5.523 0 10-4.477 10-10s-4.477-10-10-10c-9.297 0-151.741 0-161 0-5.523 0-10 4.477-10 10v280c0 5.523 4.477 10 10 10h142.748c3.332 7.004 7.816 13.439 13.252 18.987v1.013h-186v-340h472zm-79.933-40c.257-21.235 17.479-40.413 39.933-40.083v40.083zm39.933-220.067c-21.227-.256-40.411-17.469-40.083-39.933h40.083zm-352.057 220.067h-39.943v-40.075c22.975-.367 39.735 19.077 39.943 40.075zm-39.943-220.057v-39.943h40.074c.368 22.972-19.074 39.736-40.074 39.943z"/><path d="m186 130c0 5.523 4.477 10 10 10h120c5.523 0 10-4.477 10-10s-4.477-10-10-10h-120c-5.523 0-10 4.477-10 10z"/><path d="m120 170c0 5.523 4.477 10 10 10h252c5.523 0 10-4.477 10-10s-4.477-10-10-10h-252c-5.523 0-10 4.477-10 10z"/><path d="m382 200h-252c-5.523 0-10 4.477-10 10s4.477 10 10 10h252c5.523 0 10-4.477 10-10s-4.477-10-10-10z"/><path d="m256 320c-16.542 0-30 13.458-30 30s13.458 30 30 30 30-13.458 30-30-13.458-30-30-30zm0 40c-5.514 0-10-4.486-10-10s4.486-10 10-10 10 4.486 10 10-4.485 10-10 10z"/><circle cx="256" cy="90" r="10"/></g></g></svg>