<svg id="Capa_1" enable-background="new 0 0 512 512" height="512" viewBox="0 0 512 512" width="512" xmlns="http://www.w3.org/2000/svg"><g><g><path d="m76 362c-22.09 0-40 17.91-40 40v40c0 22.09 17.91 40 40 40h380c0-15.003 0-106.901 0-120-8.798 0-377.23 0-380 0z" fill="#eefaff"/><path d="m356 352v10h-200v-10c0-16.57 13.43-30 30-30h140c16.57 0 30 13.43 30 30z" fill="#ff9256"/><path d="m156 10c.025.164 21.14 137.609 22.51 143 7.23 28.43 29.4 52.38 57.55 60.26l-.06.22v68.52h-40v40h120v-40h-40v-68.52l-.06-.22c28.15-7.88 50.32-31.83 57.55-60.26 1.378-5.424 22.485-142.837 22.51-143h-200z" fill="#ffee80"/><path d="m176 502-29.58-20-30.42 20c0-5.264 0-44.868 0-60h60z" fill="#ff9256"/></g><g><path d="m26 402v40c0 27.57 22.43 50 50 50h30v10c0 3.676 2.017 7.057 5.253 8.802 3.235 1.745 7.167 1.574 10.24-.446l24.849-16.337 24.057 16.266c3.07 2.075 7.028 2.281 10.291.548 3.268-1.735 5.31-5.132 5.31-8.832v-10h290c5.522 0 10-4.477 10-10s-4.478-10-10-10h-10v-100.001h10c5.522 0 10-4.477 10-10s-4.478-10-10-10h-110c0-22.056-17.944-40-40-40v-30c0-5.523-4.478-10-10-10h-30v-51.557c25.288-9.658 45.894-31.254 54.975-57.639 36.283-2.563 65.025-32.88 65.025-69.804v-63c0-5.523-4.478-10-10-10h-31.429l1.311-8.468c.447-2.885-.389-5.822-2.289-8.039s-4.673-3.493-7.593-3.493h-55c-5.522 0-10 4.477-10 10s4.478 10 10 9.99h43.331c-.021.149-19.39 126.047-20.532 130.545-8.013 31.506-36.098 55.469-67.799 55.478-31.978.009-59.879-24.336-67.798-55.474-1.216-4.786-20.512-130.404-20.533-130.539h43.331c5.523 0 10-4.477 10-10s-4.477-10-10-10h-55c-2.919 0-5.693 1.276-7.593 3.493s-2.736 5.153-2.289 8.039l1.311 8.468h-31.429c-5.523 0-10 4.477-10 10v63c0 36.924 28.742 67.24 65.025 69.804 9.081 26.384 29.685 47.979 54.975 57.639v51.557h-30c-5.523 0-10 4.477-10 10v30c-22.056 0-40 17.944-40 40h-70c-27.57 0-50 22.43-50 50zm335.475-362h24.525v53c0 24.259-17.368 44.53-40.321 49.051zm-235.475 53v-53h24.525l15.797 102.052c-22.954-4.522-40.322-24.793-40.322-49.052zm40 390.167-13.979-9.452c-3.344-2.262-7.721-2.29-11.095-.072l-14.926 9.815v-31.458h40zm280-11.167h-260v-20h260zm-200-246.612c3.318.399 6.656.612 10 .612 3.343 0 6.682-.213 10-.612v46.612h-20zm-40 66.612h100v20h-100zm-20 40h140c11.028 0 20 8.972 20 20h-180c0-11.028 8.972-20 20-20zm260 40v20h-370c-5.523 0-10 4.477-10 10s4.477 10 10 10h370v20h-370c-5.523 0-10 4.477-10 10s4.477 10 10 10h30v20h-30c-16.542 0-30-13.458-30-30v-40c0-16.542 13.458-30 30-30z"/><path d="m215.784 89.293c-3.768.547-6.897 3.185-8.074 6.806s-.196 7.595 2.531 10.252l15.934 15.531-3.761 21.928c-.644 3.752.899 7.543 3.979 9.781s7.163 2.532 10.532.76l19.686-10.352 19.686 10.352c3.38 1.779 7.465 1.468 10.53-.759 3.08-2.236 4.623-6.027 3.98-9.778l-3.754-21.931 15.929-15.532c2.726-2.657 3.705-6.632 2.528-10.251-1.177-3.62-4.307-6.258-8.074-6.805l-22.015-3.194-9.843-19.944c-1.685-3.414-5.161-5.575-8.968-5.575s-7.283 2.161-8.968 5.575l-9.842 19.942zm30.092 15.844c3.259-.473 6.075-2.519 7.532-5.471l3.202-6.489 3.202 6.489c1.457 2.952 4.273 4.999 7.532 5.471l7.166 1.04-5.183 5.054c-2.355 2.296-3.431 5.604-2.875 8.847l1.223 7.143-6.411-3.371c-1.457-.767-3.056-1.149-4.654-1.149-1.599 0-3.197.383-4.654 1.149l-6.404 3.368 1.225-7.137c.556-3.244-.52-6.554-2.877-8.852l-5.185-5.053z"/><circle cx="256" cy="10" r="10"/></g></g></svg>