<svg id="Capa_1" enable-background="new 0 0 512.007 512.007" height="512" viewBox="0 0 512.007 512.007" width="512" xmlns="http://www.w3.org/2000/svg"><g><g><path d="m475.146 467.862-95.6-95.6-28.281 28.281 95.6 95.6c7.81 7.81 20.471 7.81 28.281 0s7.81-20.472 0-28.281z" fill="#8690a6"/><path d="m10.003 56h492v320h-492z" fill="#ff9256"/><path d="m50.003 10h412v326h-412z" fill="#eefaff"/><path d="m396.003 316c0 55.138-44.852 100-100 100-55.142 0-100-44.869-100-100 0-55.324 45.048-100 100-100 55.14 0 100 44.86 100 100z" fill="#ffee80"/></g><g><circle cx="296.003" cy="366" r="10"/><path d="m90.003 86h86c5.522 0 10-4.477 10-10s-4.478-10-10-10h-86c-5.522 0-10 4.477-10 10s4.478 10 10 10z"/><path d="m90.003 126h126c5.522 0 10-4.477 10-10s-4.478-10-10-10h-126c-5.522 0-10 4.477-10 10s4.478 10 10 10z"/><path d="m296.003 86h80c5.522 0 10-4.477 10-10s-4.478-10-10-10h-80c-5.522 0-10 4.477-10 10s4.478 10 10 10z"/><path d="m296.003 126h126c5.522 0 10-4.477 10-10s-4.478-10-10-10h-126c-5.522 0-10 4.477-10 10s4.478 10 10 10z"/><path d="m226.003 156c0-5.523-4.478-10-10-10h-126c-5.522 0-10 4.477-10 10s4.478 10 10 10h126c5.523 0 10-4.477 10-10z"/><path d="m422.003 166c5.522 0 10-4.477 10-10s-4.478-10-10-10h-126c-5.522 0-10 4.477-10 10s4.478 10 10 10z"/><path d="m296.003 256c-16.542 0-30 13.458-30 30 0 5.523 4.478 10 10 10s10-4.477 10-10c0-5.514 4.486-10 10-10s10 4.486 10 10c0 3.474-1.761 6.647-4.713 8.492-9.43 5.898-15.287 16.461-15.287 27.568v3.94c0 5.523 4.478 10 10 10s10-4.477 10-10v-3.94c0-4.272 2.258-8.338 5.889-10.609 8.836-5.521 14.111-15.035 14.111-25.451 0-16.542-13.458-30-30-30z"/><circle cx="113.003" cy="376" r="10"/><path d="m10.003 386h57.999c5.522 0 10-4.477 10-10s-4.478-10-10-10h-47.999v-300h20v270c0 5.523 4.478 10 10 10h140.175c1.964 6.887 4.612 13.6 7.886 20h-40.06c-5.522 0-10 4.477-10 10s4.478 10 10 10h53.214c21.011 25.481 51.626 40 84.785 40 18.65 0 36.781-4.693 52.957-13.619l90.833 90.832c11.724 11.724 30.698 11.725 42.424 0 11.695-11.696 11.695-30.727 0-42.424l-74.79-74.789h94.577c5.522 0 10-4.477 10-10v-320c0-5.523-4.478-10-10-10h-30v-36c0-5.523-4.478-10-10-10-11.613 0-400.387 0-412 0-5.522 0-10 4.477-10 10v36h-30c-5.522 0-10 4.477-10 10v320c-.001 5.523 4.477 10 9.999 10zm286 20c-51.128 0-90-41.818-90-90 0-49.559 40.292-90 90-90 49.626 0 90 40.374 90 90 0 49.548-40.292 90-90 90zm172.072 68.932c3.898 3.898 3.898 10.241 0 14.14-3.908 3.907-10.23 3.908-14.139 0l-88.134-88.134c5.161-4.243 9.918-8.936 14.23-14.047zm3.928-138.932v-270h20v300h-98.034c3.28-6.395 5.914-13.077 7.874-20h60.16c5.523 0 10-4.477 10-10zm-206-316h186v306h-46.46c.301-3.319.46-6.658.46-10 0-60.654-49.346-110-110-110-10.26 0-20.301 1.401-30 4.161zm-206 0h186v198.057c-36.653 18.738-60 56.479-60 97.943 0 3.342.16 6.681.46 10h-126.46z"/></g></g></svg>