<svg id="Capa_1" enable-background="new 0 0 512 512" height="512" viewBox="0 0 512 512" width="512" xmlns="http://www.w3.org/2000/svg"><g><g><g fill="#ff9256"><path d="m154 53.25-20-43.25h-124v492h104c0-11.805 0-252.716 0-267.036 25.464-41.84 40-90.058 40-140.204z"/><path d="m378 10-20 43.25v41.51c0 50.146 14.536 98.364 40 140.204v267.036h104c0-17.368 0-467.377 0-492z"/></g><path d="m358 94.76v-41.51l-102-43.25-102 43.25v41.51l-40 143.62v223.62h284v-223.62z" fill="#ffee80"/><path d="m154 255.88v126.12h204v-126z" fill="#ff9256"/><path d="m398 462v40h-284v-40z" fill="#8690a6"/><g fill="#eefaff"><path d="m276.08 236c-11.04 0-20.08 8.83-20.08 19.88 0-11.05-8.87-19.88-19.92-19.88h-42.08v105.88l22.08.04c22.05.04 39.9 17.92 39.92 39.96h.08c0-22.09 17.91-40 40-40h21.92c0-64.483 0-69.324 0-105.88z"/><g><path d="m378 10s9.61 60 62 60 62-60 62-60z"/><path d="m318 70c52.665 0 59.909-59.869 60-60h-122s9.61 60 62 60z"/><path d="m154 53.25c8.95 9.48 21.76 16.75 40 16.75 52.39 0 62-60 62-60h-122s3.23 25.5 20 43.25z"/><path d="m72 70c52.39 0 62-60 62-60h-124s9.61 60 62 60z"/></g></g></g><g><path d="m502 0c-19.883 0-479.961 0-492 0-5.536 0-10 4.529-10 10v492c0 5.523 4.477 10 10 10h201c5.523 0 10-4.477 10-10s-4.477-10-10-10h-87v-20h264v20h-87c-5.523 0-10 4.477-10 10s4.477 10 10 10h201c5.523 0 10-4.477 10-10 0-17.368 0-467.377 0-492 0-5.446-4.455-10-10-10zm-12.975 20c-5.28 15.243-18.549 40-49.025 40-30.481 0-43.75-24.767-49.026-40zm-123.665-.01c-7.415 23.576-22.443 40.01-47.36 40.01-30.478 0-43.744-24.758-49.023-40.01zm-122.336.01c-5.28 15.242-18.545 40-49.024 40-24.833 0-39.993-16.489-47.378-40zm-122-.01c-5.28 15.252-18.546 40.01-49.024 40.01-30.484 0-43.749-24.767-49.025-40.01zm-59.024 472.01h-42v-150.269c14.839-8.868 28.891-19.011 42-30.299zm-42-173.867v-262.669c13.217 16.102 30.982 24.536 52 24.536 27.978 0 48.769-14.887 61.563-39.017 2.692 5.381 6.112 10.917 10.437 16.067v37.71c0 90.023-48.754 173.875-124 223.373zm84 173.867h-22v-199.466c7.812-8.07 15.158-16.567 22-25.434zm103.121-40 5.5-20h86.758l5.5 20zm-13.139-100.12 22.08.04c13.029.024 24.141 8.422 28.243 20.08h-80.305v-106.12h20v76c0 5.516 4.466 9.99 9.982 10zm114.018-19.88h-11.92c-11.284 0-21.704 3.641-30.08 9.97v-86.09c0-5.448 4.522-9.88 10.08-9.88h31.92zm10 19.88c5.523 0 10-4.477 10-10v-75.88h20v106h-80.24c4.094-11.701 15.24-20.12 28.321-20.12zm-29.621 40.12 5.5 20h-75.758l5.5-20zm-42.379-50.046c-8.34-6.28-18.697-9.894-29.902-9.914l-12.098-.022v-86.018h32.08c5.563 0 9.92 4.34 9.92 9.88zm142-103.574v213.62h-62.379l-5.5-20h17.879c5.523 0 10-4.477 10-10s-4.477-10-10-10h-23.379l-5.5-20h48.879c5.523 0 10-4.477 10-10v-126c0-5.523-4.477-10-10-10h-30v-10c0-5.523-4.477-10-10-10h-41.92c-7.698 0-14.727 2.891-20.053 7.633-5.298-4.742-12.289-7.633-19.947-7.633h-42.08c-5.523 0-10 4.477-10 10v10h-30c-5.523 0-10 4.357-10 9.88v126.12c0 5.523 4.477 10 10 10h48.879l-5.5 20h-23.379c-5.523 0-10 4.477-10 10s4.477 10 10 10h17.879l-5.5 20h-62.379v-213.62c0-.196-.018-.388-.029-.582 26.203-43.978 40.029-93.306 40.029-143.038v-21.585c8.914 4.537 18.943 6.825 30 6.825 27.638 0 48.917-14.573 62-39.857 13.085 25.286 34.365 39.857 62 39.857 11.061 0 21.085-2.307 30-6.847v21.607c0 49.731 13.826 99.059 40.029 143.038-.011.194-.029.385-.029.582zm42 253.62h-22v-224.9c6.842 8.868 14.189 17.364 22 25.434zm62 0h-42v-180.568c13.11 11.288 27.161 21.431 42 30.299zm0-173.867c-75.058-49.373-124-133.142-124-223.373v-37.725c4.325-5.152 7.744-10.682 10.436-16.064 12.735 24.042 33.483 39.029 61.564 39.029 21.02 0 38.783-8.44 52-24.546z"/><circle cx="256" cy="502" r="10"/></g></g></svg>