<svg id="Capa_1" enable-background="new 0 0 512 512" height="512" viewBox="0 0 512 512" width="512" xmlns="http://www.w3.org/2000/svg"><g><g><path d="m53 276v206c0 11.05 8.95 20 20 20h366c11.05 0 20-8.95 20-20v-206z" fill="#a4caff"/><path d="m53 176v100c0 22.09 17.91 40 40 40h326c22.09 0 40-17.91 40-40 0-12.787 0-89.16 0-100z" fill="#8690a6"/><path d="m459 216h43v40h-43z" fill="#a4caff"/><path d="m396 216c11.05 0 20 8.95 20 20s-8.95 20-20 20h-20v-40z" fill="#a4caff"/><path d="m316 10h-180v246h40c0 44.179 35.828 80 80 80 44.171 0 80-35.818 80-80h40c0-34.757 0-151.447 0-186z" fill="#eefaff"/><path d="m216 256h80c0 22.079-17.919 40-40 40-22.079 0-40-17.919-40-40z" fill="#8690a6"/><g fill="#a4caff"><path d="m136 216v40h-20c-11.05 0-20-8.95-20-20s8.95-20 20-20z"/><path d="m10 216h43v40h-43z"/></g></g><g><path d="m176 60h80c5.523 0 10-4.477 10-10s-4.477-10-10-10h-80c-5.523 0-10 4.477-10 10s4.477 10 10 10z"/><path d="m336 103h-160c-5.523 0-10 4.477-10 10s4.477 10 10 10h160c5.523 0 10-4.477 10-10s-4.477-10-10-10z"/><path d="m336 143h-160c-5.523 0-10 4.477-10 10s4.477 10 10 10h160c5.523 0 10-4.477 10-10s-4.477-10-10-10z"/><path d="m336 183h-160c-5.523 0-10 4.477-10 10s4.477 10 10 10h160c5.523 0 10-4.477 10-10s-4.477-10-10-10z"/><path d="m502 186c-5.523 0-10 4.477-10 10v10h-23v-30c0-5.523-4.477-10-10-10h-73v-96c0-2.735-1.123-5.266-2.929-7.071l-60-60c-1.874-1.871-4.431-2.929-7.071-2.929h-180c-5.523 0-10 4.477-10 10v156h-73c-5.523 0-10 4.477-10 10v30h-23v-10c0-5.523-4.477-10-10-10s-10 4.477-10 10v80c0 5.523 4.477 10 10 10s10-4.477 10-10v-10h23v216c0 16.542 13.458 30 30 30h138c5.523 0 10-4.477 10-10s-4.477-10-10-10h-138c-5.514 0-10-4.486-10-10v-166.027c8.363 6.292 18.753 10.027 30 10.027h106.451c15.968 12.921 35.896 20 56.549 20s40.581-7.079 56.549-20h106.451c11.247 0 21.637-3.735 30-10.027v166.027c0 5.514-4.486 10-10 10h-138c-5.523 0-10 4.477-10 10s4.477 10 10 10h138c16.542 0 30-13.458 30-30v-216h23v10c0 5.523 4.477 10 10 10s10-4.477 10-10v-80c0-5.523-4.477-10-10-10zm-459 60h-23v-20h23zm343-20h10c5.514 0 10 4.486 10 10s-4.486 10-10 10h-10zm-60-191.858 25.858 25.858h-25.858zm-180-14.142h160v50c0 5.523 4.477 10 10 10h50v166h-220zm-53 286c-16.542 0-30-13.458-30-30v-90h63v20h-10c-16.542 0-30 13.458-30 30s13.458 30 30 30h50.566c1.583 14.403 6.561 28.056 14.573 40zm33-80v20h-10c-5.514 0-10-4.486-10-10s4.486-10 10-10zm60.713 40h20.286c1.27 6.284 3.736 12.233 7.284 17.575l-14.347 14.347c-7.047-9.387-11.57-20.308-13.223-31.922zm59.287 59.275c-11.563-1.665-22.53-6.202-31.906-13.226l14.332-14.332c5.342 3.548 11.291 6.014 17.574 7.284zm-18.295-59.285h56.591c-4.025 11.409-15.002 20.01-28.296 20.01-13.276 0-24.266-8.585-28.295-20.01zm38.295 59.285v-20.274c6.284-1.27 12.233-3.736 17.575-7.284l14.332 14.332c-9.377 7.024-20.344 11.56-31.907 13.226zm46.064-27.354-14.347-14.347c3.548-5.342 6.014-11.291 7.284-17.584h20.286c-1.653 11.625-6.176 22.545-13.223 31.931zm136.936-21.921c0 16.542-13.458 30-30 30h-88.139c8.012-11.944 12.99-25.597 14.573-40h50.566c16.542 0 30-13.458 30-30s-13.458-30-30-30h-10v-20h63zm43-30h-23v-20h23z"/><path d="m216 389h20c5.523 0 10-4.477 10-10s-4.477-10-10-10h-20c-5.523 0-10 4.477-10 10s4.477 10 10 10z"/><path d="m96 389h20c5.523 0 10-4.477 10-10s-4.477-10-10-10h-20c-5.523 0-10 4.477-10 10s4.477 10 10 10z"/><path d="m276 389h20c5.523 0 10-4.477 10-10s-4.477-10-10-10h-20c-5.523 0-10 4.477-10 10s4.477 10 10 10z"/><path d="m156 389h20c5.523 0 10-4.477 10-10s-4.477-10-10-10h-20c-5.523 0-10 4.477-10 10s4.477 10 10 10z"/><path d="m336 389h20c5.523 0 10-4.477 10-10s-4.477-10-10-10h-20c-5.523 0-10 4.477-10 10s4.477 10 10 10z"/><path d="m396 389h20c5.523 0 10-4.477 10-10s-4.477-10-10-10h-20c-5.523 0-10 4.477-10 10s4.477 10 10 10z"/><path d="m216 429h20c5.523 0 10-4.477 10-10s-4.477-10-10-10h-20c-5.523 0-10 4.477-10 10s4.477 10 10 10z"/><path d="m276 429h20c5.523 0 10-4.477 10-10s-4.477-10-10-10h-20c-5.523 0-10 4.477-10 10s4.477 10 10 10z"/><path d="m96 429h20c5.523 0 10-4.477 10-10s-4.477-10-10-10h-20c-5.523 0-10 4.477-10 10s4.477 10 10 10z"/><path d="m186 419c0-5.523-4.477-10-10-10h-20c-5.523 0-10 4.477-10 10s4.477 10 10 10h20c5.523 0 10-4.477 10-10z"/><path d="m336 429h20c5.523 0 10-4.477 10-10s-4.477-10-10-10h-20c-5.523 0-10 4.477-10 10s4.477 10 10 10z"/><path d="m396 429h20c5.523 0 10-4.477 10-10s-4.477-10-10-10h-20c-5.523 0-10 4.477-10 10s4.477 10 10 10z"/><path d="m136 469h20c5.523 0 10-4.477 10-10s-4.477-10-10-10h-20c-5.523 0-10 4.477-10 10s4.477 10 10 10z"/><path d="m346 459c0 5.523 4.477 10 10 10h20c5.523 0 10-4.477 10-10s-4.477-10-10-10h-20c-5.523 0-10 4.477-10 10z"/><path d="m196 469h120c5.523 0 10-4.477 10-10s-4.477-10-10-10h-120c-5.523 0-10 4.477-10 10s4.477 10 10 10z"/><circle cx="256" cy="502" r="10"/></g></g></svg>