<svg id="Capa_1" enable-background="new 0 0 512 512" height="512" viewBox="0 0 512 512" width="512" xmlns="http://www.w3.org/2000/svg"><g><g><path d="m416 342c0-31.701-9.282-63.869-29.08-92h-261.84c-18.719 26.576-29.08 58.44-29.08 92 0 88.557 71.817 160 160 160 88.569 0 160-71.853 160-160z" fill="#a4caff"/><path d="m76 10v240h140l40 60 40-60h140v-240c-10.157 0-349.848 0-360 0z" fill="#eefaff"/><g fill="#d8ec84"><path d="m410.96 302c3.29 12.78 5.04 26.19 5.04 40 0 47.79-20.95 90.68-54.17 120h-65.83c-11.05 0-20-8.95-20-20s8.95-20 20-20h40c11.05 0 20-8.95 20-20s-8.95-20-20-20c-22.09 0-40-17.91-40-40s17.91-40 40-40z"/><path d="m196 362c22.09 0 40 17.91 40 40s-17.91 40-40 40h-64.91c-21.96-27.4-35.09-62.17-35.09-100 0-6.77.42-13.45 1.24-20h48.76c16.57 0 30 13.43 30 30 0 3.51-.6 6.87-1.71 10z"/></g></g><g><circle cx="396" cy="210" r="10"/><path d="m426 342c0-28.101-6.862-56.297-21.052-82h31.052c5.522 0 10-4.477 10-10v-240c0-5.523-4.478-10-10-10h-225c-5.523 0-10 4.477-10 10s4.477 10 10 10h35v256.972l-21.68-32.519c-1.854-2.782-4.977-4.453-8.32-4.453h-130v-220h35c5.523 0 10-4.477 10-10s-4.477-10-10-10h-45c-5.523 0-10 4.477-10 10v239.99c0 5.523 4.477 10 10 10h31.083c-13.767 25.002-21.083 52.998-21.083 82.01 0 92.845 75.003 170 170 170 94.465 0 170-76.779 170-170zm-20 0c0 41.768-17.46 81.643-48.027 110h-61.973c-5.514 0-10-4.486-10-10s4.486-10 10-10h40c16.542 0 30-13.458 30-30s-13.458-30-30-30-30-13.458-30-30 13.458-30 30-30h66.983c1.993 9.825 3.017 19.882 3.017 30zm-140-322h160v220h-130c-3.344 0-6.466 1.671-8.32 4.453l-21.68 32.519zm-160 322c0-3.335.118-6.676.337-10h39.663c11.028 0 20 8.972 20 20 0 2.294-.382 4.534-1.135 6.658-2.3 6.484 2.503 13.342 9.425 13.342h21.71c16.542 0 30 13.458 30 30s-13.458 30-30 30h-60.006c-19.635-26.096-29.994-57.107-29.994-90zm90 110c27.57 0 50-22.43 50-50s-22.43-50-50-50h-10c0-22.056-17.944-40-40-40h-36.976c3.764-18.471 11.028-36.194 21.361-52h80.263l37.032 55.547c.002.003.005.006.007.009 1.837 2.744 4.994 4.444 8.313 4.444 3.315 0 6.474-1.697 8.313-4.444.002-.003.005-.006.007-.009l37.032-55.547h80.261c6.575 10.045 11.883 20.755 15.853 32h-61.466c-27.57 0-50 22.43-50 50s22.43 50 50 50c5.514 0 10 4.486 10 10s-4.486 10-10 10h-40c-16.542 0-30 13.458-30 30s13.458 29.99 30 29.99l34.84.01c-22.606 13.02-48.372 20-74.84 20-38.299 0-74.432-14.366-101.998-40z"/><path d="m106 50c0 5.523 4.477 10 10 10h60c5.523 0 10-4.477 10-10s-4.477-10-10-10h-60c-5.523 0-10 4.477-10 10z"/><path d="m216 80h-100c-5.523 0-10 4.477-10 10s4.477 10 10 10h100c5.523 0 10-4.477 10-10s-4.477-10-10-10z"/><path d="m216 120h-100c-5.523 0-10 4.477-10 10s4.477 10 10 10h100c5.523 0 10-4.477 10-10s-4.477-10-10-10z"/><path d="m216 160h-100c-5.523 0-10 4.477-10 10s4.477 10 10 10h100c5.523 0 10-4.477 10-10s-4.477-10-10-10z"/><path d="m216 200h-100c-5.523 0-10 4.477-10 10s4.477 10 10 10h100c5.523 0 10-4.477 10-10s-4.477-10-10-10z"/><path d="m296 100h100c5.522 0 10-4.477 10-10s-4.478-10-10-10h-100c-5.522 0-10 4.477-10 10s4.478 10 10 10z"/><path d="m296 140h100c5.522 0 10-4.477 10-10s-4.478-10-10-10h-100c-5.522 0-10 4.477-10 10s4.478 10 10 10z"/><path d="m296 180h100c5.522 0 10-4.477 10-10s-4.478-10-10-10h-100c-5.522 0-10 4.477-10 10s4.478 10 10 10z"/><path d="m296 220h60c5.522 0 10-4.477 10-10s-4.478-10-10-10h-60c-5.522 0-10 4.477-10 10s4.478 10 10 10z"/><circle cx="166" cy="10" r="10"/></g></g></svg>