<svg id="Capa_1" enable-background="new 0 0 512 512" height="512" viewBox="0 0 512 512" width="512" xmlns="http://www.w3.org/2000/svg"><g><g><path d="m10 402v40h492v-40c-8.267 0-471.548 0-492 0z" fill="#eefaff"/><path d="m10 70v40h492v-40c-8.267 0-471.548 0-492 0z" fill="#eefaff"/><g fill="#ff9256"><path d="m502 442v40c0 11.05-8.95 20-20 20h-164c-11.05 0-20-8.95-20-20v-40z"/><path d="m502 30v40h-204v-40c0-11.05 8.95-20 20-20h164c11.05 0 20 8.95 20 20z"/><path d="m298 110h204v292h-204z"/></g><path d="m298 442v40c0 11.05-8.95 20-20 20h-124c-11.05 0-20-8.95-20-20v-40z" fill="#a4caff"/><path d="m298 30v40h-164v-40c0-11.05 8.95-20 20-20h124c11.05 0 20 8.95 20 20z" fill="#a4caff"/><path d="m134 110h164v292h-164z" fill="#a4caff"/><path d="m134 442v40c0 11.05-8.95 20-20 20h-84c-11.05 0-20-8.95-20-20v-40z" fill="#ffee80"/><path d="m10 110h124v292h-124z" fill="#ffee80"/><path d="m134 30v40h-124v-40c0-11.05 8.95-20 20-20h84c11.05 0 20 8.95 20 20z" fill="#ffee80"/></g><g><path d="m30 512h84c7.678 0 14.688-2.902 20-7.663 5.312 4.761 12.322 7.663 20 7.663h124c7.678 0 14.688-2.902 20-7.663 5.312 4.761 12.322 7.663 20 7.663h37c5.522 0 10-4.477 10-10s-4.478-10-10-10h-37c-5.514 0-10-4.486-10-10v-30h184v30c0 5.514-4.486 10-10 10h-37c-5.522 0-10 4.477-10 10s4.478 10 10 10h37c16.542 0 30-13.458 30-30v-452c0-16.542-13.458-30-30-30h-164c-7.678 0-14.688 2.902-20 7.663-5.312-4.761-12.322-7.663-20-7.663h-124c-7.678 0-14.688 2.902-20 7.663-5.312-4.761-12.322-7.663-20-7.663h-84c-16.542 0-30 13.458-30 30v452c0 16.542 13.458 30 30 30zm278-482c0-5.514 4.486-10 10-10h164c5.514 0 10 4.486 10 10v30h-184zm0 50h184v20h-184zm0 40h184v272h-184zm0 292h184v20h-184zm-164-382c0-5.514 4.486-10 10-10h124c5.514 0 10 4.486 10 10v30h-144zm0 50h144v20h-144zm0 40h144v272h-144zm0 292h144v20h-144zm0 40h144v30c0 5.514-4.486 10-10 10h-124c-5.514 0-10-4.486-10-10zm-124-422c0-5.514 4.486-10 10-10h84c5.514 0 10 4.486 10 10v30h-104zm0 50h104v20h-104zm0 40h104v272h-104zm0 292h104v20h-104zm0 40h104v30c0 5.514-4.486 10-10 10h-84c-5.514 0-10-4.486-10-10z"/><path d="m460 226c5.522 0 10-4.477 10-10s-4.478-10-10-10h-120c-5.522 0-10 4.477-10 10s4.478 10 10 10h10v60h-10c-5.522 0-10 4.477-10 10s4.478 10 10 10h120c5.522 0 10-4.477 10-10s-4.478-10-10-10h-10v-60zm-70 60h-20v-60h20zm40 0h-20v-60h20z"/><path d="m256 226c5.522 0 10-4.477 10-10s-4.478-10-10-10h-80c-5.522 0-10 4.477-10 10s4.478 10 10 10h10v60h-10c-5.522 0-10 4.477-10 10s4.478 10 10 10h80c5.522 0 10-4.477 10-10s-4.478-10-10-10h-10v-60zm-30 60h-20v-60h20z"/><path d="m92 226c5.522 0 10-4.477 10-10s-4.478-10-10-10h-40c-5.522 0-10 4.477-10 10s4.478 10 10 10h10v60h-10c-5.522 0-10 4.477-10 10s4.478 10 10 10h40c5.522 0 10-4.477 10-10s-4.478-10-10-10h-10v-60z"/><circle cx="400" cy="502" r="10"/></g></g></svg>