<svg id="Capa_1" enable-background="new 0 0 512 512" height="512" viewBox="0 0 512 512" width="512" xmlns="http://www.w3.org/2000/svg"><g><g><path d="m10 136h492v280h-492z" fill="#ff9256"/><path d="m295.87 96c-21.96 0-39.87 17.91-39.87 40 0-22.09-17.91-40-40-40-14.64 0-146.265 0-166 0v280h165.87c22.1 0 40 17.91 40 40 0-1.07.04-2.14.13-3.19 1.62-20.6 18.85-36.81 39.87-36.81h166.13c0-14.71 0-266.039 0-280-19.968 0-148.495 0-166.13 0z" fill="#eefaff"/><path d="m422 276c-13.99 0-26.01 0-40 0-22.09 0-40 17.91-40 40v40h120v-40c0-22.09-17.91-40-40-40z" fill="#8690a6"/><path d="m462 356v40c0 33.137-26.849 60-60 60-33.132 0-60-26.841-60-60 0-13.99 0-26.01 0-40z" fill="#a4caff"/><path d="m422 336v20h-40v-20c0-11.05 8.95-20 20-20s20 8.95 20 20z" fill="#eefaff"/><path d="m90 136h126v80h-126z" fill="#a4caff"/></g><g><path d="m502 126h-30v-30c0-5.523-4.477-10-10-10h-51.006c-4.646-22.794-24.848-40-48.994-40h-212c-24.146 0-44.348 17.206-48.994 40h-51.006c-5.523 0-10 4.477-10 10v30h-30c-5.523 0-10 4.477-10 10v280c0 5.523 4.477 10 10 10h78c5.523 0 10-4.477 10-10s-4.477-10-10-10h-68v-260h20v230c0 5.523 4.477 10 10 10h165.87c13.036 0 24.152 8.361 28.28 20h-66.15c-5.523 0-10 4.477-10 10s4.477 10 10 10h160.747c11.482 24.188 36.06 40 63.253 40 27.192 0 51.769-15.811 63.253-40h36.747c5.523 0 10-4.477 10-10v-280c0-5.523-4.477-10-10-10zm-100 200c5.514 0 10 4.486 10 10v10h-20v-10c0-5.514 4.486-10 10-10zm-30 10v10h-20v-30c0-16.542 13.458-30 30-30h10v21.72c-11.639 4.128-20 15.244-20 28.28zm-126 40.122c-8.384-6.35-18.825-10.122-30.13-10.122h-155.87v-260h156c16.542 0 30 13.458 30 30zm9.987-270.104c-9.131-12.146-23.656-20.018-39.987-20.018h-94.28c4.128-11.639 15.243-20 28.28-20h212c13.036 0 24.152 8.361 28.28 20h-94.41c-16.289 0-30.776 7.872-39.883 20.018zm11.609 299.982c4.156-11.666 15.382-20 28.274-20h36.13v10c0 3.366.252 6.703.723 10zm64.404-90v50h-36.13c-11.113 0-21.486 3.718-29.87 9.993v-239.993c0-16.542 13.4-30 29.87-30h96.13v60h-96c-5.523 0-10 4.477-10 10s4.477 10 10 10h96v20h-96c-5.523 0-10 4.477-10 10s4.477 10 10 10h96v40h-10c-27.57 0-50 22.43-50 50zm120 80c0 27.937-22.728 50-50 50-27.276 0-50-22.065-50-50v-30h100zm0-50h-20v-10c0-13.036-8.361-24.152-20-28.28v-21.72h10c16.542 0 30 13.458 30 30zm.079-69.973c-8.363-6.292-18.805-10.027-30.079-10.027h-10v-40h10c5.523 0 10-4.477 10-10s-4.477-10-10-10h-10v-20h10c5.523 0 10-4.477 10-10s-4.477-10-10-10h-10v-60.01h40.089zm39.921 129.973h-20.723c.472-3.297.723-6.634.723-10 0-11.506 0-237.804 0-250h20z"/><path d="m90 266h60c5.523 0 10-4.477 10-10s-4.477-10-10-10h-60c-5.523 0-10 4.477-10 10s4.477 10 10 10z"/><path d="m296 146h66c5.523 0 10-4.477 10-10s-4.477-10-10-10h-66c-5.523 0-10 4.477-10 10s4.477 10 10 10z"/><path d="m216 286h-126c-5.523 0-10 4.477-10 10s4.477 10 10 10h126c5.523 0 10-4.477 10-10s-4.477-10-10-10z"/><path d="m216 326h-126c-5.523 0-10 4.477-10 10s4.477 10 10 10h126c5.523 0 10-4.477 10-10s-4.477-10-10-10z"/><path d="m216 126h-126c-5.523 0-10 4.477-10 10v80c0 5.523 4.477 10 10 10h126c5.523 0 10-4.477 10-10v-80c0-5.523-4.477-10-10-10zm-10 80h-106v-60h106z"/><circle cx="133" cy="416" r="10"/></g></g></svg>