<svg id="Capa_1" enable-background="new 0 0 512 512" height="512" viewBox="0 0 512 512" width="512" xmlns="http://www.w3.org/2000/svg"><g><g><path d="m296 422h-120c0-8.395 0-398.356 0-412h120z" fill="#d8ec84"/><path d="m502 422v40c-75.107 0-476.145 0-492 0v-40z" fill="#8690a6"/><path d="m356 310h120v112h-120z" fill="#ff9256"/><path d="m476 170v140h-120v-140z" fill="#eefaff"/><path d="m356 130h120v40h-120z" fill="#ff9256"/><ellipse cx="416" cy="240" fill="#ff9256" rx="20" ry="30"/><path d="m356 422h-60v-332h60z" fill="#ffee80"/><circle cx="236" cy="70" fill="#eefaff" r="20"/><circle cx="236" cy="362" fill="#eefaff" r="20"/><path d="m175.36 117.39-15.53 57.96-57.95-15.53 15.53-57.96c2.85-10.67 13.82-17 24.49-14.14l19.32 5.18c10.778 2.895 16.982 13.957 14.14 24.49z" fill="#a4caff"/><path d="m93.093 166.563h59.995v59.995h-59.995z" fill="#eefaff" transform="matrix(.259 -.966 .966 .259 -98.633 264.574)"/><path d="m144.3 233.3-46.58 173.87c-2.834 10.556-13.677 17.018-24.5 14.14l-19.32-5.17c-10.67-2.86-17-13.83-14.14-24.5l46.59-173.87z" fill="#a4caff"/></g><g><path d="m236 100c16.542 0 30-13.458 30-30s-13.458-30-30-30-30 13.458-30 30 13.458 30 30 30zm0-40c5.514 0 10 4.486 10 10s-4.486 10-10 10-10-4.486-10-10 4.486-10 10-10z"/><path d="m236 392c16.542 0 30-13.458 30-30s-13.458-30-30-30-30 13.458-30 30 13.458 30 30 30zm0-40c5.514 0 10 4.486 10 10s-4.486 10-10 10-10-4.486-10-10 4.486-10 10-10z"/><path d="m226 130v172c0 5.523 4.477 10 10 10s10-4.477 10-10v-172c0-5.523-4.477-10-10-10s-10 4.477-10 10z"/><path d="m416 280c16.822 0 30-17.57 30-40s-13.178-40-30-40-30 17.57-30 40 13.178 40 30 40zm0-60c4.077 0 10 7.791 10 20s-5.923 20-10 20-10-7.791-10-20 5.923-20 10-20z"/><circle cx="256" cy="462" r="10"/><path d="m502 412h-16v-282c0-5.523-4.477-10-10-10h-110v-30c0-5.523-4.477-10-10-10h-50v-70c0-5.523-4.477-10-10-10h-120c-5.523 0-10 4.477-10 10v73.923c-.717-.252-1.447-.482-2.19-.682l-19.32-5.18c-16.003-4.292-32.459 5.186-36.738 21.21-1.22 4.553-77.211 288.141-77.65 289.78-2.162 8.066-.804 16.259 3.123 22.949h-23.225c-5.523 0-10 4.477-10 10v40c0 5.523 4.477 10 10 10h66c5.514 0 10 4.486 10 10s-4.486 10-10 10c-5.523 0-10 4.477-10 10s4.477 10 10 10c16.542 0 30-13.458 30-30 0-3.506-.61-6.87-1.72-10h106.72c5.523 0 10-4.477 10-10s-4.477-10-10-10h-191v-20h472v20h-191c-5.523 0-10 4.477-10 10s4.477 10 10 9.99h106.72c-1.11 3.14-1.72 6.504-1.72 10.01 0 16.542 13.458 30 30 30 5.523 0 10-4.477 10-10s-4.477-10-10-10c-5.514 0-10-4.486-10-10s4.486-10 10-10h66c5.523 0 10-4.477 10-10v-40c0-5.523-4.477-10-10-10zm-393.05-239.933 38.634 10.354-10.351 38.632-38.635-10.354zm-33.145 239.583-19.316-5.169c-5.327-1.428-8.499-6.924-7.07-12.252l44.002-164.211 38.636 10.354-43.995 164.205c-1.395 5.199-6.808 8.523-12.257 7.073zm90.195.35h-59.325c.26-.734.499-1.48.704-2.242l58.621-218.793zm-.299-297.198-12.941 48.3-38.633-10.354 12.945-48.309c1.421-5.32 6.889-8.494 12.239-7.061l19.316 5.179c5.443 1.463 8.478 7.041 7.074 12.245zm120.299 297.198h-100c0-40.575 0-391.674 0-392h100zm60 0h-40v-312h40zm120 0h-100v-92h100zm0-112h-100v-120h100zm0-140h-100v-20h100z"/></g></g></svg>