<svg id="Capa_1" enable-background="new 0 0 512 512" height="512" viewBox="0 0 512 512" width="512" xmlns="http://www.w3.org/2000/svg"><g><g><path d="m96 30h320v180h-320z" fill="#ff9256"/><path d="m136 336v40h20l20 126h160l20-126h20v-40c-48.074 0-191.545 0-240 0z" fill="#eefaff"/><path d="m296 10c-22.09 0-40 17.91-40 40 0-22.09-17.91-40-40-40h-80v160h79.87c22.1 0 40 17.91 40 40 0-1.07.04-2.14.13-3.19 1.62-20.6 18.85-36.81 39.87-36.81h80.13c0-38.484 0-128.632 0-160z" fill="#eefaff"/><g fill="#d8ec84"><path d="m336 256c-44.18 0-80 35.82-80 80h40c44.18 0 80-35.82 80-80z"/><path d="m176 256h-40c0 44.18 35.82 80 80 80h40c0-44.18-35.82-80-80-80z"/></g></g><g><path d="m376 0h-80c-16.339 0-30.87 7.878-40 20.035-9.13-12.157-23.661-20.035-40-20.035h-80c-5.522 0-10 4.477-10 10v10h-30c-5.522 0-10 4.477-10 10v180c0 5.523 4.478 10 10 10h150v59.501c-16.513-20.419-41.755-33.501-70-33.501h-40c-5.522 0-10 4.477-10 10 0 28.245 13.082 53.487 33.501 70h-23.501c-5.522 0-10 4.477-10 10v40c0 5.523 4.478 10 10 10h11.462l18.662 117.568c.771 4.856 4.958 8.432 9.876 8.432h35c5.522 0 10-4.477 10-10s-4.478-10-10-10h-26.462l-16.826-106h176.576l-16.826 106h-26.462c-5.522 0-10 4.477-10 10s4.478 10 10 10h35c4.918 0 9.105-3.576 9.876-8.432l18.662-117.568h11.462c5.522 0 10-4.477 10-10v-40c0-5.523-4.478-10-10-10h-23.501c20.419-16.513 33.501-41.755 33.501-70 0-5.523-4.478-10-10-10h-40c-28.245 0-53.487 13.082-70 33.501v-59.501h150c5.522 0 10-4.477 10-10v-180c0-5.523-4.478-10-10-10h-30v-10c0-5.523-4.478-10-10-10zm-270 200v-160h20v130c0 5.523 4.478 10 10 10h79.87c13.036 0 24.152 8.361 28.28 20zm109.87-40h-69.87v-140h70c16.542 0 30 13.458 30 30v120.122c-8.385-6.351-18.825-10.122-30.13-10.122zm-69.158 106h29.288c35.203 0 64.421 26.122 69.288 60h-29.288c-35.203 0-64.421-26.122-69.288-60zm189.288-.01 29.288.01c-4.867 33.878-34.085 60-69.288 60h-29.288c4.867-33.878 34.085-60.01 69.288-60.01zm30 80.01v20h-220v-20zm-100-296c0-16.542 13.458-30 30-30h70v140h-70.13c-11.116 0-21.485 3.727-29.87 10.006zm140-10v160h-138.402c4.157-11.666 15.38-20 28.272-20h80.13c5.522 0 10-4.477 10-10v-130z"/><path d="m285.87 60h60.13c5.522 0 10-4.477 10-10s-4.478-10-10-10h-60.13c-5.522 0-10 4.477-10 10s4.478 10 10 10z"/><path d="m285.87 100h60.13c5.522 0 10-4.477 10-10s-4.478-10-10-10h-60.13c-5.522 0-10 4.477-10 10s4.478 10 10 10z"/><path d="m356 130c0-5.523-4.478-10-10-10h-60.13c-5.522 0-10 4.477-10 10s4.478 10 10 10h60.13c5.522 0 10-4.477 10-10z"/><path d="m225.87 40h-59.87c-5.522 0-10 4.477-10 10s4.478 10 10 10h59.87c5.522 0 10-4.477 10-10s-4.477-10-10-10z"/><path d="m225.87 80h-59.87c-5.522 0-10 4.477-10 10s4.478 10 10 10h59.87c5.522 0 10-4.477 10-10s-4.477-10-10-10z"/><path d="m225.87 120h-59.87c-5.522 0-10 4.477-10 10s4.478 10 10 10h59.87c5.522 0 10-4.477 10-10s-4.477-10-10-10z"/><circle cx="256" cy="502" r="10"/></g></g></svg>