<svg id="Capa_1" enable-background="new 0 0 512 512" height="512" viewBox="0 0 512 512" width="512" xmlns="http://www.w3.org/2000/svg"><g><g><path d="m96 30v180h320c0-7.862 0-170.498 0-180z" fill="#ff9256"/><path d="m502 302v200h-492v-200z" fill="#8690a6"/><path d="m53 342v120h409c0-15.003 0-106.901 0-120z" fill="#eefaff"/><path d="m336 422v40h-160v-40z" fill="#a4caff"/><path d="m296 10c-22.09 0-40 17.91-40 40 0-22.09-17.91-40-40-40h-80v160h79.87c22.1 0 40 17.91 40 40 0-1.07.04-2.14.13-3.19 1.62-20.6 18.85-36.81 39.87-36.81h80.13c0-38.484 0-128.632 0-160z" fill="#eefaff"/></g><g><path d="m285.87 60h60.13c5.522 0 10-4.477 10-10s-4.478-10-10-10h-60.13c-5.522 0-10 4.477-10 10s4.478 10 10 10z"/><path d="m226 40h-60.13c-5.522 0-10 4.477-10 10s4.478 10 10 10h60.13c5.522 0 10-4.477 10-10s-4.478-10-10-10z"/><path d="m472 462v-120c0-5.523-4.478-10-10-10h-409c-5.522 0-10 4.477-10 10v120c0 5.523 4.478 10 10 10h409c5.522 0 10-4.477 10-10zm-126-110h20v20h-20zm-40 0h20v20h-20zm-40 0h20v20h-20zm40 40v20h-20v-20zm-80-40h20v20h-20zm40 40v20h-20v-20zm-80-40h20v20h-20zm40 40v20h-20v-20zm-80-40h20v20h-20zm-40 0h20v20h-20zm-43 0h23v20h-23zm0 40h43v20h-43zm23 60h-23v-20h23zm40 0h-20v-20h20zm0-60h20v20h-20zm40 60h-20v-20h20zm0-60h20v20h-20zm160 60h-140v-20h140zm0-60h20v20h-20zm40 60h-20v-20h20zm0-60h20v20h-20zm86 60h-66v-20h66zm0-40h-46v-20h46zm0-40h-66v-20h66z"/><path d="m285.87 100h60.13c5.522 0 10-4.477 10-10s-4.478-10-10-10h-60.13c-5.522 0-10 4.477-10 10s4.478 10 10 10z"/><path d="m356 130c0-5.523-4.478-10-10-10h-60.13c-5.522 0-10 4.477-10 10s4.478 10 10 10h60.13c5.522 0 10-4.477 10-10z"/><path d="m226 80h-60.13c-5.522 0-10 4.477-10 10s4.478 10 10 10h60.13c5.522 0 10-4.477 10-10s-4.478-10-10-10z"/><path d="m226 120h-60.13c-5.522 0-10 4.477-10 10s4.478 10 10 10h60.13c5.522 0 10-4.477 10-10s-4.478-10-10-10z"/><circle cx="256" cy="502" r="10"/><path d="m10 512h201c5.522 0 10-4.477 10-10s-4.478-10-10-10h-191v-180h472v180h-191c-5.522 0-10 4.477-10 10s4.478 10 10 10h201c5.522 0 10-4.477 10-10v-200c0-5.523-4.478-10-10-10h-234.28c4.128-11.639 15.243-20 28.28-20h166c27.57 0 50-22.43 50-50s-22.43-50-50-50h-36v-142c0-5.523-4.478-10-10-10h-30v-10c0-5.523-4.478-10-10-10h-80c-16.339 0-30.87 7.878-40 20.035-9.13-12.157-23.661-20.035-40-20.035h-80c-5.522 0-10 4.477-10 10v10h-30c-5.522 0-10 4.477-10 10v180c0 5.523 4.478 10 10 10h320c5.522 0 10-4.477 10-10v-18h36c16.542 0 30 13.458 30 30s-13.458 30-30 30h-166c-24.146 0-44.348 17.205-48.994 40h-237.006c-5.522 0-10 4.477-10 10v200c0 5.523 4.478 10 10 10zm96-312v-160h20v130c0 5.523 4.478 10 10 10h79.87c13.036 0 24.152 8.361 28.28 20zm140-29.878c-8.385-6.35-18.825-10.122-30.13-10.122h-69.87v-140h70c16.542 0 30 13.458 30 30zm20-120.122c0-16.542 13.458-30 30-30h70v140h-70.13c-11.116 0-21.485 3.727-29.87 10.006zm140 150h-138.402c4.157-11.666 15.38-20 28.272-20h80.13c5.522 0 10-4.477 10-10v-130h20z"/></g></g></svg>