<svg id="Capa_1" enable-background="new 0 0 512 512" height="512" viewBox="0 0 512 512" width="512" xmlns="http://www.w3.org/2000/svg"><g><g><path d="m56 50v412c0 22.09 17.91 40 40 40v-412.06z" fill="#ff9256"/><path d="m98.14 90c-.72 0-1.43-.02-2.14-.06v412.06h320v-412z" fill="#8690a6"/><path d="m376 50c0 22.09 17.91 40 40 40h-317.86c-22.072 0-42.14-16.461-42.14-40 0-22.09 17.91-40 40-40h320c-22.09 0-40 17.91-40 40z" fill="#eefaff"/><path d="m136 216v160h320v-160c-10.818 0-290.904 0-320 0z" fill="#ff9256"/></g><g><path d="m46 50v412c0 27.57 22.43 50 50 50h115c5.523 0 10-4.478 10-10s-4.477-10-10-10h-105v-392h300v106h-270c-5.523 0-10 4.477-10 10v160c0 5.523 4.477 10 10 10h270v106h-105c-5.523 0-10 4.478-10 10s4.477 10 10 10h115c5.523 0 10-4.478 10-10v-116h30c5.523 0 10-4.477 10-10v-160c0-5.523-4.477-10-10-10h-30v-116c0-5.523-4.477-10-10-10-16.542 0-30-13.458-30-30s13.458-30 30-30c5.523 0 10-4.477 10-10s-4.477-10-10-10h-320c-27.57 0-50 22.43-50 50zm400 176v140h-300v-140zm-360 264.28c-11.639-4.128-20-15.243-20-28.28v-372.569c5.824 4.33 12.625 7.51 20 9.192zm10-430.28h271.01c1.505 7.384 4.639 14.184 9.014 20h-277.884c-16.487 0-32.14-11.89-32.14-30 0-16.542 13.458-30 30-30.01h280.023c-4.375 5.826-7.509 12.626-9.014 20.01h-271.009c-5.523 0-10 4.477-10 10s4.477 10 10 10z"/><path d="m176 346c5.523 0 10-4.477 10-10v-30h30c16.542 0 30-13.458 30-30s-13.458-30-30-30h-40c-5.523 0-10 4.477-10 10v80c0 5.523 4.477 10 10 10zm10-80h30c5.514 0 10 4.486 10 10s-4.486 10-10 10h-30z"/><path d="m276 346h20c27.57 0 50-22.43 50-50s-22.43-50-50-50h-20c-5.523 0-10 4.477-10 10v80c0 5.523 4.477 10 10 10zm10-80h10c16.542 0 30 13.458 30 30s-13.458 30-30 30h-10z"/><path d="m376 346c5.523 0 10-4.477 10-10v-30h30c5.523 0 10-4.477 10-10s-4.477-10-10-10h-30v-20h30c5.523 0 10-4.477 10-10s-4.477-10-10-10h-40c-5.523 0-10 4.477-10 10v80c0 5.523 4.477 10 10 10z"/><circle cx="256" cy="502" r="10"/></g></g></svg>