<svg id="Capa_1" enable-background="new 0 0 512 512" height="512" viewBox="0 0 512 512" width="512" xmlns="http://www.w3.org/2000/svg"><g><g><path d="m56 302h400v200h-400z" fill="#ff9256"/><path d="m356 136h40c0 33.14-26.86 60-60 60h-40c0-33.14 26.86-60 60-60z" fill="#d8ec84"/><path d="m296 262c-22.09 0-40 17.91-40 40 0-22.09-17.91-40-40-40h-120v200h119.87c22.1 0 40 17.91 40 40 0-1.07.04-2.14.13-3.19 1.62-20.6 18.85-36.81 39.87-36.81h120.13c0-5.267 0-198.013 0-200z" fill="#eefaff"/><path d="m284.92 38.67c-11.84-17.2-28.92-28.67-28.92-28.67s-17.08 11.47-28.92 28.67c-9.06-5.5-19.7-8.67-31.08-8.67v40c0 33.14 26.86 60 60 60s60-26.86 60-60v-40c-11.38 0-22.02 3.17-31.08 8.67z" fill="#ff9256"/><path d="m216 196h-40c-33.14 0-60-26.86-60-60h40c33.14 0 60 26.86 60 60z" fill="#d8ec84"/></g><g><path d="m216 252h-120c-5.523 0-10 4.477-10 10v30h-30c-5.523 0-10 4.477-10 10v200c0 5.522 4.477 10 10 10h55c5.523 0 10-4.478 10-10s-4.477-10-10-10h-45v-180h20v150c0 5.523 4.477 10 10 10h119.87c13.036 0 24.152 8.361 28.28 20h-43.15c-5.523 0-10 4.478-10 10s4.477 10 10 10h255c5.523 0 10-4.478 10-10v-200c0-5.523-4.477-10-10-10h-30v-30c0-5.523-4.477-10-10-10h-120c-11.247 0-21.638 3.734-30 10.025v-21.882l34.143-34.143h35.857c38.598 0 70-31.402 70-70 0-5.523-4.477-10-10-10h-40c-37.158 0-67.632 29.106-69.856 65.714l-20.144 20.144v-72.583c33.877-4.868 60-34.072 60-69.274v-40.001c0-5.523-4.477-10-10-10-9.758 0-19.353 2.033-28.19 5.922-11.939-14.532-25.575-23.78-26.235-24.223-3.372-2.265-7.778-2.265-11.15 0-.66.443-14.296 9.692-26.235 24.223-8.838-3.889-18.432-5.922-28.19-5.922-5.523 0-10 4.477-10 10v40c0 35.202 26.123 64.406 60 69.274v72.583l-20.144-20.144c-2.224-36.607-32.698-65.713-69.856-65.713h-40c-5.523 0-10 4.477-10 10 0 38.598 31.402 70 70 70h35.857l34.143 34.143v21.882c-8.362-6.291-18.753-10.025-30-10.025zm30 210.122c-8.384-6.35-18.825-10.122-30.13-10.122h-109.87v-180h110c16.542 0 30 13.458 30 30zm110-316.132 28.996.01c-4.646 22.794-24.85 40-48.996 40h-28.996c4.647-22.794 24.851-40.01 48.996-40.01zm70 316.01v-150h20v180h-178.404c4.156-11.666 15.382-20 28.275-20h120.129c5.523 0 10-4.477 10-10zm-130-190h110v180h-110.13c-11.113 0-21.486 3.718-29.87 9.993v-159.993c0-16.542 13.458-30 30-30zm10-230.995v28.995c0 24.146-17.206 44.349-40 48.996v-28.996c0-24.635 17.471-44.416 40-48.995zm-50-18.475c3.95 3.203 9.449 8.081 14.677 14.101-5.86 4.949-10.796 10.751-14.677 17.176-3.88-6.425-8.817-12.227-14.676-17.176 5.228-6.021 10.728-10.899 14.676-14.101zm-50 47.47v-28.995c22.512 4.575 40 24.341 40 48.995v28.994c-22.795-4.645-40-24.847-40-48.994zm-30 116c-24.146 0-44.349-17.206-48.996-40h28.996c24.146 0 44.349 17.206 48.996 40z"/><path d="m136.13 312h39.87c5.523 0 10-4.477 10-10s-4.477-10-10-10h-39.87c-5.523 0-10 4.477-10 10s4.477 10 10 10z"/><path d="m216 332h-79.87c-5.523 0-10 4.477-10 10s4.477 10 10 10h79.87c5.523 0 10-4.477 10-10s-4.477-10-10-10z"/><path d="m216 372h-79.87c-5.523 0-10 4.477-10 10s4.477 10 10 10h79.87c5.523 0 10-4.477 10-10s-4.477-10-10-10z"/><path d="m216 412h-79.87c-5.523 0-10 4.477-10 10s4.477 10 10 10h79.87c5.523 0 10-4.477 10-10s-4.477-10-10-10z"/><path d="m296 312h40c5.523 0 10-4.477 10-10s-4.477-10-10-10h-40c-5.523 0-10 4.477-10 10s4.477 10 10 10z"/><path d="m296 352h80c5.523 0 10-4.477 10-10s-4.477-10-10-10h-80c-5.523 0-10 4.477-10 10s4.477 10 10 10z"/><path d="m296 392h80c5.523 0 10-4.477 10-10s-4.477-10-10-10h-80c-5.523 0-10 4.477-10 10s4.477 10 10 10z"/><path d="m296 432h80c5.523 0 10-4.477 10-10s-4.477-10-10-10h-80c-5.523 0-10 4.477-10 10s4.477 10 10 10z"/><circle cx="156" cy="502" r="10"/></g></g></svg>