<svg id="Capa_1" enable-background="new 0 0 512 512" height="512" viewBox="0 0 512 512" width="512" xmlns="http://www.w3.org/2000/svg"><g><g><path d="m216 50-7.15-2.86c-61.34-24.53-132.79-37.14-198.85-37.14v366c6.62 0 13.29.13 20 .38 108.402 4.083 181.778 38.366 186 39.62h286v-366z" fill="#eefaff"/><g fill="#a4caff"><path d="m502 416v66c0 11.05-8.95 20-20 20h-246c-11.05 0-20-8.95-20-20v-66z"/><path d="m502 30v20h-286v-20c0-11.05 8.95-20 20-20h246c11.05 0 20 8.95 20 20z"/><circle cx="359" cy="153" r="60"/><path d="m216 416h-186v-39.62c60.27 2.27 123.65 14.69 178.85 36.76z"/></g></g><g><circle cx="419" cy="373" r="10"/><path d="m179.082 128.757c-36.784-11.915-83.552-20.73-128.312-24.187-5.515-.428-10.315 3.694-10.74 9.2s3.694 10.315 9.2 10.74c43.256 3.34 88.339 11.823 123.688 23.273 5.235 1.698 10.887-1.161 12.595-6.432 1.702-5.254-1.178-10.893-6.431-12.594z"/><path d="m49.229 84.51c25.162 1.947 48.796 4.871 64.845 8.022 5.421 1.066 10.676-2.47 11.739-7.886 1.064-5.419-2.466-10.675-7.886-11.739-22.968-4.51-51.934-7.16-67.155-8.338-5.507-.432-10.315 3.692-10.742 9.199s3.692 10.316 9.199 10.742z"/><path d="m179.082 168.757c-36.784-11.915-83.552-20.73-128.312-24.187-5.515-.436-10.315 3.694-10.74 9.2s3.694 10.315 9.2 10.74c43.256 3.34 88.339 11.823 123.688 23.273 5.235 1.698 10.887-1.161 12.595-6.432 1.702-5.254-1.178-10.893-6.431-12.594z"/><path d="m179.082 208.757c-36.784-11.915-83.552-20.73-128.312-24.187-5.515-.433-10.315 3.694-10.74 9.2s3.694 10.315 9.2 10.74c43.256 3.34 88.339 11.823 123.688 23.273 5.235 1.698 10.887-1.161 12.595-6.432 1.702-5.254-1.178-10.893-6.431-12.594z"/><path d="m179.082 248.757c-36.784-11.915-83.552-20.73-128.312-24.187-5.515-.429-10.315 3.694-10.74 9.2s3.694 10.315 9.2 10.74c43.256 3.34 88.339 11.823 123.688 23.273 5.235 1.698 10.887-1.161 12.595-6.432 1.702-5.254-1.178-10.893-6.431-12.594z"/><path d="m179.082 288.757c-36.784-11.915-83.552-20.73-128.312-24.187-5.515-.437-10.315 3.694-10.74 9.2s3.694 10.315 9.2 10.74c43.256 3.34 88.339 11.823 123.688 23.273 5.235 1.698 10.887-1.161 12.595-6.432 1.702-5.254-1.178-10.893-6.431-12.594z"/><path d="m179.082 328.757c-36.784-11.915-83.552-20.73-128.312-24.187-5.515-.433-10.315 3.694-10.74 9.2s3.694 10.315 9.2 10.74c43.256 3.34 88.339 11.823 123.688 23.273 5.235 1.698 10.887-1.161 12.595-6.432 1.702-5.254-1.178-10.893-6.431-12.594z"/><path d="m299 263h120c5.522 0 10-4.477 10-10s-4.478-10-10-10h-120c-5.522 0-10 4.477-10 10s4.478 10 10 10z"/><path d="m256 303h206c5.522 0 10-4.477 10-10s-4.478-10-10-10h-206c-5.522 0-10 4.477-10 10s4.478 10 10 10z"/><path d="m256 343h206c5.522 0 10-4.477 10-10s-4.478-10-10-10h-206c-5.522 0-10 4.477-10 10s4.478 10 10 10z"/><path d="m256 383h123c5.522 0 10-4.477 10-10s-4.478-10-10-10h-123c-5.522 0-10 4.477-10 10s4.478 10 10 10z"/><path d="m389 459c0-5.523-4.478-10-10-10h-40c-5.522 0-10 4.477-10 10s4.478 10 10 10h40c5.522 0 10-4.477 10-10z"/><path d="m359 223c38.598 0 70-31.402 70-70s-31.402-70-70-70-70 31.402-70 70 31.402 70 70 70zm0-120c27.57 0 50 22.43 50 50s-22.43 50-50 50-50-22.43-50-50 22.43-50 50-50z"/><circle cx="359" cy="502" r="10"/><path d="m482 0h-246c-16.542 0-30 13.458-30 30v5.294c-59.602-22.786-128.895-35.294-196-35.294-5.523 0-10 4.477-10 10v366c0 5.523 4.477 10 10 10 3.283 0 6.625.034 10 .1v29.9c0 5.523 4.477 10 10 10h176v56c0 16.542 13.458 30 30 30h78c5.522 0 10-4.478 10-10s-4.478-10-10-10h-78c-5.514 0-10-4.486-10-10v-56h266v56c0 5.514-4.486 10-10 10h-78c-5.522 0-10 4.478-10 10s4.478 10 10 10h78c16.542 0 30-13.458 30-30v-452c0-16.542-13.458-30-30-30zm-442 406v-19.131c39.38 2.248 79.141 8.839 116.187 19.131zm166-4.702c-54.862-20.946-120.752-33.977-186-35.202v-346c63.947 1.214 129.314 14.006 185.136 36.33l.864.344zm286 4.702h-266v-346h266zm0-366h-266v-10c0-5.514 4.486-10 10-10h246c5.514 0 10 4.486 10 10z"/></g></g></svg>