<svg id="Capa_1" enable-background="new 0 0 512 512" height="512" viewBox="0 0 512 512" width="512" xmlns="http://www.w3.org/2000/svg"><g><g><path d="m10 156h492v280h-492z" fill="#ff9256"/><path d="m296 116c-22.09 0-40 17.91-40 40 0-22.09-17.91-40-40-40-6.344 0-154.357 0-166 0v280h165.87c22.1 0 40 17.91 40 40 0-1.07.04-2.14.13-3.19 1.62-20.6 18.85-36.81 39.87-36.81h166.13c0-14.71 0-266.039 0-280z" fill="#eefaff"/><path d="m419 196v27.89c0 45.05-22.52 87.12-60 112.11-37.48-24.99-60-67.06-60-112.11v-27.89h11.72c18.11 0 35.47-7.19 48.28-20 12.81 12.81 30.17 20 48.28 20z" fill="#a4caff"/><path d="m133 354.29v101.71h40c0-9.824 0-90.447 0-101.71z" fill="#8690a6"/><circle cx="359" cy="256" fill="#eefaff" r="20"/><path d="m153 56 40 60-20 238.29c-6.26 1.11-12.99 1.71-20 1.71s-13.74-.6-20-1.71l-20-238.29z" fill="#ffee80"/></g><g><path d="m289 196v27.89c0 48.5 24.095 93.521 64.452 120.43 1.68 1.12 3.614 1.68 5.548 1.68s3.868-.56 5.548-1.68c40.357-26.909 64.452-71.929 64.452-120.43v-27.89c0-5.523-4.478-10-10-10h-11.72c-15.566 0-30.201-6.063-41.209-17.071-1.875-1.875-4.419-2.929-7.071-2.929s-5.196 1.054-7.071 2.929c-11.008 11.009-25.643 17.071-41.209 17.071h-11.72c-5.522 0-10 4.477-10 10zm20 10h1.72c17.729 0 34.558-5.855 48.28-16.649 13.723 10.794 30.552 16.649 48.28 16.649h1.72v17.89c0 39.525-18.57 76.371-50 99.871-31.43-23.5-50-60.346-50-99.871z"/><path d="m389 256c0-16.542-13.458-30-30-30s-30 13.458-30 30 13.458 30 30 30 30-13.458 30-30zm-40 0c0-5.514 4.486-10 10-10s10 4.486 10 10-4.486 10-10 10-10-4.486-10-10z"/><circle cx="379" cy="436" r="10"/><path d="m502 146h-30v-30c0-5.523-4.478-10-10-10h-166c-16.339 0-30.87 7.879-40 20.035-9.13-12.156-23.661-20.035-40-20.035h-17.648l-37.032-55.547c-1.854-2.782-4.976-4.453-8.32-4.453s-6.466 1.671-8.32 4.453l-37.032 55.547h-57.648c-5.522 0-10 4.477-10 10v30h-30c-5.522 0-10 4.477-10 10v280c0 5.523 4.478 10 10 10h113v10c0 5.523 4.478 10 10 10h40c5.522 0 10-4.477 10-10v-10h151c5.522 0 10-4.477 10-10s-4.478-10-10-10h-66.402c4.157-11.666 15.38-20 28.272-20h166.13c5.522 0 10-4.477 10-10v-230h20v260h-68c-5.522 0-10 4.477-10 10s4.478 10 10 10h78c5.522 0 10-4.477 10-10v-280c0-5.523-4.478-10-10-10zm-379 280h-103v-260h20v230c0 5.523 4.478 10 10 10h73zm0-40h-63v-260h43.804l18.058 215.131c-12.004-4.205-18.862-10.334-18.862-15.131 0-5.523-4.478-10-10-10s-10 4.477-10 10c0 16.246 15.439 30.023 40 36.352zm40 60h-20v-80.389c3.293.254 6.631.389 10 .389s6.707-.135 10-.389zm.705-100.542c-3.501.347-7.074.542-10.705.542s-7.203-.195-10.705-.542l-19.039-226.816 29.744-44.614 29.743 44.615zm19.295 80.542v-20h32.87c13.036 0 24.152 8.361 28.28 20zm63-29.872c-8.385-6.352-18.823-10.128-30.13-10.128h-32.87v-23.649c24.564-6.332 40-20.107 40-36.351 0-5.523-4.478-10-10-10s-10 4.477-10 10c0 4.797-6.856 10.925-18.862 15.131l18.058-215.131h13.804c16.542 0 30 13.458 30 30zm206-10.128h-156.13c-11.114 0-21.486 3.718-29.87 9.994v-239.994c0-16.542 13.458-30 30-30h156z"/></g></g></svg>