<svg id="Capa_1" enable-background="new 0 0 512 512" height="512" viewBox="0 0 512 512" width="512" xmlns="http://www.w3.org/2000/svg"><g><g><path d="m96 30h320v180h-320z" fill="#ff9256"/><g fill="#eefaff"><path d="m296 10c-22.09 0-40 17.91-40 40 0-22.09-17.91-40-40-40h-80v160h79.87c22.1 0 40 17.91 40 40 0-1.07.04-2.14.13-3.19 1.62-20.6 18.85-36.81 39.87-36.81h80.13c0-38.484 0-128.632 0-160z"/><path d="m356 210c-8.515 0-191.456 0-200 0-34.245 0-60.829 28.462-59.99 61.16.62 32.6 27.24 58.84 59.99 58.84 7.01 0 13.74-1.2 20-3.41v175.41h160v-169.41l.25-.6c6.19 2.58 12.83 4.01 19.75 4.01 32.75 0 59.37-32.1 59.99-64.84.859-32.624-25.693-61.16-59.99-61.16z"/></g></g><g><path d="m426 210v-180c0-5.523-4.478-10-10-10h-30v-10c0-5.523-4.478-10-10-10h-80c-16.339 0-30.87 7.878-40 20.035-9.13-12.157-23.661-20.035-40-20.035h-80c-5.522 0-10 4.477-10 10v10h-30c-5.522 0-10 4.477-10 10v180c0 5.523 4.478 9.99 10 9.99h11.077c-12.993 12.716-21.077 30.438-21.077 50.01 0 .474.001.936.012 1.35 0 .021.002.042.003.063 0 .012-.001.023-.001.035.002.078.01.156.012.234.901 38.002 31.937 68.318 69.974 68.318 3.366 0 6.703-.252 10-.723v152.723h-30c-5.522 0-10 4.478-10 10s4.478 10 10 10h240c5.522 0 10-4.478 10-10s-4.478-10-10-10h-30v-146.854c3.305.557 6.642.854 10 .854 38.824 0 69.24-37.073 69.984-74.516 0-.012.001-.024.002-.036 0-.002 0-.004 0-.005 0-.008.001-.017.001-.025.012-.465.013-.94.013-1.417 0-19.572-8.084-37.284-21.077-50h11.077c5.522-.001 10-4.478 10-10.001zm-160-160c0-16.542 13.458-30 30-30h70v140h-70.13c-11.116 0-21.485 3.727-29.87 10.006zm-120-30h70c16.542 0 30 13.458 30 30v120.122c-8.385-6.35-18.825-10.122-30.13-10.122h-69.87zm-40 180v-160h20v130c0 5.523 4.478 10 10 10h79.87c13.036 0 24.152 8.361 28.28 20-12.153 0-121.711 0-138.15 0zm100 292h-20v-158.747c7.561-3.589 14.304-8.454 20-14.284zm0-222c0 27.276-22.065 50-50 50-3.405 0-6.736-.35-9.96-1.013 22.775-4.661 39.96-24.854 39.96-48.987 0-3.506-.61-6.87-1.72-10h21.72zm-60 0c0-5.514 4.486-10 10-10s10 4.486 10 10-4.486 10-10 10-10-4.486-10-10zm140 222h-20v-71c0-5.523-4.478-10-10-10s-10 4.477-10 10v71h-20v-232h20v71c0 5.523 4.478 10 10 10s10-4.477 10-10v-71h20zm40 0h-20v-170.169c5.751 6.6 12.521 12.179 20 16.293zm30-166c-27.29 0-50-27.906-50-56v-10.01h21.72c-1.11 3.13-1.72 6.504-1.72 10.01 0 27.57 22.43 50 50 50 .505 0 1.007-.021 1.51-.036-6.461 3.791-13.732 6.036-21.51 6.036zm-10-56c0-5.514 4.486-10 10-10s10 4.486 10 10-4.486 10-10 10-10-4.486-10-10zm60 0c0 .279 0 .562-.007.887-.477 16.326-13.648 29.113-29.993 29.113-3.506 0-6.87-.61-10-1.72 11.639-4.128 20-15.243 20-28.28 0-16.542-13.458-30-30-30-23.783 0-176.217 0-200 0-16.542 0-30 13.458-30 30 0 13.036 8.361 24.152 20 28.28-3.13 1.11-6.494 1.72-10 1.72-16.344 0-29.516-12.786-29.993-29.112-.008-.298-.007-.589-.007-.888 0-27.57 22.43-50 50-50h200c27.57 0 50 22.43 50 50zm0-70c-16.657 0-123.726 0-138.402 0 4.157-11.666 15.38-20 28.272-20h80.13c5.522 0 10-4.477 10-10v-130h20z"/><path d="m285.87 60h60.13c5.522 0 10-4.477 10-10s-4.478-10-10-10h-60.13c-5.522 0-10 4.477-10 10s4.478 10 10 10z"/><path d="m285.87 100h60.13c5.522 0 10-4.477 10-10s-4.478-10-10-10h-60.13c-5.522 0-10 4.477-10 10s4.478 10 10 10z"/><path d="m356 130c0-5.523-4.478-10-10-10h-60.13c-5.522 0-10 4.477-10 10s4.478 10 10 10h60.13c5.522 0 10-4.477 10-10z"/><path d="m166 60h59.87c5.522 0 10-4.477 10-10s-4.478-10-10-10h-59.87c-5.522 0-10 4.477-10 10s4.478 10 10 10z"/><path d="m166 100h59.87c5.522 0 10-4.477 10-10s-4.478-10-10-10h-59.87c-5.522 0-10 4.477-10 10s4.478 10 10 10z"/><path d="m235.87 130c0-5.523-4.478-10-10-10h-59.87c-5.522 0-10 4.477-10 10s4.478 10 10 10h59.87c5.523 0 10-4.477 10-10z"/><circle cx="256" cy="376" r="10"/></g></g></svg>