<svg id="Capa_1" enable-background="new 0 0 512 512" height="512" viewBox="0 0 512 512" width="512" xmlns="http://www.w3.org/2000/svg"><g><g><path d="m30 10h452v326h-452z" fill="#a4caff"/><path d="m295.19 68.97h-78.38l-79.43 177.94h237.24z" fill="#eefaff"/><path d="m502 336v40c-20.808 0-470.919 0-492 0v-40z" fill="#eefaff"/><g fill="#ffee80"><path d="m422.55 376 34.53 126h-42.16c-.035-.129-33.988-125.88-34.02-126z"/><ellipse cx="256" cy="253" rx="120" ry="40"/><ellipse cx="256" cy="73" rx="40" ry="20"/><path d="m131.1 376c-1.631 6.042-33.985 125.871-34.02 126h-42.16l34.53-126z"/></g></g><g><circle cx="436" cy="193" r="10"/><circle cx="436" cy="233" r="10"/><circle cx="436" cy="273" r="10"/><path d="m383.071 45.929c-3.905-3.904-10.237-3.904-14.143 0l-20 20c-3.905 3.905-3.905 10.237 0 14.143 3.905 3.904 10.237 3.904 14.143 0l2.929-2.929v125.922l-61.769-138.385c-.011-.025-.024-.047-.035-.071-.01-.024-.017-.048-.028-.072-5.763-12.883-25.121-21.537-48.168-21.537s-42.405 8.654-48.168 21.536c-.011.024-.018.048-.028.072-.011.025-.024.047-.035.071l-79.519 178.147c-.014.029-.023.06-.036.089-.014.032-.032.06-.047.092-1.438 3.247-2.167 6.608-2.167 9.993 0 32.825 65.398 50 130 50s130-17.175 130-50v-175.857l2.929 2.929c3.906 3.905 10.237 3.905 14.143 0 3.905-3.905 3.905-10.237 0-14.143zm-156.978 26.766c1.482-3.281 12.073-9.695 29.907-9.695s28.425 6.414 29.907 9.695l.031.071c.038.099.062.185.062.234 0 3.028-12.165 10-30 10-17.907 0-30.99-7.332-29.907-10.305zm-8.799 19.724c9.023 6.546 22.766 10.581 38.706 10.581s29.683-4.035 38.706-10.581l55.821 125.05c-25.526-9.865-61.172-14.469-94.527-14.469s-69.001 4.604-94.527 14.469zm120.395 179.378c-21.673 7.224-50.685 11.203-81.689 11.203-63.235 0-110-17.482-110-30 0-10.723 41.382-30 110-30 49.406 0 85.303 10.006 101.133 20h-101.133c-5.523 0-10 4.478-10 10s4.477 10 10 9.99h101.149c-4.355 2.816-10.619 5.86-19.46 8.807z"/><path d="m70 63h86c5.523 0 10-4.478 10-10s-4.477-10-10-10h-86c-5.523 0-10 4.478-10 10s4.477 10 10 10z"/><path d="m166 93c0-5.522-4.477-10-10-10h-86c-5.523 0-10 4.478-10 10s4.477 10 10 10h86c5.523 0 10-4.478 10-10z"/><circle cx="256" cy="376" r="10"/><path d="m502 326h-10v-316c0-5.522-4.477-10-10-10h-452c-5.523 0-10 4.478-10 10v316h-10c-5.523 0-10 4.478-10 10v40c0 5.522 4.477 10 10 10h66.341l-31.066 113.357c-.824 3.008-.198 6.228 1.694 8.708 1.892 2.479 4.832 3.935 7.951 3.935h42.16c4.519 0 8.477-3.031 9.654-7.395l15.819-58.605h266.893l15.819 58.605c1.177 4.363 5.135 7.395 9.654 7.395h42.16c3.119 0 6.059-1.455 7.951-3.935s2.518-5.7 1.694-8.708l-31.065-113.357h66.341c5.523 0 10-4.478 10-10v-40c0-5.522-4.477-10-10-10zm-462-306h432v306h-432zm49.421 472h-21.392l29.049-106 20.965-.01c-4.833 17.9-25.477 94.363-28.622 106.01zm354.55 0h-21.392c-3.158-11.697-23.773-88.042-28.622-106h20.965zm48.029-126h-191c-5.523 0-10 4.478-10 10s4.477 10 10 10h72.241l10.797 40h-256.077l10.797-40h72.242c5.523 0 10-4.478 10-10s-4.477-10-10-10h-191v-20h472z"/></g></g></svg>