<svg id="Capa_1" enable-background="new 0 0 512 512" height="512" viewBox="0 0 512 512" width="512" xmlns="http://www.w3.org/2000/svg"><g><g><path d="m49 376h413v126h-413z" fill="#d8ec84"/><path d="m70 296c-22.09 0-40 17.91-40 40s17.91 40 40 40h392c0-9.679 0-70.257 0-80z" fill="#eefaff"/><path d="m462 376h40v126h-40z" fill="#8690a6"/><path d="m416 226c0 27.61-6.86 50-40 50v-100c31.027 0 40 19.338 40 50z" fill="#a4caff"/><path d="m376 419-29.58-43-30.42 43c0-10.468 0-73.883 0-83h60z" fill="#ff9256"/><path d="m376 176v100c0 11.05-8.95 20-20 20s-20-8.95-20-20v-100c0-11.05 8.95-20 20-20s20 8.95 20 20z" fill="#eefaff"/><path d="m176 176v100c0 11.05-8.95 20-20 20s-20-8.95-20-20v-100c0-11.05 8.95-20 20-20s20 8.95 20 20z" fill="#eefaff"/><path d="m136 176v100c-33.14 0-40-22.39-40-50 0-30.629 8.942-50 40-50z" fill="#a4caff"/><circle cx="110" cy="439" fill="#eefaff" r="20"/><path d="m49 376.43v125.57h-39v-126h39z" fill="#8690a6"/></g><g><path d="m80 439c0 16.542 13.458 30 30 30s30-13.458 30-30-13.458-30-30-30-30 13.458-30 30zm40 0c0 5.514-4.486 10-10 10s-10-4.486-10-10 4.486-10 10-10 10 4.486 10 10z"/><path d="m286 439c0-5.522-4.478-10-10-10h-106c-5.522 0-10 4.478-10 10s4.478 10 10 10h106c5.522 0 10-4.478 10-10z"/><circle cx="256" cy="502" r="10"/><path d="m502 366h-30v-60h10c5.522 0 10-4.478 10-10s-4.478-10-10-10h-97.72c.056-.157.107-.315.16-.473 41.555-4.825 41.56-45.575 41.56-59.527 0-16.866-2.216-39.818-20-51.956v-24.044c0-82.71-67.29-150-150-150s-150 67.29-150 150v24.044c-17.784 12.138-20 35.09-20 51.956 0 13.952.005 54.702 41.56 59.527.053.158.105.316.16.473h-57.72c-27.57 0-50 22.43-50 50 0 11.247 3.735 21.637 10.027 30h-20.027c-5.522 0-10 4.478-10 10v126c0 5.522 4.478 10 10 10h201c5.522 0 10-4.478 10-10s-4.478-10-10-10h-152v-106h247v33c0 4.355 2.819 8.21 6.97 9.53 4.148 1.318 8.679-.199 11.194-3.755l22.141-31.298 21.456 31.19c2.484 3.611 7.022 5.179 11.207 3.882 4.183-1.3 7.032-5.17 7.032-9.55v-33h66v106h-151c-5.522 0-10 4.478-10 10s4.478 10 10 10h201c5.522 0 10-4.478 10-10v-125.999c0-5.522-4.478-10-10-10zm-96-140c0 24.556-5.437 35.923-20 39.059v-78.07c2.123.468 4.056 1.091 5.764 1.89 9.845 4.604 14.236 16.053 14.236 37.121zm-280 39.059c-14.563-3.136-20-14.503-20-39.059 0-21.068 4.391-32.517 14.236-37.121 1.708-.799 3.641-1.423 5.764-1.89zm1.552-98.564c-.517.061-1.044.109-1.552.181v-16.676c0-71.683 58.317-130 130-130s130 58.317 130 130v16.676c-.508-.072-1.035-.121-1.552-.181-3.986-11.896-15.228-20.495-28.448-20.495-16.542 0-30 13.458-30 30v100c0 3.506.61 6.87 1.72 10h-143.44c1.11-3.13 1.72-6.494 1.72-10v-100c0-16.542-13.458-30-30-30-13.22 0-24.462 8.599-28.448 20.495zm238.448 9.505v100c0 5.514-4.486 10-10 10s-10-4.486-10-10v-100c0-5.514 4.486-10 10-10s10 4.486 10 10zm-200 0v100c0 5.514-4.486 10-10 10s-10-4.486-10-10v-100c0-5.514 4.486-10 10-10s10 4.486 10 10zm-127 316h-19v-106h19zm327-105.181-11.341-16.487c-1.853-2.692-4.905-4.311-8.174-4.332-3.24-.013-6.342 1.557-8.229 4.225l-12.256 17.325v-41.55h40zm86-20.819h-66v-20h66zm0-40h-362c-5.522 0-10 4.478-10 10s4.478 10 10 10h216v20h-236c-16.542 0-30-13.458-30-30s13.458-30 30-30h382zm40 166h-20v-106h20z"/></g></g></svg>