<svg id="Capa_1" enable-background="new 0 0 512 512" height="512" viewBox="0 0 512 512" width="512" xmlns="http://www.w3.org/2000/svg"><g><g><path d="m315.59 59.56 65.13 16.44h.01c30.53-.01 55.27-24.75 55.27-55.28v-4.72c-1.435.519 15.479-5.6-120.41 43.56z" fill="#eefaff"/><path d="m377.02 159.79-28.99-111.97c-15.24-22.96-50.71-37.82-92.03-37.82s-76.79 14.86-92.03 37.82l-28.99 111.97c-22.77 8.51-38.98 30.47-38.98 56.21v82.75c0 37.77 24.17 71.31 60 83.25v-60c0 55.23 44.77 100 100 100s100-44.77 100-100v60c35.83-11.94 60-45.48 60-83.25 0-10.405 0-73.549 0-82.75 0-25.74-16.21-47.7-38.98-56.21z" fill="#ff9256"/><path d="m76 16v4.72c0 30.53 24.74 55.27 55.27 55.28h.01l65.13-16.44c-135.976-49.191-118.954-43.033-120.41-43.56z" fill="#eefaff"/><path d="m502 442v40c0 11.05-8.95 20-20 20h-40v-80h40c11.05 0 20 8.95 20 20z" fill="#ff9256"/><path d="m442 422v80h-352v-80z" fill="#ffee80"/><circle cx="336" cy="116" fill="#eefaff" r="60"/><circle cx="336" cy="116" fill="#8690a6" r="20"/><path d="m279.41 136h-46.82l-8.59 16 32 34 32-34z" fill="#8690a6"/><circle cx="176" cy="116" fill="#eefaff" r="60"/><circle cx="176" cy="116" fill="#8690a6" r="20"/><path d="m130 462-40 40-20-10c0-19.03 0-40.76 0-60l20-10z" fill="#fce8d0"/><path d="m70 432v60l-60-30z" fill="#8690a6"/></g><g><path d="m306 116c0 16.542 13.458 30 30 30s30-13.458 30-30c0-5.522-4.478-10-10-10s-10 4.478-10 10c0 5.514-4.486 10-10 10s-10-4.486-10-10 4.486-10 10-10c5.522 0 10-4.478 10-10s-4.478-10-10-10c-16.542 0-30 13.458-30 30z"/><path d="m176 146c16.542 0 30-13.458 30-30 0-5.522-4.478-10-10-10s-10 4.478-10 10c0 5.514-4.486 10-10 10s-10-4.486-10-10 4.486-10 10-10c5.522 0 10-4.478 10-10s-4.478-10-10-10c-16.542 0-30 13.458-30 30s13.458 30 30 30z"/><path d="m276 376c16.542 0 30-13.458 30-30 0-5.522-4.478-10-10-10s-10 4.478-10 10c0 5.514-4.486 10-10 10s-10-4.486-10-10c0-5.522-4.478-10-10-10s-10 4.478-10 10c0 5.514-4.486 10-10 10s-10-4.486-10-10c0-5.522-4.478-10-10-10s-10 4.478-10 10c0 16.542 13.458 30 30 30 7.678 0 14.688-2.902 20-7.663 5.312 4.761 12.322 7.663 20 7.663z"/><path d="m236 256c7.678 0 14.688-2.902 20-7.663 5.312 4.761 12.322 7.663 20 7.663 16.542 0 30-13.458 30-30 0-5.522-4.478-10-10-10s-10 4.478-10 10c0 5.514-4.486 10-10 10s-10-4.486-10-10c0-5.522-4.478-10-10-10s-10 4.478-10 10c0 5.514-4.486 10-10 10s-10-4.486-10-10c0-5.522-4.478-10-10-10s-10 4.478-10 10c0 16.542 13.458 30 30 30z"/><circle cx="286" cy="502" r="10"/><path d="m5.528 470.944 79.812 39.906c1.248.665 3.007 1.15 4.66 1.15h150.998c5.522 0 10-4.478 10-10s-4.478-10-10-10h-126.855l22.929-22.929c3.905-3.905 3.905-10.237 0-14.143l-22.929-22.928h317.857v60h-101c-5.522 0-10 4.478-10 10s4.478 10 10 10h151c16.542 0 30-13.458 30-30v-40c0-16.542-13.458-30-30-30h-162.828c10.587-7.454 19.804-16.726 27.197-27.359.597 2.177 1.91 4.12 3.784 5.471 2.573 1.854 5.92 2.404 9.009 1.375 39.978-13.323 66.838-50.591 66.838-92.737 0-9.713 0-74.158 0-82.75 0-24.347-12.837-46.79-32.999-59.409 8.361-11.773 12.999-25.992 12.999-40.591 0-11.369-2.769-22.443-7.94-32.358 27.603-7.62 47.94-32.936 47.94-62.922v-4.72c0-3.259-1.588-6.313-4.256-8.186-2.669-1.873-6.08-2.329-9.146-1.218l-81.063 29.325c-19.019-22.324-54.698-35.921-95.535-35.921s-76.516 13.597-95.536 35.922l-81.063-29.325c-3.066-1.111-6.478-.655-9.146 1.218-2.667 1.872-4.255 4.926-4.255 8.185v4.72c0 29.985 20.337 55.302 47.94 62.922-5.171 9.915-7.94 20.988-7.94 32.358 0 14.599 4.638 28.817 12.999 40.591-20.162 12.619-32.999 35.062-32.999 59.409v82.75c0 42.146 26.86 79.414 66.839 92.737 3.028 1.008 6.383.518 9.009-1.375 1.874-1.351 3.187-3.294 3.784-5.471 7.393 10.633 16.609 19.905 27.196 27.359h-102.828c-1.623 0-3.479.534-4.657 1.148l-79.815 39.908c-3.388 1.694-5.528 5.156-5.528 8.944s2.14 7.25 5.528 8.944zm446.472-38.944h30c5.514 0 10 4.486 10 10v40c0 5.514-4.486 10-10 10h-30zm-27.097-401.352c-4.251 18.923-20.388 33.407-40.126 35.17-5.808-5.641-12.508-10.19-19.774-13.5zm-38.903 85.352c0 28.074-22.809 50-50 50-28.236 0-50-22.947-50-50 0-27.503 22.296-50 50-50 27.596 0 50 22.377 50 50zm-130-96c30.837 0 58.573 8.906 74.898 23.388 0 0-18.701 6.765-18.709 6.768-27.627 9.991-46.189 36.452-46.189 65.844 0 3.366.251 6.703.723 10h-21.446c.472-3.297.723-6.634.723-10 0-29.392-18.562-55.853-46.194-65.847-.006-.002-.012-.004-.018-.006l-18.685-6.76c16.324-14.481 44.06-23.387 74.897-23.387zm19.311 130.891-19.311 20.518-19.311-20.518c.919-1.595 1.773-3.226 2.563-4.891h33.495c.791 1.665 1.645 3.296 2.564 4.891zm-99.311-84.891c28.085 0 50 22.92 50 50 0 27.051-21.759 50-50 50-27.194 0-50-21.929-50-50 0-27.598 22.378-50 50-50zm-88.903-35.352 59.9 21.67c-7.266 3.31-13.967 7.859-19.774 13.5-19.74-1.764-35.876-16.247-40.126-35.17zm78.903 291.352v-66c0-2.644-3.918-28.061-22.929-47.071-3.906-3.904-10.236-3.904-14.143 0-3.905 3.905-3.905 10.237 0 14.143 11.01 11.007 17.072 25.643 17.072 41.208v102.456c-24.391-13.513-40-39.333-40-67.986v-18.607l2.929 2.929c3.907 3.905 10.236 3.904 14.143 0 3.905-3.905 3.905-10.237 0-14.143l-17.072-17.072v-35.857c0-18.844 10.758-36.093 27.277-44.546 12.206 9.422 27.142 14.546 42.723 14.546 18.26 0 35.29-6.891 48.19-19.207l24.527 26.06c1.89 2.008 4.525 3.146 7.282 3.146s5.393-1.139 7.282-3.146l24.528-26.061c12.906 12.319 29.934 19.208 48.191 19.208 15.58 0 30.515-5.124 42.723-14.546 16.519 8.452 27.277 25.702 27.277 44.546v35.857l-17.071 17.071c-3.905 3.905-3.905 10.237 0 14.143 3.907 3.905 10.236 3.904 14.143 0l2.929-2.929v18.607c0 28.653-15.609 54.474-40 67.986 0-9.648 0-90.921 0-102.456 0-15.565 6.063-30.201 17.071-41.209 3.905-3.905 3.905-10.237 0-14.143-3.906-3.904-10.236-3.904-14.143 0-17.031 17.033-22.929 41.428-22.929 47.073v66c0 49.626-40.374 90-90 90s-90-40.374-90-90zm-86 116.18 8.025-4.012 27.832 27.832-27.832 27.832-8.025-4.012zm-20 10v27.64l-27.64-13.82z"/><path d="m236 308.337c5.312 4.761 12.322 7.663 20 7.663s14.688-2.902 20-7.663c5.312 4.761 12.322 7.663 20 7.663 16.542 0 30-13.458 30-30 0-5.522-4.478-10-10-10s-10 4.478-10 10c0 5.514-4.486 10-10 10s-10-4.486-10-10c0-5.522-4.478-10-10-10s-10 4.478-10 10c0 5.514-4.486 10-10 10s-10-4.486-10-10c0-5.522-4.478-10-10-10s-10 4.478-10 10c0 5.514-4.486 10-10 10-5.233 0-10-5.243-10-11 0-5.522-4.478-10-10-10s-10 4.478-10 10c0 16.804 13.738 31 30 31 7.678 0 14.688-2.902 20-7.663z"/></g></g></svg>