<svg id="Capa_1" enable-background="new 0 0 512 512" height="512" viewBox="0 0 512 512" width="512" xmlns="http://www.w3.org/2000/svg"><g><g><path d="m10 49.88v412c0 22.09 17.91 40.12 40 40.12v-412z" fill="#8690a6"/><path d="m382 50.379c0-9.571 0-29.695 0-40.379h-332c-22.09 0-40 17.79-40 39.88s17.91 40.12 40 40.12h332v219.58h.5c66.89-5.34 119.5-61.32 119.5-129.58 0-68.435-52.873-124.515-120-129.621z" fill="#eefaff"/><path d="m382 502h-332v-412h332z" fill="#a4caff"/><path d="m382.5 131.1c22.57 4.83 39.5 24.89 39.5 48.9s-16.93 44.07-39.5 48.9h-.5v-97.8z" fill="#ffee80"/><g fill="#eefaff"><path d="m316 156v40l-120 40v-40z"/><ellipse cx="276" cy="326" rx="40" ry="30"/><ellipse cx="156" cy="366" rx="40" ry="30"/></g></g><g><circle cx="256" cy="436" r="10"/><circle cx="216" cy="436" r="10"/><circle cx="176" cy="436" r="10"/><path d="m392 41.435v-31.435c0-5.522-4.477-10-10-10h-332c-27.57 0-50 22.376-50 49.88v412c0 27.637 22.43 50.12 50 50.12h121c5.523 0 10-4.478 10-10s-4.477-10-10-10h-111v-392h312v392h-111c-5.523 0-10 4.478-10 10s4.477 10 10 10h121c5.523 0 10-4.478 10-10v-183.429c67.69-9.684 120-67.864 120-138.571 0-70.406-52.245-128.83-120-138.565zm-352 448.838c-11.639-4.145-20-15.304-20-28.393v-371.931c5.817 4.387 12.614 7.534 20 9.043zm234.029-410.273h-224.029c-16.542 0-30-13.512-30-30.12 0-16.476 13.458-29.88 30-29.88h322v20h-322.5c-5.523 0-10 4.478-10 10s4.477 10 10 9.99h250.261c-9.217 5.587-17.848 12.273-25.732 20.01zm117.971 218.327v-61.748c23.574-8.368 40-31.054 40-56.579s-16.426-48.211-40-56.579v-33.421c0-5.522-4.477-10-10-10h-76.409c19.485-13.015 42.354-20 66.409-20 66.168 0 120 53.832 120 120 0 58.641-43.156 108.729-100 118.327zm0-83.699v-69.257c12.058 7.02 20 20.135 20 34.628s-7.942 27.609-20 34.629z"/><path d="m326 326c0-19.542 0-143.334 0-170 0-3.215-1.545-6.232-4.153-8.112-2.607-1.88-5.961-2.391-9.009-1.375l-120 40c-4.084 1.361-6.838 5.182-6.838 9.487v138.022c-8.363-5.034-18.753-8.022-30-8.022-27.57 0-50 17.944-50 40s22.43 40 50 40 50-17.944 50-40v-122.792l100-33.333v84.147c-8.363-5.034-18.753-8.022-30-8.022-27.57 0-50 17.944-50 40s22.43 40 50 40 50-17.944 50-40zm-170 60c-16.262 0-30-9.159-30-20s13.738-20 30-20 30 9.159 30 20-13.738 20-30 20zm50-163.875v-18.917l100-33.334v18.918zm40 103.875c0-10.841 13.738-20 30-20s30 9.159 30 20-13.738 20-30 20-30-9.159-30-20z"/><circle cx="216" cy="502" r="10"/></g></g></svg>