<svg id="Capa_1" enable-background="new 0 0 512 512" height="512" viewBox="0 0 512 512" width="512" xmlns="http://www.w3.org/2000/svg"><g><g><path d="m50 36h306v440h-306z" fill="#ff9256"/><path d="m502 276v140c0 33.14-26.86 60-60 60h-66c-33.14 0-60-26.86-60-60 0-13.692 0-125.964 0-140z" fill="#eefaff"/><path d="m130 96h186v80h-186z" fill="#eefaff"/><g fill="#ffee80"><path d="m70 76c11.05 0 20 8.95 20 20s-8.95 20-20 20c-13.99 0-26.01 0-40 0-11.05 0-20-8.95-20-20s8.95-20 20-20z"/><path d="m70 156c11.05 0 20 8.95 20 20s-8.95 20-20 20c-13.99 0-26.01 0-40 0-11.05 0-20-8.95-20-20s8.95-20 20-20z"/><path d="m70 236c11.05 0 20 8.95 20 20s-8.95 20-20 20c-13.99 0-26.01 0-40 0-11.05 0-20-8.95-20-20s8.95-20 20-20z"/><path d="m70 316c11.05 0 20 8.95 20 20s-8.95 20-20 20c-13.99 0-26.01 0-40 0-11.05 0-20-8.95-20-20s8.95-20 20-20z"/><path d="m70 396c11.05 0 20 8.95 20 20s-8.95 20-20 20c-13.99 0-26.01 0-40 0-11.05 0-20-8.95-20-20s8.95-20 20-20z"/></g></g><g><path d="m502 266h-136v-230c0-5.522-4.477-10-10-10h-306c-5.523 0-10 4.478-10 10v30h-10c-16.542 0-30 13.458-30 30s13.458 30 30 30h10v20h-10c-16.542 0-30 13.458-30 30s13.458 30 30 30h10v20h-10c-16.542 0-30 13.458-30 30s13.458 30 30 30h10v20h-10c-16.542 0-30 13.458-30 30s13.458 30 30 30h10v20h-10c-16.542 0-30 13.458-30 30s13.458 30 30 30h10v30c0 5.522 4.477 10 10 10h108c5.523 0 10-4.478 10-10s-4.477-10-10-10h-98v-20h10c16.542 0 30-13.458 30-30s-13.458-30-30-30h-10v-20h10c16.542 0 30-13.458 30-30s-13.458-30-30-30h-10v-20h10c16.542 0 30-13.458 30-30s-13.458-30-30-30h-10v-20h10c16.542 0 30-13.458 30-30s-13.458-30-30-30h-10v-20h10c16.542 0 30-13.458 30-30s-13.458-30-30-30h-10v-20h286v220h-30c-5.523 0-10 4.478-10 10v30h-30c-16.542 0-30 13.458-30 30v40c0 37.501 29.645 68.203 66.73 69.917 3.575 7.529 8.456 14.318 14.347 20.083h-79.077c-5.523 0-10 4.478-10 10s4.477 10 10 10h194c38.598 0 70-31.401 70-70v-140c0-5.522-4.477-10-10-10zm-432 140c5.514 0 10 4.486 10 10s-4.486 10-10 10h-40c-5.514 0-10-4.486-10-10s4.486-10 10-10zm0-80c5.514 0 10 4.486 10 10s-4.486 10-10 10h-40c-5.514 0-10-4.486-10-10s4.486-10 10-10zm0-80c5.514 0 10 4.486 10 10s-4.486 10-10 10h-40c-5.514 0-10-4.486-10-10s4.486-10 10-10zm0-80c5.514 0 10 4.486 10 10s-4.486 10-10 10h-40c-5.514 0-10-4.486-10-10s4.486-10 10-10zm0-80c5.514 0 10 4.486 10 10s-4.486 10-10 10h-40c-5.514 0-10-4.486-10-10s4.486-10 10-10zm196 290v-40c0-5.514 4.486-10 10-10h30v90c0 3.087.222 6.121.611 9.103-23.096-4.407-40.611-24.742-40.611-49.103zm226 40c0 27.57-22.43 50-50 50h-66c-27.57 0-50-22.43-50-50v-130h166z"/><path d="m400.123 168.39c-9.497 6.332-15.166 16.924-15.163 28.333.003 11.404 5.673 21.988 15.167 28.311 4.626 3.08 10.825 1.787 13.866-2.78 3.061-4.597 1.816-10.805-2.78-13.866-3.973-2.646-6.251-6.898-6.253-11.669-.001-4.775 2.279-9.035 6.255-11.687 9.488-6.322 15.154-16.905 15.157-28.309.003-11.408-5.662-21.999-15.153-28.331-4.594-3.067-10.804-1.825-13.868 2.769-3.065 4.594-1.826 10.804 2.769 13.868 3.975 2.652 6.253 6.913 6.252 11.689-.001 4.771-2.278 9.025-6.249 11.672z"/><path d="m460.95 168.392c-9.491 6.332-15.156 16.923-15.153 28.331.003 11.403 5.669 21.986 15.157 28.309 4.581 3.052 10.793 1.836 13.867-2.775 3.063-4.596 1.82-10.805-2.776-13.867-3.969-2.646-6.247-6.899-6.248-11.671-.001-4.776 2.278-9.037 6.248-11.687 9.488-6.322 15.154-16.905 15.157-28.309.003-11.408-5.662-21.999-15.153-28.331-4.594-3.067-10.804-1.825-13.868 2.769-3.065 4.594-1.826 10.804 2.769 13.868 3.975 2.652 6.253 6.913 6.252 11.689-.001 4.771-2.278 9.025-6.252 11.674z"/><path d="m326 176v-80c0-5.522-4.477-10-10-10h-186c-5.523 0-10 4.478-10 10v80c0 5.522 4.477 10 10 10h186c5.523 0 10-4.478 10-10zm-20-10h-166v-60h166z"/><circle cx="203" cy="476" r="10"/></g></g></svg>