<svg id="Capa_1" enable-background="new 0 0 512 512" height="512" viewBox="0 0 512 512" width="512" xmlns="http://www.w3.org/2000/svg"><g><g><path d="m106 133c-16.57 0-30 13.43-30 30v309l40-30v-309z" fill="#8690a6"/><path d="m116 133v309h240v-309z" fill="#a4caff"/><path d="m436 50v146c-6.595 0-112.915 0-120 0l-20 40-20-40h-120c0-20.74 0-125.26 0-146z" fill="#ff9256"/><g fill="#eefaff"><path d="m236 10h200v40h-200z"/><path d="m346 442c-16.57 0-30 13.43-30 30s13.43 30 30 30h-240c-16.57 0-30-13.43-30-30s13.43-30 30-30z"/><path d="m336 122.38-60 30.62v-60z"/></g><path d="m156 10h80v40h-80z" fill="#8690a6"/></g><g><path d="m66 472c0 22.056 17.944 40 40 40h65c5.523 0 10-4.478 10-10s-4.477-10-10-10h-65c-11.028 0-20-8.972-20-20s8.972-20 20-20.01h205.382c-3.416 5.898-5.382 12.727-5.382 20.01s1.966 14.112 5.382 20h-50.382c-5.522 0-10 4.478-10 10s4.478 10 10 10h95c5.522 0 10-4.478 10-10s-4.478-10-10-10h-10c-11.028 0-20-8.972-20-20s8.972-20 20-20h10c5.522 0 10-4.478 10-10v-236h70c5.522 0 10-4.478 10-10v-186c0-5.522-4.478-10-10-10h-280c-5.523 0-10 4.478-10 10v113h-40c-22.056 0-40 17.944-40 40zm180-452h180v20h-180zm-80 0h60v20h-60zm0 40h260v126h-110c-3.788 0-7.25 2.14-8.944 5.528l-11.056 22.112-11.056-22.111c-1.694-3.389-5.156-5.529-8.944-5.529h-110zm-40 83h20v53c0 5.522 4.477 10 10 10h113.819l17.236 34.472c1.695 3.388 5.157 5.528 8.945 5.528s7.25-2.14 8.944-5.528l17.237-34.472h23.819v226h-220zm-40 20c0-11.028 8.972-20 20-20v289c-7.283 0-14.112 1.966-20 5.381z"/><path d="m280.546 161.907 60-30.62c3.374-1.722 5.485-5.202 5.454-8.99-.031-3.787-2.2-7.232-5.603-8.898l-60-29.38c-3.098-1.516-6.761-1.329-9.69.497-2.928 1.826-4.707 5.033-4.707 8.484v60c0 3.48 1.81 6.711 4.777 8.528 3.011 1.843 6.714 1.939 9.769.379zm5.454-52.876 27.639 13.533-27.639 14.106z"/><path d="m296 266c-16.601 0-39.691 0-50 0v-30c0-5.522-4.478-10-10-10-5.523 0-10 4.478-10 10v30c-10.322 0-33.346 0-50 0-5.523 0-10 4.478-10 10s4.477 10 10 10h13.018c6.991 17.771 17.599 33.816 31.174 47.191-8.474 5.602-17.628 10.078-27.356 13.323-5.239 1.748-8.07 7.411-6.322 12.65 1.742 5.221 7.391 8.075 12.65 6.322 13.249-4.419 25.604-10.769 36.836-18.904 11.233 8.135 23.588 14.484 36.836 18.904 5.274 1.756 10.913-1.115 12.65-6.322 1.747-5.239-1.083-10.902-6.322-12.65-9.728-3.245-18.882-7.721-27.356-13.323 13.576-13.374 24.183-29.419 31.174-47.191h13.018c5.522 0 10-4.478 10-10s-4.478-10-10-10zm-60 54.675c-10.503-9.918-19.024-21.67-25.2-34.685h50.4c-6.176 13.016-14.697 24.768-25.2 34.685z"/><circle cx="216" cy="502" r="10"/></g></g></svg>