<svg id="Capa_1" enable-background="new 0 0 512 512" height="512" viewBox="0 0 512 512" width="512" xmlns="http://www.w3.org/2000/svg"><g><g><path d="m10 190v246h106l60 66v-66h206v-246z" fill="#a4caff"/><path d="m502 10v240h-100c-7.344 8.078-53.552 58.908-60 66v-66h-200v-240z" fill="#eefaff"/><path d="m182 70h280v140h-280z" fill="#ff9256"/><path d="m362 50c-22.09 0-40 17.91-40 40 0-22.09-17.91-40-40-40h-60v120h59.87c22.1 0 40 17.91 40 40 0-1.07.04-2.14.13-3.19 1.62-20.6 18.85-36.81 39.87-36.81h60.13c0-24.541 0-92.97 0-120z" fill="#fce8d0"/><path d="m156 316h-20c-11.05 0-20 8.95-20 20v20c0 11.05 8.95 20 20 20h20l40 20v-100z" fill="#eefaff"/></g><g><path d="m222 40c-5.522 0-10 4.478-10 10v10h-30c-5.522 0-10 4.478-10 10v140c0 5.522 4.478 10 10 10h280c5.522 0 10-4.478 10-10v-140c0-5.522-4.478-10-10-10h-30v-10c0-5.522-4.478-10-10-10h-60c-16.339 0-30.87 7.878-40 20.035-9.13-12.157-23.661-20.035-40-20.035zm210 130v-90h20v120h-118.402c4.157-11.666 15.38-20 28.272-20h60.13c5.523 0 10-4.478 10-10zm-100-80c0-16.542 13.458-30 30-30h50v100h-50.13c-11.116 0-21.485 3.727-29.87 10.006zm-140 110v-120h20v90c0 5.522 4.478 10 10 10h59.87c13.036 0 24.152 8.361 28.28 20zm120-110v80.122c-8.385-6.351-18.825-10.122-30.13-10.122h-49.87v-100h50c16.542 0 30 13.458 30 30z"/><path d="m351.87 100h40.13c5.522 0 10-4.478 10-10s-4.478-10-10-10h-40.13c-5.522 0-10 4.478-10 10s4.478 10 10 10z"/><path d="m402 130c0-5.522-4.478-10-10-10h-40.13c-5.522 0-10 4.478-10 10s4.478 10 10 10h40.13c5.523 0 10-4.478 10-10z"/><path d="m242 90c0 5.522 4.478 10 10 10h39.87c5.522 0 10-4.478 10-10s-4.478-10-10-10h-39.87c-5.522 0-10 4.478-10 10z"/><path d="m291.87 120h-39.87c-5.522 0-10 4.478-10 10s4.478 10 10 10h39.87c5.522 0 10-4.478 10-10s-4.477-10-10-10z"/><path d="m201.257 287.493c-2.947-1.822-6.63-1.988-9.729-.438l-37.888 18.945h-17.64c-16.542 0-30 13.458-30 30v20c0 16.542 13.458 30 30 30h17.64l37.889 18.944c3.092 1.547 6.776 1.387 9.729-.438 2.948-1.822 4.743-5.041 4.743-8.507v-99.999c-.001-3.466-1.796-6.685-4.744-8.507zm-55.257 78.507h-10c-5.514 0-10-4.486-10-10v-20c0-5.514 4.486-10 10-10h10zm40 13.819-20-10v-47.639l20-10z"/><path d="m263.144 288.841c-4.356-3.394-10.642-2.613-14.033 1.746-3.394 4.357-2.611 10.641 1.746 14.033 2.492 1.941 14.935 13.02 15.144 40.626.21 27.744-12.82 40.111-15.435 42.309-4.228 3.554-4.774 9.862-1.221 14.09 3.559 4.233 9.869 4.769 14.09 1.221 5.362-4.508 22.836-21.994 22.565-57.771-.272-35.896-17.563-52.133-22.856-56.254z"/><path d="m224.717 320.286c-3.874 3.656-4.183 9.673-.799 13.7.312.528 2.023 3.794 2.082 11.562.067 8.571-2.217 12.194-2.547 12.672-3.586 3.924-3.481 10.015.315 13.812 3.907 3.905 10.236 3.904 14.143 0 1.932-1.932 8.223-9.561 8.089-26.637-.118-15.58-5.037-22.462-7.146-24.698-3.791-4.017-10.119-4.202-14.137-.411zm-1.225 37.891c.148-.178.254-.266.276-.288-.093.094-.186.19-.276.288z"/><circle cx="322" cy="10" r="10"/><path d="m502 0h-135c-5.522 0-10 4.478-10 10s4.478 10 10 10h125v220h-90c-.069 0-.135.009-.204.01-2.803.059-5.402 1.287-7.196 3.263l-42.6 46.861v-40.134c0-5.522-4.478-10-10-10h-190c0-1.729 0-214.943 0-220h125c5.522 0 10-4.478 10-10s-4.478-10-10-10h-135c-5.522 0-10 4.478-10 10v170h-122c-5.522 0-10 4.478-10 10v246c0 5.522 4.478 10 10 10h101.576l57.024 62.727c2.759 3.034 7.122 4.1 11.006 2.601 3.853-1.489 6.394-5.195 6.394-9.327v-56h196c5.522 0 10-4.478 10-10v-160.135l14.424-15.866h95.576c5.522 0 10-4.478 10-10v-240c0-5.522-4.477-10-10-10zm-130 426h-196c-5.522 0-10 4.478-10 10v40.134l-42.601-46.86c-1.895-2.086-4.582-3.274-7.399-3.274h-96v-226h112v50c0 5.522 4.478 10 10 10h190v56c0 4.132 2.541 7.838 6.395 9.327 3.836 1.485 8.218.466 11.005-2.601l22.6-24.86z"/></g></g></svg>