<svg id="Capa_1" enable-background="new 0 0 512 512" height="512" viewBox="0 0 512 512" width="512" xmlns="http://www.w3.org/2000/svg"><g><g><path d="m482 90h-128c-9.26-45.64-49.62-80-98-80s-88.74 34.36-98 80h-128c-11.05 0-20 8.95-20 20s8.95 20 20 20h128c7.95 39.18 38.82 70.05 78 78v251h40c0-12.827 0-242.643 0-251 39.18-7.95 70.05-38.82 78-78h128c11.05 0 20-8.95 20-20s-8.95-20-20-20z" fill="#ffee80"/><path d="m502 290c0 33.14-35.82 60-80 60s-80-26.86-80-60z" fill="#ffee80"/><path d="m462 442 20 40h-186l-20 20h-40l-20-20h-186l20-40c26.59 0 59.09-2.9 85.05-8.66 38.484-8.033 45.239-11.34 60.95-11.34 27.457 0 60 14.312 60 40 0-25.629 32.43-40 60-40 15.705 0 22.433 3.301 60.95 11.34 25.96 5.76 58.46 8.66 85.05 8.66z" fill="#eefaff"/><path d="m170 290c0 33.14-35.82 60-80 60s-80-26.86-80-60z" fill="#ffee80"/></g><g><path d="m246 170c0 5.522 4.478 10 10 10s10-4.478 10-10v-12.061c11.516-3.982 20.17-14.992 20.17-28.359 0-16.542-13.458-30-30-30-5.514 0-10-4.486-10-10 0-5.47 4.446-9.955 9.9-10 3.574.012 7.357 1.782 10.916 5.226 3.968 3.843 10.3 3.738 14.14-.231 3.841-3.969 3.737-10.299-.231-14.14-5.127-4.962-10.268-7.74-14.895-9.243v-11.192c0-5.522-4.478-10-10-10s-10 4.478-10 10v11.368c-11.541 4.19-19.83 15.282-19.83 28.212 0 16.542 13.458 30 30 30 5.514 0 10 4.486 10 10 0 5.553-4.503 10.001-9.986 10.001-.03 0-.061 0-.092-.001-4.328-.039-8.788-2.651-12.897-7.554-3.549-4.234-9.855-4.788-14.088-1.239-4.232 3.548-4.788 9.854-1.24 14.087 5.287 6.307 11.518 10.723 18.134 12.979v12.147z"/><path d="m196 412c-17.41 0-25.389 3.763-63.116 11.577-23.416 5.195-55.175 8.423-82.884 8.423-3.788 0-7.25 2.14-8.944 5.528l-17.236 34.472h-13.82c-5.522 0-10 4.478-10 10s4.478 10 10 10h78c5.522 0 10-4.478 10-10s-4.478-10-10-10h-41.82l10.024-20.048c27.801-.427 57.649-3.666 81.009-8.85 39.545-8.281 44.647-11.102 58.787-11.102 20.334 0 50 10.198 50 30 0 5.522 4.478 10 10 10s10-4.478 10-10c0-19.669 29.391-30 50-30 14.143 0 19.23 2.819 58.784 11.103 23.362 5.184 53.211 8.423 81.012 8.85l10.024 20.047h-169.82c-2.652 0-5.195 1.054-7.071 2.929l-17.072 17.071h-31.715l-17.071-17.071c-1.876-1.875-4.419-2.929-7.071-2.929h-38c-5.522 0-10 4.478-10 10s4.478 10 10 10h33.857l17.071 17.071c1.876 1.875 4.419 2.929 7.071 2.929h40c2.652 0 5.195-1.054 7.071-2.929l17.073-17.071h201.857c5.522 0 10-4.478 10-10s-4.478-10-10-10h-13.82l-17.236-34.472c-1.694-3.388-5.156-5.528-8.944-5.528-27.709 0-59.468-3.228-82.887-8.423-37.592-7.787-45.687-11.577-63.113-11.577-10.465 0-20.711 1.648-30 4.746v-50.746h10c5.522 0 10-4.478 10-10s-4.478-10-10-10h-10v-130.138c36.808-10.364 65.497-39.053 75.863-75.862h45.708l-52.5 140h-13.071c-5.522 0-10 4.478-10 10 0 42.43 44.919 70 90 70 45.248 0 90-27.691 90-70 0-5.522-4.478-10-10-10h-13.07l-52.5-140h45.57c16.542 0 30-13.458 30-30s-13.458-30-30-30h-120.165c-13.248-46.812-56.492-80-105.835-80s-92.586 33.188-105.834 80h-120.166c-16.542 0-30 13.458-30 30s13.458 30 30 30h45.57l-52.5 140h-13.07c-5.522 0-10 4.478-10 10 0 42.43 44.919 70 90 70 45.248 0 90-27.691 90-70 0-5.522-4.478-10-10-10h-13.07l-52.5-140h45.708c10.364 36.808 39.053 65.497 75.862 75.863v130.137h-10c-5.522 0-10 4.478-10 10s4.478 10 10 10h10v50.746c-9.289-3.098-19.536-4.746-30-4.746zm294.594-112c-6.505 22.794-34.79 40-68.594 40s-62.089-17.206-68.594-40zm-23.024-20h-91.14l45.57-121.521zm-102.029-180h116.459c5.514 0 10 4.486 10 10s-4.486 10-10 10h-116.459c.3-3.322.459-6.661.459-10s-.159-6.678-.459-10zm-206.947 199.99c-6.505 22.794-34.79 40.01-68.594 40.01s-62.089-17.206-68.594-40c6.181 0 121.203-.009 137.188-.01zm-23.024-19.99h-91.14l45.57-121.521zm-105.57-160c-5.514 0-10-4.486-10-10s4.486-10 10-10.01h116.459c-.3 3.332-.459 6.671-.459 10.01s.159 6.677.459 10zm236 306.83c-3.849 2.789-7.206 5.87-10 9.192-2.794-3.322-6.151-6.404-10-9.192v-60.83h20zm0-80.83h-20v-126.459c3.322.3 6.661.459 10 .459 3.338 0 6.677-.159 10-.459zm-100-236c0-50.429 41.198-90 90-90 48.837 0 90 39.599 90 90 0 42.811-29.899 79.655-71.98 88.198-.016.003-.033.006-.049.009-11.76 2.379-24.177 2.378-35.934.002-.022-.004-.043-.008-.065-.012-42.113-8.555-71.972-45.427-71.972-88.197z"/><circle cx="133" cy="482" r="10"/></g></g></svg>