<svg id="Capa_1" enable-background="new 0 0 512 512" height="512" viewBox="0 0 512 512" width="512" xmlns="http://www.w3.org/2000/svg"><g><g><path d="m110.75 90-.32 412h315.57v-412z" fill="#ff9256"/><path d="m126 296c-11.05 0-20-13.43-20-30 0-3.11.32-6.12.9-8.94 18.92-91 19.1-94.84 19.1-107.06 0-19.12-5.96-43.27-15.25-60l-44.75-40v412c0 22.09 17.91 40 40 40h4.43c9.47-16.65 15.57-40.66 15.57-60 0-12.02 0-15.17-19.1-107.06-.58-2.82-.9-5.83-.9-8.94 0-16.57 8.95-30 20-30z" fill="#8690a6"/><path d="m446 276v40c0 11.05-8.95 20-20 20h-40v-80h40c11.05 0 20 8.95 20 20z" fill="#8690a6"/><path d="m426 442v60h-60c0-33.14 26.86-60 60-60z" fill="#ffee80"/><path d="m426 90v60c-33.14 0-60-26.86-60-60z" fill="#ffee80"/><path d="m386 50c0 22.09 17.91 40 40 40-5.937 0-308.746 0-317.86 0-21.7 0-42.14-16.124-42.14-40 0-22.09 17.91-40 40-40h320c-22.09 0-40 17.91-40 40z" fill="#eefaff"/><path d="m386 356h-40c0-24.401 0-91.556 0-120h40z" fill="#ffee80"/><path d="m346 256v80h-60l-40-40 40-40z" fill="#8690a6"/><path d="m186 156h160v40h-160z" fill="#ffee80"/></g><g><circle cx="306" cy="296" r="10"/><path d="m56 50v412c0 27.57 22.43 50 50 50h95c5.523 0 10-4.478 10-10s-4.477-10-10-10h-74.839c6.141-15.733 9.839-34 9.839-50 0-13.089 0-16.198-19.305-109.074-.461-2.242-.695-4.572-.695-6.926 0-12.209 5.923-20 10-20 5.523 0 10-4.478 10-10s-4.477-10-10-10c-4.077 0-10-7.791-10-20 0-2.354.234-4.684.69-6.905 19.31-92.873 19.31-95.988 19.31-109.095 0-15.7-3.707-34.22-9.699-50h230.425c4.399 30.608 28.666 54.875 59.274 59.274v86.726h-20v-10c0-5.522-4.477-10-10-10h-40c-5.523 0-10 4.478-10 10v10h-50c-2.652 0-5.196 1.054-7.071 2.929l-40 40c-3.905 3.905-3.905 10.237 0 14.143l40 40c1.875 1.875 4.419 2.929 7.071 2.929h50v10c0 5.522 4.477 10 10 10h40c5.523 0 10-4.478 10-10v-10h20v86.726c-30.609 4.399-54.875 28.666-59.274 59.274h-65.725c-5.523 0-10 4.478-10 10s4.477 10 10 10h134.999c5.523 0 10-4.478 10-10v-157.721c11.639-4.128 20-15.243 20-28.28v-40c0-13.036-8.361-24.152-20-28.28v-157.72c0-5.522-4.477-10-10-10-16.542 0-30-13.458-30-30s13.458-30 30-30c5.523 0 10-4.478 10-10s-4.477-10-10-10h-320c-27.57 0-50 22.43-50 50zm280 276h-45.858l-30-30 30-30h45.858zm40 20h-20v-100h20zm40 146h-38.994c3.987-19.563 19.431-35.007 38.994-38.994zm-318.895-236.955c-.733 3.564-1.105 7.251-1.105 10.955 0 12.066 3.813 22.726 9.956 30-6.143 7.274-9.956 17.934-9.956 30 0 3.704.372 7.391 1.109 10.976 18.891 90.882 18.891 93.878 18.891 105.024 0 15.998-4.569 35.32-11.611 49.956-15.796-.841-28.389-13.955-28.389-29.956v-372.616c8.042 5.988 17.933 9.778 28.547 10.484 6.854 14.618 11.453 34.38 11.453 50.132 0 11.164 0 14.164-18.895 105.045zm338.895 20.955v40c0 5.514-4.486 10-10 10h-30v-60h30c5.514 0 10 4.486 10 10zm-20-176v38.994c-19.563-3.987-35.007-19.431-38.994-38.994zm-290-40h251.01c1.505 7.384 4.639 14.184 9.014 20-14.835 0-263.454 0-277.883 0-16.561 0-32.141-12.004-32.141-30 0-16.542 13.458-30 30-30.01h280.023c-4.375 5.826-7.509 12.626-9.014 20.01h-251.009c-5.523 0-10 4.478-10 10s4.477 10 10 10z"/><path d="m356 196v-40c0-5.522-4.477-10-10-10h-160c-5.523 0-10 4.478-10 10v40c0 5.522 4.477 10 10 10h160c5.523 0 10-4.478 10-10zm-20-10h-140v-20h140z"/><circle cx="246" cy="502" r="10"/></g></g></svg>