<svg id="Capa_1" enable-background="new 0 0 512 512" height="512" viewBox="0 0 512 512" width="512" xmlns="http://www.w3.org/2000/svg"><g><g><path d="m10 396h492v40h-492z" fill="#ff9256"/><path d="m296 76c-22.09 0-40 17.91-40 40 0-22.09-17.91-40-40-40h-206v320h205.87c22.1 0 40 17.91 40 40 0-1.07.04-2.14.13-3.19 1.62-20.6 18.85-36.81 39.87-36.81h206.13v-320z" fill="#eefaff"/><path d="m296 116v240h166c0-24.906 0-214.531 0-240z" fill="#a4caff"/><path d="m359 296h103v60h-103z" fill="#ff9256"/><path d="m399 176-40 80h-63v-80z" fill="#ff9256"/><path d="m50 116v240h166c0-24.936 0-211.579 0-240z" fill="#a4caff"/><g fill="#ff9256"><path d="m216 196v60h-103c0-5.264 0-44.868 0-60z"/><path d="m113 296 20 60h-83v-60z"/></g></g><g><path d="m502 66h-206c-16.339 0-30.87 7.878-40 20.035-9.13-12.157-23.661-20.035-40-20.035h-206c-5.523 0-10 4.478-10 10v360c0 5.522 4.477 10 10 10h78c5.523 0 10-4.478 10-10s-4.477-10-10-10h-68v-20h195.87c13.036 0 24.152 8.361 28.28 20h-66.15c-5.523 0-10 4.478-10 10s4.477 10 10 10h324c5.523 0 10-4.478 10-10 0-30.691 0-342.577 0-360 0-5.522-4.477-10-10-10zm-256 330.122c-8.384-6.351-18.825-10.122-30.13-10.122h-195.87v-300h196c16.542 0 30 13.458 30 30zm246 29.878h-224.402c4.156-11.666 15.38-20 28.272-20h196.13zm0-40h-196.13c-11.116 0-21.485 3.727-29.87 10.006v-280.006c0-16.542 13.458-30 30-30h196z"/><path d="m286 116v240c0 5.522 4.477 10 10 10h166c5.523 0 10-4.478 10-10v-240c0-5.522-4.477-10-10-10h-166c-5.523 0-10 4.478-10 10zm166 230h-83v-40h83zm0-100h-76.82l30-60h46.82zm-146-120h146v40h-146zm0 60h76.82l-30 60h-46.82zm0 80h146v20h-93c-5.523 0-10 4.478-10 10v50h-43z"/><path d="m216 106h-166c-5.523 0-10 4.478-10 10v240c0 5.522 4.477 10 10 10h166c5.523 0 10-4.478 10-10v-240c0-5.522-4.477-10-10-10zm-156 240v-40h45.792l13.333 40zm146 0h-65.792l-17.721-53.162c-1.362-4.084-5.183-6.838-9.487-6.838h-53v-40h43v10c0 5.522 4.477 10 10 10h93zm0-100h-83v-40h83zm0-60h-93c-5.523 0-10 4.478-10 10v30h-43v-100h146z"/><path d="m90 166h86c5.523 0 10-4.478 10-10s-4.477-10-10-10h-86c-5.523 0-10 4.478-10 10s4.477 10 10 10z"/><circle cx="133" cy="436" r="10"/></g></g></svg>