<svg id="Capa_1" enable-background="new 0 0 512 512" height="512" viewBox="0 0 512 512" width="512" xmlns="http://www.w3.org/2000/svg"><g><g><path d="m106 10c-16.57 0-30 13.43-30 30v432l40-30v-432z" fill="#8690a6"/><path d="m436 10v432h-320v-432z" fill="#ff9256"/><path d="m426 442c-16.57 0-30 13.43-30 30s13.43 30 30 30h-320c-16.57 0-30-13.43-30-30s13.43-30 30-30z" fill="#eefaff"/><path d="m276 116c72.01 0 100-40 100-40v125.84c0 82.22-26.46 97.39-100 134.16 0-26.492 0-187.255 0-220z" fill="#ffee80"/><path d="m276 336c-73.54-36.77-100-51.94-100-134.16v-125.84s27.99 40 100 40z" fill="#eefaff"/></g><g><circle cx="316" cy="376" r="10"/><circle cx="276" cy="376" r="10"/><circle cx="236" cy="376" r="10"/><path d="m379.006 66.462c-4.166-1.309-8.697.229-11.199 3.805-.25.357-25.769 35.733-91.807 35.733-65.227 0-90.699-34.199-91.838-35.777-2.509-3.545-7.023-5.063-11.167-3.761-4.164 1.312-6.995 5.173-6.995 9.538v125.84c0 86.705 28.961 104.822 105.528 143.104 1.268.635 2.9 1.056 4.472 1.056 1.585 0 3.216-.427 4.472-1.056 76.597-38.297 105.528-56.42 105.528-143.104v-125.84c0-4.365-2.831-8.226-6.994-9.538zm-113.006 178.806c-5.257-.786-20-4.96-20-9.268 0-5.522-4.478-10-10-10-5.523 0-10 4.478-10 10 0 15.035 16.616 26.817 40 29.446v54.344c-59.474-30.109-80-45.561-80-117.951v-102.573c15.392 11.418 41.218 24.519 80 26.475zm100-43.428c0 72.39-20.526 87.842-80 117.951v-73.059c5.257.786 20 4.96 20 9.268 0 5.522 4.478 10 10 10s10-4.478 10-10c0-15.035-16.616-26.817-40-29.446v-100.813c38.782-1.957 64.608-15.057 80-26.475z"/><path d="m216 166c5.514 0 10 4.486 10 10 0 5.522 4.477 10 10 10 5.522 0 10-4.478 10-10 0-16.542-13.458-30-30-30-5.523 0-10 4.478-10 10s4.477 10 10 10z"/><path d="m316 186c16.542 0 30-13.458 30-30 0-5.522-4.478-10-10-10s-10 4.478-10 10c0 5.514-4.486 10-10 10-5.522 0-10 4.478-10 10s4.478 10 10 10z"/><circle cx="266" cy="502" r="10"/><path d="m66 472c0 22.056 17.944 40 40 40h115c5.523 0 10-4.478 10-10s-4.477-10-10-10h-115c-11.028 0-20-8.972-20-20s8.972-20 20-20.01h285.382c-3.416 5.898-5.382 12.727-5.382 20.01s1.966 14.112 5.382 20h-80.382c-5.522 0-10 4.478-10 10s4.478 10 10 10h125c5.522 0 10-4.478 10-10s-4.478-10-10-10h-10c-11.028 0-20-8.972-20-20s8.972-20 20-20h10c5.522 0 10-4.478 10-10v-432c0-5.522-4.478-10-10-10h-330c-22.056 0-40 17.944-40 40zm60-452h300v412h-300zm-40 20c0-11.028 8.972-20 20-20v412c-7.28 0-14.113 1.955-20 5.368z"/></g></g></svg>