<svg id="Capa_1" enable-background="new 0 0 512 512" height="512" viewBox="0 0 512 512" width="512" xmlns="http://www.w3.org/2000/svg"><g><g><path d="m116 10h320v432h-320z" fill="#ff9256"/><path d="m106 10c-16.57 0-30 13.43-30 30v432l40-30v-432z" fill="#8690a6"/><path d="m396 196h40v40h-40z" fill="#ffee80"/><path d="m426 442c-16.57 0-30 13.43-30 30s13.43 30 30 30h-320c-16.57 0-30-13.43-30-30s13.43-30 30-30z" fill="#eefaff"/><path d="m296 442h-40c0-38.023 0-147.906 0-186h40z" fill="#ffee80"/><path d="m256 10h40v166h-40z" fill="#ffee80"/><path d="m364.01 159.99-48.01 36.01c0-11.05-8.95-20-20-20h-40c-11.05 0-20 8.95-20 20l-48.01-36.01c-12.946-9.729-31.99-.64-31.99 16.01v80c0 16.652 19.046 25.737 31.99 16.01l48.01-36.01-40 100h60v-80h40v80h60l-40-100 48.01 36.01c12.946 9.729 31.99.64 31.99-16.01 0-23.456 0-55.045 0-80 0-16.652-19.046-25.737-31.99-16.01z" fill="#d8ec84"/><path d="m156 196v40c-9.679 0-70.257 0-80 0v-40z" fill="#ffee80"/></g><g><circle cx="396" cy="50" r="10"/><circle cx="356" cy="50" r="10"/><path d="m426 452h10c5.522 0 10-4.478 10-10v-432c0-5.522-4.478-10-10-10h-330c-22.056 0-40 17.944-40 40v432c0 22.056 17.944 40 40 40h115c5.522 0 10-4.478 10-10s-4.478-10-10-10h-115c-11.028 0-20-8.972-20-20s8.972-20 20-20.01h285.382c-3.416 5.898-5.382 12.727-5.382 20.01s1.966 14.112 5.382 20h-80.382c-5.522 0-10 4.478-10 10s4.478 10 10 10h125c5.522 0 10-4.478 10-10s-4.478-10-10-10h-10c-11.028 0-20-8.972-20-20s8.972-20 20-20zm0-226h-20v-20h20zm-120-206h120v166h-20v-10c0-16.542-13.458-30-30-30-6.555 0-12.778 2.073-17.99 5.99l-36.876 27.659c-3.572-5.472-8.877-9.71-15.133-11.929v-147.72zm50 186h-30v-5l44.018-33.015c1.728-1.298 3.796-1.984 5.982-1.984 5.514 0 10 4.486 10 10v80c0 5.514-4.486 10-10 10-2.187 0-4.255-.687-5.99-1.99l-44.01-33.011v-5h30c5.522 0 10-4.478 10-10s-4.478-10-10-10zm-14.771 120h-35.229v-61.72c3.15-1.117 6.057-2.747 8.626-4.788zm-75.229-306h20v146h-20zm-140 0h120v147.72c-6.257 2.219-11.561 6.458-15.133 11.929l-36.869-27.653c-5.22-3.923-11.443-5.996-17.998-5.996-16.542 0-30 13.458-30 30v10h-20zm70 206h30v5l-44.018 33.015c-1.727 1.298-3.795 1.985-5.982 1.985-5.514 0-10-4.486-10-10v-80c0-5.514 4.486-10 10-10 2.187 0 4.255.687 5.99 1.99l44.01 33.01v5h-30c-5.522 0-10 4.478-10 10s4.478 10 10 10zm-110-186c0-11.028 8.972-20 20-20v166h-20zm0 166h60v20h-60zm20 226c-7.28 0-14.113 1.955-20 5.368v-191.368h20zm140 0h-120v-186h20v10c0 16.542 13.458 30 30 30 6.555 0 12.778-2.073 17.99-5.99l19.479-14.611-26.755 66.887c-1.232 3.081-.855 6.572 1.005 9.32 1.86 2.747 4.962 4.394 8.28 4.394h50v86zm0-106h-35.229l26.604-66.509c2.569 2.041 5.476 3.671 8.626 4.788v61.721zm40 106h-20v-166h20zm10-186h-40c-5.514 0-10-4.486-10-10v-40c0-5.514 4.486-10 10-10h40c5.514 0 10 4.486 10 10v40c0 5.514-4.486 10-10 10zm10 186v-86h50c3.318 0 6.42-1.646 8.28-4.394s2.237-6.239 1.005-9.32l-26.755-66.887 19.472 14.605c5.22 3.923 11.443 5.996 17.998 5.996 16.542 0 30-13.458 30-30v-10h20v186z"/><circle cx="266" cy="502" r="10"/></g></g></svg>