<svg id="Capa_1" enable-background="new 0 0 512 512" height="512" viewBox="0 0 512 512" width="512" xmlns="http://www.w3.org/2000/svg"><g><g><path d="m30 136h452v306h-452z" fill="#a4caff"/><path d="m416 442v-20c0-11.05-8.95-20-20-20 0-39.718 0-123.97 0-186h20v-40c-4.51-2.255-155.49-77.745-160-80-4.51 2.255-155.49 77.745-160 80v40h20v186c-11.05 0-20 8.95-20 20v20c-7.645 0-74.653 0-86 0v20c0 22.09 17.91 40 40 40h412c22.09 0 40-17.91 40-40v-20c-11.347 0-78.355 0-86 0z" fill="#eefaff"/><path d="m356 316v86h-40v-86c0-11.05 8.95-20 20-20s20 8.95 20 20z" fill="#a4caff"/><path d="m256 10h60v40h-60z" fill="#ff9256"/><g fill="#a4caff"><path d="m276 316v86h-40v-86c0-11.05 8.95-20 20-20s20 8.95 20 20z"/><circle cx="256" cy="156" r="20"/><path d="m196 316v86h-40v-86c0-11.05 8.95-20 20-20s20 8.95 20 20z"/></g></g><g><path d="m256 186c16.542 0 30-13.458 30-30s-13.458-30-30-30-30 13.458-30 30 13.458 30 30 30zm0-40c5.514 0 10 4.486 10 10s-4.486 10-10 10-10-4.486-10-10 4.486-10 10-10z"/><circle cx="256" cy="502" r="10"/><path d="m50 512h161c5.522 0 10-4.478 10-10s-4.478-10-10-10h-161c-16.542 0-30-13.458-30-30v-10h147.714c4.127 11.641 15.248 20 28.286 20h120c13.038 0 24.159-8.359 28.286-20h147.714v10c0 16.542-13.458 30-30 30h-161c-5.522 0-10 4.478-10 10s4.478 10 10 10h161c27.57 0 50-22.43 50-50v-20c0-5.522-4.478-10-10-10h-10v-296c0-5.522-4.478-10-10-10h-143.64l-72.36-36.18v-29.82h50c5.522 0 10-4.478 10-10v-40c0-5.522-4.478-10-10-10h-60c-5.522 0-10 4.478-10 10v79.82l-72.36 36.18h-143.64c-5.522 0-10 4.478-10 10v296h-10c-5.522 0-10 4.478-10 10v20c0 27.57 22.43 50 50 50zm216-492h40v20h-40zm140 412h-70c-5.522 0-10 4.478-10 10 0 5.514-4.486 10-10 10h-120c-5.514 0-10-4.486-10-10 0-5.522-4.478-10-10-10h-70v-10c0-5.514 4.486-10 10-10h280c5.514 0 10 4.486 10 10zm-20-166v126h-20v-76c0-16.542-13.458-30-30-30s-30 13.458-30 30v76h-20v-76c0-16.542-13.458-30-30-30s-30 13.458-30 30v76h-20v-76c0-16.542-13.458-30-30-30s-30 13.458-30 30v76h-20v-126zm-260-20v-20h260v20zm220 70v76h-20v-76c0-5.514 4.486-10 10-10s10 4.486 10 10zm-80 0v76h-20v-76c0-5.514 4.486-10 10-10s10 4.486 10 10zm-80 0v76h-20v-76c0-5.514 4.486-10 10-10s10 4.486 10 10zm286-170v286h-46v-10c0-13.036-8.361-24.152-20-28.28v-167.72h36c5.522 0 10-4.478 10-10s-4.478-10-10-10h-16v-30c0-3.788-2.14-7.25-5.528-8.944l-42.112-21.056zm-216-38.819 150 75v23.819h-300v-23.819zm-216 38.819h93.64l-42.111 21.056c-3.389 1.694-5.529 5.156-5.529 8.944v30h-16c-5.522 0-10 4.478-10 10s4.478 10 10 10h36v167.72c-11.639 4.128-20 15.243-20 28.28v10h-46z"/></g></g></svg>