<svg id="Capa_1" enable-background="new 0 0 512 512" height="512" viewBox="0 0 512 512" width="512" xmlns="http://www.w3.org/2000/svg"><g><g><path d="m190 316h-120c-33.14 0-60 26.86-60 60v126h240v-126c0-33.14-26.86-60-60-60z" fill="#d8ec84"/><path d="m150 176-80 40v20.01c0 26.12 16.7 48.34 40 56.58v23.41h-20c0 22.09 17.91 40 40 40s40-17.91 40-40h-20v-23.41c23.31-8.24 40-30.46 40-56.59v-20z" fill="#fce8d0"/><path d="m230 90v166h66v60l60-60h146v-166z" fill="#ff9256"/><path d="m316 10c-11.05 0-20 8.95-20 20v166h140c0-38.023 0-147.906 0-186z" fill="#ffee80"/><path d="m436 176v40h-120c-11.05 0-20-8.95-20-20s8.95-20 20-20z" fill="#eefaff"/><path d="m190 196v20c-22.09 0-40-17.91-40-40-12.26 24.51-37.31 40-64.72 40h-15.28v-20c0-33.14 26.86-60 60-60s60 26.86 60 60z" fill="#ffee80"/></g><g><path d="m502 80h-56v-70c0-5.522-4.477-10-10-10h-120c-16.542 0-30 13.458-30 30v50h-56c-5.523 0-10 4.478-10 10v166c0 5.522 4.477 10 10 10h56v50c0 4.045 2.437 7.691 6.173 9.239 3.745 1.549 8.044.686 10.898-2.168l57.071-57.071h141.858c5.523 0 10-4.478 10-10v-166c0-5.522-4.477-10-10-10zm-196-50c0-5.514 4.486-10 10-10h110v146h-110c-3.504 0-6.871.604-10 1.714zm10 156h110v20h-110c-5.514 0-10-4.486-10-10s4.486-10 10-10zm176 60h-136c-2.652 0-5.196 1.054-7.071 2.929l-42.929 42.928v-35.857c0-5.522-4.477-10-10-10h-56v-146h46v96c0 16.542 13.458 30 30 30h120c5.523 0 10-4.478 10-10v-116h46z"/><path d="m336 60h60c5.523 0 10-4.478 10-10s-4.477-10-10-10h-60c-5.523 0-10 4.478-10 10s4.477 10 10 10z"/><circle cx="130" cy="502" r="10"/><path d="m10 512h75c5.523 0 10-4.478 10-10s-4.477-10-10-10h-25v-116c0-5.522-4.477-10-10-10s-10 4.478-10 10v116h-20v-116c0-27.57 22.43-50 50-50h11.006c4.646 22.795 24.847 40 48.994 40s44.348-17.205 48.994-40h11.006c27.57 0 50 22.43 50 50v116h-20v-116c0-5.522-4.477-10-10-10s-10 4.478-10 10v116h-25c-5.523 0-10 4.478-10 10s4.477 10 10 10h75c5.523 0 10-4.478 10-10v-126c0-38.598-31.402-70-70-70h-30v-6.747c24.188-11.483 40-36.061 40-63.253v-40c0-38.598-31.402-70-70-70s-70 31.402-70 70v40.01c0 27.181 15.811 51.755 40 63.242v6.748h-30c-38.598 0-70 31.402-70 70v126c0 5.522 4.477 10 10 10zm120-166c-13.036 0-24.152-8.361-28.28-20h8.28c5.523 0 10-4.478 10-10v-10.723c3.297.472 6.634.723 10 .723s6.703-.251 10-.723v10.723c0 5.522 4.477 9.99 10 9.99h8.28c-4.128 11.639-15.244 20.01-28.28 20.01zm-50-150c0-27.57 22.43-50 50-50s50 22.43 50 50v8.28c-11.639-4.128-20-15.243-20-28.28 0-4.638-3.188-8.666-7.702-9.732-4.513-1.065-9.167 1.111-11.242 5.259-10.636 21.263-32.008 34.473-55.776 34.473h-5.28zm0 40.01v-10.01h5.28c23.517 0 45.257-9.79 60.59-26.509 6.913 12.932 19.347 22.484 34.13 25.498v11.011c0 27.274-22.064 50-50 50-27.872 0-50-22.662-50-49.99z"/></g></g></svg>