<svg id="Capa_1" enable-background="new 0 0 512 512" height="512" viewBox="0 0 512 512" width="512" xmlns="http://www.w3.org/2000/svg"><g><g><path d="m75 49.88v412c0 21.92 19.12 39.85 41 40.12v-412z" fill="#8690a6"/><path d="m437 90v412s-320.83 0-321 0v-412z" fill="#a4caff"/><path d="m396 256v40h-22.02c-2.59 12.76-7.67 24.59-14.61 35.08l15.63 15.63-28.29 28.28-15.62-15.62c-10.5 6.94-22.33 12.02-35.09 14.61v22.02h-40v-22.02c-12.76-2.59-24.59-7.67-35.09-14.61l-15.62 15.62-28.29-28.28 15.63-15.63c-6.94-10.49-12.02-22.32-14.61-35.08h-22.02v-40h22.02c2.59-12.76 7.67-24.59 14.61-35.09l-15.63-15.62 28.29-28.29 15.63 15.63c10.49-6.94 22.32-12.02 35.08-14.61v-22.02h40v22.02c12.76 2.59 24.59 7.67 35.08 14.61l15.63-15.63 28.29 28.29-15.63 15.62c6.94 10.5 12.02 22.33 14.61 35.09z" fill="#eefaff"/><path d="m276 216c33.14 0 60 26.86 60 60s-26.86 60-60 60-60-26.86-60-60 26.86-60 60-60z" fill="#8690a6"/><path d="m437 89.88v.12h-320.5c-22.059 0-41.5-18.002-41.5-40.12 0-22.09 19.41-39.88 41.5-39.88h320.5z" fill="#eefaff"/><circle cx="276" cy="276" fill="#a4caff" r="20"/></g><g><circle cx="316" cy="436" r="10"/><circle cx="276" cy="436" r="10"/><circle cx="236" cy="436" r="10"/><path d="m65 49.88v412c0 26.828 23.299 49.779 50.877 50.119.041.001.082.001.123.001h115c5.523 0 10-4.478 10-10s-4.477-10-10-10h-105v-392h301v392h-106c-5.523 0-10 4.478-10 10s4.477 10 10 10h116c5.523 0 10-4.478 10-10 0-41.784 0-485.376 0-492 0-5.522-4.477-10-10-10h-320.5c-27.916 0-51.5 22.842-51.5 49.88zm41 440.307c-12.078-4.267-21-15.555-21-28.307v-372.75c6.104 4.699 13.262 8.116 21 9.762zm321-449.187-291.004.116c-5.523.002-9.998 4.365-9.996 9.888.002 5.521 4.479 9.996 10 9.996.001 0 291-.116 291-.116v19.168c-.1 0-312.107-.062-312.208-.05-16.282-.894-29.792-14.429-29.792-30.122 0-16.196 14.425-29.88 31.5-29.88h310.5z"/><path d="m276 246c-16.542 0-30 13.458-30 30s13.458 30 30 30 30-13.458 30-30-13.458-30-30-30zm0 40c-5.514 0-10-4.486-10-10s4.486-10 10-10 10 4.486 10 10-4.486 10-10 10z"/><path d="m306 396v-14.168c8.177-2.323 16.063-5.611 23.578-9.831l10.061 10.061c3.905 3.904 10.236 3.906 14.141.001l28.29-28.28c3.904-3.902 3.906-10.238.001-14.144l-10.069-10.068c4.219-7.511 7.507-15.394 9.83-23.57h14.168c5.523 0 10-4.478 10-10v-40c0-5.522-4.477-10-10-10h-14.167c-2.323-8.175-5.611-16.062-9.831-23.576l10.067-10.061c1.876-1.875 2.931-4.419 2.931-7.071 0-2.653-1.053-5.197-2.929-7.073l-28.29-28.29c-3.905-3.904-10.237-3.904-14.143 0l-10.068 10.069c-7.51-4.22-15.393-7.507-23.57-9.83v-14.169c0-5.522-4.477-10-10-10h-40c-5.523 0-10 4.478-10 10v14.168c-8.177 2.323-16.06 5.61-23.57 9.83l-10.068-10.069c-3.905-3.904-10.237-3.904-14.143 0l-28.29 28.29c-1.875 1.876-2.929 4.42-2.929 7.073 0 2.652 1.055 5.196 2.931 7.071l10.067 10.061c-4.219 7.515-7.508 15.401-9.831 23.576h-14.167c-5.523 0-10 4.478-10 10v40c0 5.522 4.477 10 10 10h14.167c2.323 8.177 5.611 16.06 9.83 23.57l-10.069 10.068c-3.902 3.903-3.905 10.239.001 14.144l28.29 28.28c3.905 3.904 10.236 3.903 14.141-.001l10.061-10.061c7.516 4.22 15.401 7.508 23.578 9.831v14.169c0 5.522 4.477 10 10 10h40c5.524 0 10.001-4.478 10.001-10zm-20-22.02v12.02h-20v-12.02c0-4.756-3.35-8.854-8.01-9.8-11.172-2.269-21.792-6.694-31.566-13.153-3.964-2.621-9.224-2.087-12.585 1.271l-8.55 8.551-14.146-14.141 8.558-8.558c3.361-3.361 3.892-8.624 1.269-12.589-6.458-9.761-10.882-20.376-13.15-31.552-.946-4.661-5.044-8.011-9.8-8.011h-12.02v-20h12.02c4.756 0 8.854-3.35 9.8-8.011 2.268-11.172 6.692-21.792 13.152-31.565 2.621-3.965 2.088-9.227-1.273-12.587l-8.554-8.549 14.146-14.146 8.559 8.559c3.362 3.36 8.624 3.893 12.588 1.269 9.761-6.456 20.376-10.881 31.553-13.15 4.661-.946 8.01-5.044 8.01-9.8v-12.018h20v12.02c0 4.756 3.35 8.854 8.01 9.8 11.176 2.27 21.792 6.694 31.553 13.15 3.964 2.623 9.227 2.091 12.588-1.269l8.559-8.559 14.146 14.146-8.554 8.549c-3.362 3.36-3.895 8.622-1.273 12.587 6.459 9.773 10.884 20.394 13.152 31.565.946 4.661 5.044 8.011 9.8 8.011h12.018v20h-12.02c-4.756 0-8.854 3.35-9.8 8.011-2.268 11.176-6.692 21.791-13.15 31.552-2.623 3.965-2.092 9.228 1.269 12.589l8.558 8.558-14.146 14.141-8.55-8.551c-3.36-3.359-8.621-3.892-12.585-1.271-9.773 6.459-20.394 10.885-31.566 13.153-4.66.945-8.01 5.043-8.01 9.798z"/><path d="m276 206c-38.598 0-70 31.402-70 70s31.402 70 70 70 70-31.402 70-70-31.402-70-70-70zm0 120c-27.57 0-50-22.43-50-50s22.43-50 50-50 50 22.43 50 50-22.43 50-50 50z"/><circle cx="276" cy="502" r="10"/></g></g></svg>