<svg id="Capa_1" enable-background="new 0 0 512 512" height="512" viewBox="0 0 512 512" width="512" xmlns="http://www.w3.org/2000/svg"><g><g><path d="m75 50v412c0 21.75 17.37 39.46 39 39.99v-412z" fill="#8690a6"/><path d="m437 90v412s-322.67 0-323-.01v-412c.33.01.67.01 1 .01z" fill="#ff9256"/><path d="m331 176c32.56 0 55 28.67 55 62.63 0 46.96-44.76 78.06-110 137.37-65.24-59.31-110-90.41-110-137.37 0-33.96 22.44-62.63 55-62.63 35.2 0 55 25 55 25s19.8-25 55-25z" fill="#fce8d0"/><path d="m437 10v80c-1.128 0-322.484.006-323-.01-21.63-.53-39-18.24-39-39.99 0-22.09 17.91-40 40-40z" fill="#eefaff"/><path d="m306 226c17.76 0 30 14.33 30 31.31 0 23.49-24.42 39.04-60 68.69-35.58-29.65-60-45.2-60-68.69 0-16.98 12.24-31.31 30-31.31 22.8 0 30 25 30 25s7.2-25 30-25z" fill="#ff9256"/></g><g><circle cx="316" cy="436" r="10"/><circle cx="276" cy="436" r="10"/><circle cx="236" cy="436" r="10"/><path d="m396 238.63c0-39.444-26.783-72.63-65-72.63-26.451 0-45.196 12.332-55 20.865-9.804-8.533-28.549-20.865-55-20.865-38.313 0-65 33.293-65 72.63 0 44.245 33.748 74.124 84.831 119.351 9.078 8.037 18.464 16.348 28.443 25.419 1.907 1.733 4.316 2.6 6.726 2.6s4.819-.867 6.727-2.601c9.979-9.071 19.365-17.382 28.442-25.419 51.084-45.226 84.831-75.105 84.831-119.35zm-120 123.887c-7.592-6.832-14.845-13.254-21.912-19.511-48.695-43.113-78.088-69.136-78.088-104.376 0-30.004 19.346-52.63 45-52.63 29.591 0 46.412 20.286 47.187 21.242 1.897 2.374 4.771 3.758 7.813 3.758 3.055 0 5.942-1.396 7.839-3.791.168-.213 17.144-21.209 47.161-21.209 25.654 0 45 22.626 45 52.63 0 35.24-29.393 61.263-78.088 104.376-7.067 6.257-14.32 12.679-21.912 19.511z"/><path d="m306 216c-14.271 0-23.845 7.004-30 14.487-6.155-7.483-15.728-14.487-30-14.487-22.43 0-40 18.146-40 41.31 0 24.642 20.187 41.024 48.126 63.698 4.941 4.01 10.052 8.157 15.472 12.675 1.854 1.545 4.129 2.317 6.402 2.317s4.548-.772 6.402-2.317c5.42-4.518 10.53-8.665 15.472-12.675 27.94-22.674 48.126-39.057 48.126-63.698 0-23.164-17.57-41.31-40-41.31zm-20.728 89.479c-3.015 2.446-6.092 4.942-9.271 7.55-3.18-2.607-6.257-5.104-9.271-7.55-24.527-19.905-40.73-33.054-40.73-48.169 0-10.33 7.009-21.31 20-21.31 14.794 0 20.142 16.95 20.404 17.815 1.249 4.257 5.156 7.185 9.596 7.185 4.457 0 8.376-2.949 9.609-7.232.051-.178 5.292-17.768 20.391-17.768 12.99 0 20 10.979 20 21.31 0 15.115-16.203 28.264-40.728 48.169z"/><circle cx="276" cy="502" r="10"/><path d="m65 462c0 27.178 21.695 49.324 48.704 49.985.818.023 76.166.012 117.296.015 5.523 0 10-4.478 10-10s-4.477-10-10-10h-107v-392h303v392h-106c-5.522 0-10 4.478-10 10s4.478 10 10 10h116c5.522 0 10-4.478 10-10 0-22.972 0-468.975 0-492 0-5.522-4.478-10-10-10h-322c-27.57 0-50 22.43-50 50zm50-442h312v20l-293.004.116c-5.523.002-9.998 4.365-9.996 9.888.002 5.521 4.479 9.996 10 9.996.001 0 293-.116 293-.116v20.116h-312c-16.239.068-30-13.434-30-30 0-16.542 13.458-30 30-30zm-30 70.002c5.664 4.265 12.123 7.253 19 8.792v391.09c-11.087-4.438-19-15.349-19-27.884z"/></g></g></svg>