<svg id="Capa_1" enable-background="new 0 0 512 512" height="512" viewBox="0 0 512 512" width="512" xmlns="http://www.w3.org/2000/svg"><g><g><path d="m216 148.83v-98.83h20v-40h-120v40h20v98.83c-46.61 16.47-80 60.92-80 113.17 0 30.74 11.55 58.77 30.57 80h178.86c19.02-21.23 30.57-49.26 30.57-80 0-52.25-33.39-96.7-80-113.17z" fill="#eefaff"/><path d="m502 502h-432c-33.14 0-60-26.86-60-60s26.86-60 60-60h432c-15.582 0-20 42.362-20 60 0 26.226 6.887 60 20 60z" fill="#eefaff"/><path d="m436 256v86c0 22.09-17.91 40-40 40s-40-17.91-40-40v-86z" fill="#a4caff"/><path d="m356 196v60h80v-60c-9.679 0-70.257 0-80 0z" fill="#eefaff"/><path d="m446 90c-27.61 0-50 22.39-50 50 0-27.61-22.39-50-50-50h-10v10c0 27.61 22.39 50 50 50h20c27.61 0 50-22.39 50-50v-10z" fill="#d8ec84"/><g fill="#d8ec84"><path d="m436 10c-22.09 0-40 17.91-40 40h20c22.09 0 40-17.91 40-40z"/><path d="m356 10h-20c0 22.09 17.91 40 40 40h20c0-22.09-17.91-40-40-40z"/></g><path d="m265.43 342c-21.96 24.55-53.89 40-89.43 40s-67.47-15.45-89.43-40z" fill="#a4caff"/><g fill="#d8ec84"><path d="m216 242h20c0 22.09-17.91 40-40 40h-20c0-22.09 17.91-40 40-40z"/><path d="m176 162s20 13.43 20 30-20 30-20 30-20-13.43-20-30 20-30 20-30z"/><path d="m176 302h-20c-22.09 0-40-17.91-40-40h20c22.09 0 40 17.91 40 40z"/></g></g><g><path d="m502.898 391.96c5.298-.499 9.102-4.956 9.102-9.96 0-5.522-4.478-10-10-10h-66.027c6.292-8.363 10.027-18.752 10.027-30v-136h10c5.522 0 10-4.478 10-10s-4.478-10-10-10h-50v-26c33.084 0 60-26.916 60-60v-10c0-5.522-4.478-10-10-10h-10c-15.355 0-29.376 5.805-40 15.327v-35.327h10c27.57 0 50-22.43 50-50 0-5.522-4.478-10-10-10h-20c-16.339 0-30.87 7.878-40 20.035-9.13-12.157-23.661-20.035-40-20.035h-20c-5.522 0-10 4.478-10 10 0 27.57 22.43 50 50 50h10v35.327c-10.624-9.522-24.645-15.327-40-15.327h-10c-5.522 0-10 4.478-10 10v10c0 33.084 26.916 60 60 60v26h-50c-5.522 0-10 4.478-10 10s4.478 10 10 10h10v136c0 11.248 3.735 21.637 10.027 30h-110.796c38.206-24.033 60.769-65.75 60.769-110 0-52.619-31.865-99.982-80-120.034v-81.966h10c5.522 0 10-4.478 10-10v-40c0-5.522-4.478-10-10-10h-120c-5.522 0-10 4.478-10 10v40c0 5.522 4.478 10 10 10h10v81.966c-48.135 20.052-80 67.415-80 120.034 0 44.437 22.665 86.031 60.771 110h-36.771c-38.598 0-70 31.402-70 70s31.402 70 70 70h141c5.522 0 10-4.478 10-10s-4.478-10-10-10h-141c-27.57 0-50-22.43-50-50s22.43-50 50-50.01h409.958c-2.271 5.605-4.109 12.302-5.462 20.01h-404.496c-5.522 0-10 4.478-10 10s4.478 10 10 9.99h402.271c-.174 3.303-.271 6.639-.271 10.01s.097 6.708.271 10h-76.271c-5.522 0-10 4.478-10 10s4.478 10 10 10h78.496c1.353 7.708 3.191 14.406 5.462 20h-178.958c-5.522 0-10 4.478-10 10s4.478 10 10 10h201c5.522 0 10-4.478 10-10 0-5.018-3.815-9.462-9.102-9.96-7.824-6.543-10.898-34.948-10.898-50.04 0-14.622 3.186-43.59 10.898-50.04zm-66.898-371.97h8.286c-4.127 11.641-15.249 20.01-28.286 20.01h-8.286c4.127-11.641 15.249-20.01 28.286-20.01zm10 80.01c0 22.056-17.944 40-40 40 0-22.056 17.944-40 40-40zm-70-60c-13.037 0-24.159-8.359-28.286-20h8.286c13.037 0 24.159 8.359 28.286 20zm-250-20h100v20h-100zm-34.838 312c-16.255-19.664-25.162-44.349-25.162-70 0-46.553 29.47-88.242 73.332-103.741 3.996-1.412 6.668-5.19 6.668-9.429v-88.83h60v88.83c0 4.238 2.672 8.017 6.668 9.429 43.862 15.499 73.332 57.188 73.332 103.741 0 25.649-8.906 50.332-25.162 70h-74.838v-40h10c27.57 0 50-22.43 50-50 0-5.522-4.478-10-10-10h-20c-11.247 0-21.637 3.735-30 10.027v-15.06c7.145-5.86 20-18.665 20-34.968 0-21.286-21.926-36.623-24.426-38.302-3.371-2.264-7.777-2.264-11.148 0-2.5 1.68-24.426 17.017-24.426 38.303 0 16.303 12.855 29.108 20 34.968v35.06c-8.363-6.293-18.753-10.028-30-10.028h-20c-5.522 0-10 4.478-10 10 0 27.57 22.43 50 50 50h10v20zm84.839-122.892c-4.684-4.425-10.001-10.959-10.001-17.108 0-6.151 5.322-12.688 9.999-17.108 4.684 4.425 10.001 10.959 10.001 17.108 0 6.151-5.322 12.688-9.999 17.108zm11.713 62.892c4.127-11.641 15.249-20.01 28.286-20.01h8.286c-4.127 11.641-15.249 20.01-28.286 20.01zm-23.428 20h-8.286c-13.037 0-24.159-8.359-28.286-20h8.286c13.037 0 24.159 8.359 28.286 20zm11.714 80c-22.79 0-44.844-7.113-63.205-20.01h126.411c-18.359 12.896-40.415 20.01-63.206 20.01zm170-272c22.056 0 40 17.944 40 40-22.056 0-40-17.944-40-40zm20 106h20v40h-20zm60 136c0 16.542-13.458 30-30 30s-30-13.458-30-30v-76h60zm0-96h-20v-40h20z"/><path d="m366 462c0-5.522-4.478-10-10-10h-286c-5.522 0-10 4.478-10 10s4.478 10 10 10h286c5.522 0 10-4.478 10-10z"/><circle cx="256" cy="502" r="10"/></g></g></svg>