<svg id="Capa_1" enable-background="new 0 0 512 512" height="512" viewBox="0 0 512 512" width="512" xmlns="http://www.w3.org/2000/svg"><g><g><path d="m256 10c-66.27 0-120 53.73-120 120v155l80 20h80l80-20v-149.97c0-66.2-51.75-125.03-120-125.03z" fill="#ffee80"/><path d="m346 130h-6.75c-37.77 0-71.31-24.17-83.25-60l-1.03 3.08c-11.33 33.99-43.14 56.92-78.97 56.92h-10c-16.57 0-30 13.43-30 30s13.43 30 30 30h10c0 29.61 16.09 55.46 40 69.3v45.7l20 5h40l20-5v-45.7c23.91-13.84 40-39.69 40-69.3h10c16.57 0 30-13.43 30-30s-13.43-30-30-30z" fill="#fce8d0"/><path d="m276 310v192l160-40v-192z" fill="#d8ec84"/><path d="m76 270v192l160 40v-192z" fill="#d8ec84"/><path d="m456 356v40c0 11.05-8.95 20-20 20h-10c-11.05 0-20-8.95-20-20v-30c0-16.57 13.43-30 30-30 11.05 0 20 8.95 20 20z" fill="#fce8d0"/><path d="m236 310h40v192h-40z" fill="#8690a6"/><path d="m106 366v30c0 11.05-8.95 20-20 20h-10c-11.05 0-20-8.95-20-20v-40c0-11.05 8.95-20 20-20 16.57 0 30 13.43 30 30z" fill="#fce8d0"/></g><g><circle cx="296" cy="170" r="10"/><circle cx="216" cy="170" r="10"/><path d="m286 210c0-5.522-4.478-10-10-10s-10 4.478-10 10c0 5.514-4.486 10-10 10s-10-4.486-10-10c0-5.522-4.478-10-10-10-5.523 0-10 4.478-10 10 0 16.542 13.458 30 30 30s30-13.458 30-30z"/><path d="m446 327.72v-57.72c0-3.079-1.419-5.987-3.846-7.882-2.428-1.896-5.592-2.564-8.58-1.819l-47.574 11.893v-137.162c0-71.29-55.801-135.03-130-135.03-71.682 0-130 58.317-130 130v142.192l-47.575-11.894c-2.986-.746-6.152-.075-8.58 1.819-2.426 1.896-3.845 4.804-3.845 7.883v57.72c-11.639 4.128-20 15.243-20 28.28v40c0 13.036 8.361 24.152 20 28.28v37.72c0 4.589 3.123 8.589 7.575 9.701l36.338 9.085c5.327 1.336 10.781-1.893 12.126-7.275 1.34-5.358-1.918-10.788-7.276-12.127l-28.763-7.192v-28.192c16.542 0 30-13.458 30-30v-30c0-18.604-12.767-34.282-30-38.734v-44.458l140 35v171.385l-23.913-5.979c-5.356-1.346-10.788 1.918-12.126 7.275-1.34 5.358 1.918 10.788 7.276 12.127l36.338 9.085c.622.156 1.629.299 2.479.299h39.892c.881 0 1.769-.119 2.48-.299l160-40c4.451-1.112 7.574-5.112 7.574-9.701v-37.72c11.639-4.128 20-15.243 20-28.28v-40c0-13.036-8.361-24.152-20-28.28zm-350 38.28v30c0 5.514-4.486 10-10 10h-10c-5.514 0-10-4.486-10-10v-40c0-5.514 4.486-10 10-10 11.028 0 20 8.972 20 20zm250-186v-40c11.028 0 20 8.972 20 20s-8.972 20-20 20zm20 14.618v82.574l-60 15v-27.357c22.035-14.767 36.482-38.626 39.438-64.835h.562c7.283 0 14.112-1.966 20-5.382zm-110-174.618c57.47 0 104.779 46.328 109.589 105.145-5.794-3.27-12.475-5.145-19.589-5.145h-6.75c-33.523 0-63.166-21.364-73.763-53.161-1.36-4.082-5.18-6.837-9.481-6.839-.002 0-.004 0-.006 0-4.3 0-8.119 2.749-9.483 6.828-.074.1-14.423 53.172-70.517 53.172h-10c-7.239 0-14.029 1.943-19.894 5.32 2.462-58.491 50.808-105.32 109.894-105.32zm-90 120v40c-11.028 0-20-8.972-20-20s8.972-20 20-20zm40 152.192-60-15v-82.574c5.888 3.415 12.717 5.381 20 5.381h.562c2.955 26.207 17.401 50.064 39.438 64.835zm-20-102.192v-50.541c29.494-3.157 55.512-20.126 70.353-45.37 15.271 24.465 40.734 41.082 69.647 45.01v50.901c0 37.914-30.697 70-70 70-39.301 0-70-32.079-70-70zm80 302h-20v-172h20zm8.77-192h-37.54l-11.23-2.808v-22.341c9.592 3.384 19.743 5.148 30 5.148s20.407-1.764 30-5.149v22.342zm151.23 154.192-140 35v-171.384l140-35v44.458c-17.233 4.452-30 20.13-30 38.734v30c0 16.542 13.458 30 30 30zm20-58.192c0 5.514-4.486 10-10 10h-10c-5.514 0-10-4.486-10-10v-30c0-11.028 8.972-20 20-20 5.514 0 10 4.486 10 10z"/><circle cx="156" cy="482" r="10"/></g></g></svg>