<svg id="Capa_1" enable-background="new 0 0 512.005 512.005" height="512" viewBox="0 0 512.005 512.005" width="512" xmlns="http://www.w3.org/2000/svg"><g><g><path d="m10.001 56v320h206c0 11.05 17.91 20 40 20 32.053 0 38.376-15.32 46-20h200v-320z" fill="#ff9256"/><path d="m256.001 10h-206v326h412v-326z" fill="#eefaff"/><path d="m496.141 425.43-34.14-34.43c0-10.243 0-19.659 0-31.72 0-15.91-6.7-31.17-17.95-42.42-11.022-11.023-100.855-100.865-109.7-109.71-7.81-7.81-20.48-7.81-28.29 0s-7.81 20.48 0 28.29l42.24 42.24c-7.82-7.63-20.35-7.57-28.1.18-7.81 7.81-7.81 20.48 0 28.29-7.81-7.81-20.47-7.81-28.28 0s-7.81 20.47 0 28.28c-7.81-7.81-20.47-7.81-28.28 0-.51.51-.98 1.03-1.41 1.58-6.38 7.85-5.9 19.41 1.41 26.71l74.83 74.83c6.59 6.59 14.62 11.55 23.46 14.5l28.98 9.66 34.52 34.43c7.81 7.81 20.48 7.81 28.29 0l42.42-42.42c7.81-7.81 7.81-20.48 0-28.29z" fill="#fce8d0"/></g><g><path d="m502.001 46h-30v-36c0-5.522-4.478-10-10-10h-412c-5.522 0-10 4.478-10 10v36h-30c-5.522 0-10 4.478-10 10v320c0 5.522 4.478 10 10 10h57.999c5.522 0 10-4.478 10-10s-4.478-10-10-10h-47.999v-300h20v270c0 5.522 4.478 10 10 9.99h197.858c-.74 8.552 2.205 17.303 8.711 23.801l14.491 14.49c-4.25 1.036-9.31 1.719-15.059 1.719-9.03 0-17.709-1.75-23.813-4.801-5.112-2.556-6.188-4.853-6.188-5.199 0-5.522-4.478-10-10-10h-57.999c-5.522 0-10 4.478-10 10s4.478 10 10 10h50.632c6.563 11.889 24.761 20 47.367 20 11.429 0 22.209-2.136 30.791-5.987l44.608 44.608c7.642 7.641 17.104 13.489 27.369 16.916l26.747 8.915 32.844 32.759c11.725 11.725 30.708 11.725 42.433 0l42.419-42.42c11.776-11.774 11.662-30.77.03-42.402l-31.24-31.506v-.883h30c5.522 0 10-4.478 10-10v-320c-.001-5.522-4.479-10-10.001-10zm-256 280h-186v-306h186zm20-306h186v290.712c-1.987-2.059-109.014-109.067-110.579-110.632-11.724-11.726-30.707-11.727-42.433-.001-11.697 11.698-11.698 30.732 0 42.433l22.433 22.433c-3.005 1.425-5.818 3.371-8.291 5.845-5.276 5.274-8.345 12.17-8.743 19.564-7.115.395-14.114 3.303-19.538 8.726-5.428 5.429-8.333 12.438-8.722 19.559-3.459.19-6.889.977-10.126 2.355v-300.994zm75.42 279.079c-2.448 2.447-4.418 5.244-5.869 8.276l-8.279-8.276c-3.908-3.908-3.91-10.239 0-14.147 3.845-3.847 10.131-3.891 14.026-.111l7.19 7.19zm-.001 56.569c-3.909 3.909-10.238 3.909-14.146.001l-28.281-28.291c-3.897-3.897-3.897-10.239 0-14.137 3.898-3.898 10.239-3.899 14.138 0 .001 0 0 .001.002.001l28.287 28.278c3.9 3.901 3.9 10.248 0 14.148zm-28.288-127.278c-3.9-3.901-3.9-10.248 0-14.148 3.909-3.909 10.239-3.909 14.147-.001l56.562 56.567c-7.366 1.038-14.342 3.688-20.506 7.783-.61-.609-49.595-49.592-50.203-50.201zm-.001 155.559c-3.897 3.897-10.241 3.897-14.139 0l-28.285-28.285c-3.634-3.628-3.941-9.357-.716-13.326.04-.05.08-.1.119-.149 3.343-4.277 10.394-5.014 14.739-.667l28.28 28.289c3.898 3.897 3.898 10.24.002 14.138zm175.938 48.572c3.908 3.908 3.908 10.239 0 14.147l-42.42 42.421c-3.855 3.855-10.183 3.962-14.157-.01l-34.52-34.43c-1.096-1.094-2.431-1.917-3.899-2.407l-28.977-9.658c-7.334-2.448-14.097-6.627-19.555-12.086l-26.555-26.555c2.997-1.428 5.807-3.375 8.285-5.852 5.424-5.424 8.328-12.425 8.721-19.541 7.396-.398 14.293-3.464 19.569-8.74 5.426-5.426 8.33-12.43 8.723-19.549 1.678-.091 3.33-.318 4.943-.678.244 12.473 5.115 24.871 14.611 34.368 3.907 3.905 10.236 3.904 14.143 0 3.905-3.905 3.905-10.237 0-14.143-11.697-11.697-11.697-30.73 0-42.428 3.905-3.905 3.905-10.237 0-14.143-3.904-3.903-10.234-3.904-14.143 0-.012.012-.021.022-.034.034l-14.106 14.106c-3.908 3.906-10.227 3.907-14.138-.001-3.907-3.907-3.909-10.228.001-14.137l14.142-14.143c11.721-11.729 30.697-11.735 42.426.002l24.85 24.851c9.547 9.546 15.021 22.431 15.021 35.349v31.722c0 2.638 1.042 5.168 2.899 7.041zm2.932-66.501h-20c0-16.762 0-283.773 0-300h20z"/><path d="m90.001 86h86c5.522 0 10-4.478 10-10s-4.478-10-10-10h-86c-5.522 0-10 4.478-10 10s4.477 10 10 10z"/><path d="m90.001 126h126c5.522 0 10-4.478 10-10s-4.478-10-10-10h-126c-5.522 0-10 4.478-10 10s4.477 10 10 10z"/><path d="m90.001 166h126c5.522 0 10-4.478 10-10s-4.478-10-10-10h-126c-5.522 0-10 4.478-10 10s4.477 10 10 10z"/><path d="m296.001 86h86c5.522 0 10-4.478 10-10s-4.478-10-10-10h-86c-5.522 0-10 4.478-10 10s4.477 10 10 10z"/><path d="m296.001 126h126c5.522 0 10-4.478 10-10s-4.478-10-10-10h-126c-5.522 0-10 4.478-10 10s4.477 10 10 10z"/><path d="m296.001 166h126c5.522 0 10-4.478 10-10s-4.478-10-10-10h-126c-5.522 0-10 4.478-10 10s4.477 10 10 10z"/><path d="m90.001 206h126c5.522 0 10-4.478 10-10s-4.478-10-10-10h-126c-5.522 0-10 4.478-10 10s4.477 10 10 10z"/><path d="m90.001 246h126c5.522 0 10-4.478 10-10s-4.478-10-10-10h-126c-5.522 0-10 4.478-10 10s4.477 10 10 10z"/><path d="m90.001 286h126c5.522 0 10-4.478 10-10s-4.478-10-10-10h-126c-5.522 0-10 4.478-10 10s4.477 10 10 10z"/><circle cx="113.001" cy="376" r="10"/></g></g></svg>