<svg id="Capa_1" enable-background="new 0 0 512.17 512.17" height="512" viewBox="0 0 512.17 512.17" width="512" xmlns="http://www.w3.org/2000/svg"><g><g><path d="m462 10.085h-326c-22.09 0-40 17.91-40 40v106l20 20-20 20v140l40 20-40 20v46h-46c-22.09 0-40 17.91-40 40s17.91 40 40 40h332l40-40v-312l-40-20 40-20v-20h80v-40c0-22.09-17.91-40-40-40z" fill="#eefaff"/><g fill="#ffee80"><circle cx="382" cy="462.085" r="40"/><path d="m490.48 187.845c-15.62-15.63-40.95-15.63-56.57 0-13.838 13.838-101.516 101.517-115.56 115.56-7.5 7.5-11.35 17.67-11.35 28.28v40.4h39.63c10.61 0 20.79-4.61 28.29-12.11 1.883-1.883-13.937 13.94 115.56-115.57 15.62-15.62 15.62-40.94 0-56.56z"/><circle cx="256" cy="76.085" r="20"/></g></g><g><circle cx="296" cy="136.085" r="10"/><circle cx="256" cy="136.085" r="10"/><circle cx="216" cy="136.085" r="10"/><path d="m497.554 180.776s-.001-.001-.001-.001 0 0 0-.001c0 0-.001-.001-.002-.002-18.138-18.145-46.236-19.2-65.55-4.497v-26.19c0-3.788-2.14-7.25-5.528-8.944l-22.111-11.056 22.111-11.056c3.389-1.694 5.528-5.156 5.528-8.944v-10h70c5.522 0 10-4.478 10-10v-40c0-27.57-22.43-50-50-50h-326.001c-27.57 0-50 22.43-50 50v106c0 2.652 1.054 5.195 2.929 7.071l12.929 12.929-12.929 12.929c-1.875 1.876-2.929 4.419-2.929 7.071v140c0 3.788 2.14 7.25 5.528 8.944l22.111 11.056-22.111 11.056c-3.388 1.694-5.528 5.156-5.528 8.944v36h-36c-27.57 0-50 22.43-50 50s22.43 50 50 50h100.999c5.522 0 10-4.478 10-10s-4.478-10-10-10h-100.999c-16.542 0-30-13.458-30-30s13.458-30 30-30.01h292.027c-6.292 8.373-10.027 18.762-10.027 30.01s3.735 21.637 10.027 30h-101.027c-5.522 0-10 4.478-10 10s4.478 10 10 10h141c27.57 0 50-22.43 50-50v-145.057c2.302-2.302 63.428-63.427 65.552-65.551 19.491-19.493 19.491-51.21.002-70.701zm-65.554-130.691c0-16.542 13.458-30 30-30s30 13.458 30 30v30h-60zm-2 155.812 10.983-10.983c9.406-9.41 23.226-11.105 34.154-5.868l-45.137 45.137zm-324 206.188v-29.819l34.472-17.236c3.389-1.694 5.528-5.156 5.528-8.944s-2.14-7.25-5.528-8.944l-34.472-17.237v-129.677l17.071-17.071c3.905-3.905 3.905-10.237 0-14.143l-17.071-17.071v-101.858c0-16.542 13.458-30 30-30.01h286.027c-6.292 8.373-10.027 18.763-10.027 30.01v53.819l-34.472 17.236c-3.389 1.694-5.528 5.156-5.528 8.944s2.14 7.25 5.528 8.944l34.472 17.238v39.347c-2.748 2.748-98.012 97.991-100.722 100.722-9.207 9.207-14.278 21.762-14.278 35.35v35.498l-44.902 44.902zm304-186.188v28.286l-23 23v-28.286zm-56.617 113.188h28.284l-13.819 13.818c-5.835 5.835-13.568 9.182-21.219 9.182h-16.247zm-36.383 8.098v-15.498c0-8.246 2.99-15.778 8.421-21.208l41.579-41.58v28.286c-.93.93-45.164 45.164-50 50zm55 143.182c-8.509-3.018-15.262-9.771-18.28-18.28h18.28zm20 0v-28.28c0-5.522-4.478-10-10-10h-28.28c4.128-11.639 15.243-20 28.28-20 16.542 0 30 13.458 30 30 0 13.037-8.361 24.152-20 28.28zm20-68.252c-8.363-6.292-18.752-10.027-30-10.027h-101.617l30-30h36.247c12.915 0 25.804-5.481 35.361-15.039l30.009-30.01zm-10.332-103.028h-28.285l22-22.01h28.274c-2.243 2.255 8.15-8.144-21.989 22.01zm81.741-81.751-39.751 39.751h-28.275c11.581-11.581 64.532-64.532 73.881-73.881 5.308 11.147 3.361 24.915-5.855 34.13z"/><path d="m169.68 76.085c0-5.514 4.486-10 10-10s10 4.486 10 10c0 16.542 13.458 30 30 30 6.675 0 13.027-2.249 18.16-6.15 5.133 3.902 11.485 6.15 18.16 6.15s13.027-2.249 18.161-6.15c5.133 3.901 11.485 6.15 18.16 6.15 16.542 0 30-13.458 30-30 0-5.514 4.486-10 10-10s10 4.486 10 10c0 5.522 4.478 10 10 10s10-4.478 10-10c0-16.542-13.458-30-30-30s-30 13.458-30 30c0 5.514-4.486 10-10 10-2.732 0-5.288-1.142-7.142-3.034.54-2.266.821-4.592.821-6.966 0-16.542-13.458-30-30-30s-30 13.458-30 30c0 2.374.281 4.7.822 6.966-1.854 1.892-4.41 3.034-7.142 3.034-5.514 0-10-4.486-10-10 0-16.542-13.458-30-30-30s-30 13.458-30 30c0 5.522 4.478 10 10 10s10-4.477 10-10zm86.32-10c5.514 0 10 4.486 10 10 0 5.59-4.549 10-10 10-5.476 0-10-4.429-10-10 0-5.513 4.486-10 10-10z"/><path d="m336 166.085h-160c-5.522 0-10 4.478-10 10s4.478 10 10 10h160c5.522 0 10-4.478 10-10s-4.478-10-10-10z"/><path d="m336 206.085h-160c-5.522 0-10 4.478-10 10s4.478 10 10 10h160c5.522 0 10-4.478 10-10s-4.478-10-10-10z"/><path d="m306 256.085c0-5.522-4.478-10-10-10h-120c-5.522 0-10 4.478-10 10s4.478 10 10 10h120c5.522 0 10-4.477 10-10z"/><path d="m276 286.085h-100c-5.522 0-10 4.478-10 10s4.478 10 10 10h100c5.522 0 10-4.478 10-10s-4.478-10-10-10z"/><circle cx="196" cy="502.085" r="10"/></g></g></svg>